<svg width="104" height="17" viewBox="0 0 104 17" fill="none" xmlns="http://www.w3.org/2000/svg">
<g clip-path="url(#clip0_3824_638)">
<path d="M42.1836 5.14891L42.3377 5.07239L42.4524 5.18718L42.1836 5.14891Z" fill="#FEEEBB"/>
<path d="M44.7159 3.58306C45.3497 1.61626 47.1305 0.433169 49.1105 1.19687C50.1277 1.59724 50.1086 3.35485 48.7081 2.95348C47.7865 2.68624 47.2875 3.1827 46.8659 3.83129C46.5208 4.36578 46.2713 5.05342 47.4223 4.97735C47.8831 5.01538 48.0944 5.37771 48.1135 5.85515C48.1243 6.04661 48.0605 6.23484 47.9353 6.38064C47.8101 6.52645 47.6332 6.61859 47.4414 6.63787C47.1327 6.65421 46.8403 6.7812 46.6183 6.99537C46.3964 7.20955 46.2599 7.49641 46.2341 7.80294C45.7733 10.6476 45.3286 13.5082 44.8909 16.3568C44.6026 16.6373 44.2195 16.8007 43.8164 16.8152C43.415 16.7938 43.0343 16.6313 42.7419 16.3568C42.908 13.788 43.2285 11.2314 43.7017 8.70077C43.7591 8.37647 43.6444 7.2114 43.2993 7.03924C42.8576 6.81003 42.6081 7.13933 42.3777 7.42159C41.8978 8.03215 41.437 8.01314 40.9571 7.44061C39.959 7.09729 39.2467 7.63179 39.0767 8.91096C38.9425 9.77042 38.8466 10.6295 38.7889 11.4883C38.8052 11.6978 38.7713 11.9081 38.69 12.1021C38.6087 12.296 38.4824 12.468 38.3214 12.604C38.1604 12.7399 37.9693 12.836 37.7637 12.8842C37.5582 12.9325 37.344 12.9316 37.1389 12.8816C36.1026 12.7815 36.3904 11.9648 36.4286 11.3542C36.5825 9.67366 36.6017 7.5357 36.9085 5.87417C37.158 4.595 37.5031 4.28971 38.7507 4.63303C40.1904 5.74005 40.2478 5.64496 40.9963 5.01538C41.1885 4.84322 41.7066 5.05342 42.0708 5.11547C43.7017 5.43977 44.2199 5.11547 44.7189 3.58807L44.7159 3.58306Z" fill="#2D96EE"/>
<path d="M62.1614 4.93936C63.0669 4.99641 63.0438 8.43358 61.6242 7.17342C61.1426 6.86515 60.5612 6.75081 59.9979 6.85362C59.4347 6.95642 58.9319 7.26867 58.5918 7.72692C57.7667 8.64377 57.6511 10.0561 59.0526 10.5906C59.8202 10.8958 61.8355 10.0901 62.4109 10.6907C62.6031 10.9199 62.5457 11.3012 62.0658 12.2371C61.759 12.8286 59.7246 13.249 57.9016 12.4282C53.852 10.0421 56.0976 4.56202 62.1624 4.94337L62.1614 4.93936Z" fill="#2D96EE"/>
<path d="M24.8159 9.4444C24.5185 9.85095 24.1312 10.1842 23.684 10.4183C20.0952 11.9457 21.9374 6.3896 23.2232 6.52372C23.666 6.54554 24.0841 6.733 24.3938 7.04854C24.7035 7.36408 24.8819 7.7844 24.8933 8.22528C24.9124 8.62565 24.836 9.04604 24.8169 9.44741L24.8159 9.4444ZM23.5874 4.9763C22.7051 5.07639 22.6085 4.55591 22.5129 3.81123C22.4474 3.55065 22.2896 3.32233 22.0685 3.16826C21.8473 3.01418 21.5777 2.9447 21.3092 2.97258C21.0407 3.00046 20.7913 3.12384 20.6069 3.32002C20.4225 3.51621 20.3154 3.77203 20.3055 4.04044C20.1524 5.37916 19.5663 6.63216 18.6353 7.61072C18.3245 7.93607 18.0598 8.30211 17.8486 8.69872C17.7783 8.8025 17.7496 8.92872 17.7682 9.05248C17.7869 9.17625 17.8514 9.28858 17.9492 9.36733C17.9992 9.40419 18.0567 9.42966 18.1177 9.44195C18.1787 9.45423 18.2417 9.45302 18.3022 9.43841C18.3626 9.4238 18.4191 9.39614 18.4677 9.3574C18.5162 9.31865 18.5556 9.26976 18.583 9.21419C18.7179 8.96596 19.1394 8.39344 19.4885 8.48853C20.064 8.6797 18.9704 13.7774 18.8165 14.7703C18.5861 16.4719 18.6434 16.4318 20.3327 16.4318C22.5018 16.4128 19.9483 12.6894 22.3861 12.6894C23.3905 12.7776 24.3957 12.5284 25.241 11.9816C26.0863 11.4347 26.7231 10.6218 27.0494 9.67261C27.5675 7.20935 27.2607 4.95628 23.5944 4.97529L23.5874 4.9763Z" fill="#2D96EE"/>
<path d="M34.2952 5.60795C30.8402 3.18272 26.024 7.6098 28.7103 11.6225C29.3411 12.3439 30.2014 12.8284 31.1477 12.9952C32.0941 13.1621 33.0693 13.0012 33.9109 12.5393C34.3908 12.196 35.0629 11.7186 34.755 11.0309C34.429 10.2863 33.6614 10.5155 33.1241 10.7827C31.0706 12.138 29.0363 9.35039 30.8785 9.10217C31.8881 9.03855 32.9005 9.0322 33.9109 9.08315C36.1374 9.0261 35.5206 6.46774 34.2952 5.60795ZM31.8574 6.54381C32.1844 6.54605 32.4985 6.671 32.7369 6.89369C32.9753 7.11638 33.1204 7.42039 33.1432 7.74492H30.6099C30.6178 7.4219 30.753 7.11491 30.9864 6.89021C31.2198 6.66551 31.5326 6.54109 31.8574 6.54381Z" fill="#2D96EE"/>
<path d="M66.7876 12.8245C62.7763 11.9077 66.0391 7.4786 64.6959 6.67686C64.3891 6.48569 63.1606 7.11627 63.4102 5.70297C63.5249 5.05337 64.043 5.01534 64.4847 5.05337C65.7514 5.22553 65.4636 4.42379 65.5783 3.79321C65.5918 3.61827 65.6589 3.45166 65.7705 3.31578C66.0965 2.91541 66.6921 3.08656 67.1518 3.04853C67.8239 2.97246 67.8239 3.46892 67.8239 3.96537C67.3209 5.18749 68.2083 5.05337 68.7455 5.07239C69.2063 5.09141 69.4176 5.26357 69.4176 5.72199V5.74101C69.422 5.92186 69.3756 6.10035 69.2838 6.25648C68.8994 6.82901 68.4588 6.46667 67.9598 6.58077C67.4034 6.69488 67.1347 7.17232 66.9999 7.76487C66.2896 11.3922 67.345 11.1059 68.1127 10.6475C68.823 10.2471 69.0343 10.2852 68.9377 11.3351C68.9331 11.6094 68.8605 11.8782 68.7264 12.1179C68.547 12.3265 68.3269 12.4967 68.0794 12.6181C67.8319 12.7396 67.5622 12.8098 67.2867 12.8245C67.1196 12.8439 66.9507 12.8439 66.7836 12.8245H66.7876Z" fill="#2D96EE"/>
<path d="M54.2552 5.60795C50.8002 3.18272 45.984 7.6098 48.6703 11.6225C49.2976 12.3428 50.1546 12.827 51.0978 12.9939C52.041 13.1608 53.0132 13.0003 53.8517 12.5393C54.3548 12.196 55.0037 11.7186 54.715 11.0309C54.389 10.2863 53.6022 10.5155 53.0841 10.7827C51.0306 12.138 48.9772 9.35039 50.8385 9.10217C51.8481 9.03849 52.8605 9.03214 53.8709 9.08315C56.0974 9.02609 55.4806 6.46774 54.2552 5.60795ZM51.8174 6.54381C52.1433 6.54346 52.4568 6.66809 52.6927 6.89179C52.9286 7.11549 53.0688 7.42104 53.0841 7.74492H50.5507C50.5691 7.42213 50.7102 7.11839 50.9455 6.89533C51.1807 6.67227 51.4924 6.5466 51.8174 6.54381Z" fill="#2D96EE"/>
<path d="M12.7435 10.1521L11.3812 6.44867H10.6709C10.5703 6.44867 10.517 6.39162 10.5361 6.2575L10.5934 5.58888C10.6125 5.47478 10.6508 5.39771 10.7665 5.39771H13.0674C13.1821 5.39771 13.2405 5.45476 13.2214 5.58888L13.164 6.2575C13.164 6.3716 13.1067 6.44867 12.991 6.44867H12.4728L13.989 10.4203H14.0081L15.6582 6.44867H15.0827C14.982 6.44867 14.9478 6.39162 14.9478 6.2575L15.0052 5.58888C15.0243 5.47478 15.0625 5.39771 15.1782 5.39771H17.5577C17.6583 5.39771 17.6925 5.45476 17.6925 5.58888L17.6543 6.2575C17.6351 6.3716 17.5969 6.44867 17.4812 6.44867H16.7709L13.5272 15.457H14.0071C14.1077 15.457 14.1419 15.514 14.1419 15.6291L14.1037 16.2587C14.0846 16.3928 14.0464 16.4499 13.9307 16.4499H11.6468C11.5462 16.4499 11.512 16.3928 11.512 16.2587L11.5693 15.6291C11.5693 15.515 11.6267 15.457 11.7233 15.457H12.4718C12.836 14.2559 13.5272 12.1349 13.5081 11.9818C13.5081 11.9627 12.836 10.3803 12.7404 10.1491L12.7435 10.1521Z" fill="#919191"/>
<path d="M9.6918 12.9778H7.54578C7.44517 12.9778 7.41096 12.9207 7.41096 12.7866V12.6725V12.2901V12.176C7.41096 12.0419 7.46831 11.9849 7.54578 11.9849H8.08304V8.49066C8.11448 8.03102 8.00765 7.57247 7.77618 7.17345C7.67276 7.02248 7.53168 6.90085 7.36676 6.82048C7.20184 6.74011 7.01876 6.70377 6.83547 6.71502C6.52531 6.72762 6.22562 6.8301 5.97323 7.00988C5.72084 7.18967 5.52676 7.43891 5.41485 7.72696C5.45384 7.92173 5.47305 8.1199 5.4722 8.3185V12.0219H6.10504C6.20565 12.0219 6.23986 12.079 6.23986 12.2131V12.8427C6.23986 12.9568 6.18251 13.0148 6.10504 13.0148H3.93387C3.83326 13.0148 3.77993 12.9578 3.77993 12.8427V12.2141C3.77993 12.1 3.83728 12.0229 3.93387 12.0229H4.54759V8.49066C4.57376 8.02904 4.46021 7.57021 4.22161 7.17345C4.11506 7.02569 3.97338 6.90649 3.80923 6.8265C3.64508 6.74651 3.46356 6.70821 3.2809 6.71502C3.02326 6.69735 2.76693 6.76453 2.55148 6.9062C2.41806 7.00015 2.29586 7.10895 2.18727 7.2305C2.1097 7.31376 2.03904 7.40313 1.97599 7.49774C1.88016 7.64709 1.8028 7.80739 1.74559 7.97518V12.0039H2.32108C2.42169 12.0039 2.4559 12.0609 2.4559 12.1951V12.8246C2.4559 12.9387 2.41767 12.9968 2.32108 12.9968H0.153934C0.0533234 12.9968 0 12.9397 0 12.8246V12.1951C0 12.081 0.0573478 12.0039 0.153934 12.0039H0.786771V6.71502H0.153934C0.0533234 6.71502 0 6.65797 0 6.52385V5.89427C0 5.76015 0.0573478 5.70309 0.153934 5.70309H1.26668C1.3192 5.69553 1.37278 5.70068 1.42287 5.71811C1.47296 5.73553 1.51809 5.76472 1.55443 5.80319C1.61782 5.90589 1.64474 6.02677 1.63089 6.1465L1.61178 6.89118H1.65001C1.78844 6.51215 2.04199 6.18537 2.37551 5.95616C2.70903 5.72695 3.10598 5.60667 3.5113 5.61201C3.89299 5.59476 4.26938 5.70599 4.57971 5.92773C4.89004 6.14947 5.1162 6.46879 5.22168 6.83413C5.37515 6.47354 5.63115 6.1654 5.95824 5.94758C6.28533 5.72975 6.66926 5.61173 7.06285 5.60801C7.34141 5.59425 7.61902 5.64994 7.87045 5.77002C8.12188 5.89011 8.33918 6.07079 8.50259 6.29564C8.87441 6.84692 9.05624 7.50341 9.02073 8.16636V11.9468H9.71193C9.81254 11.9468 9.84674 12.0039 9.84674 12.138V12.2521V12.6345V12.7486C9.84674 12.8827 9.80851 12.9397 9.71193 12.9397H9.69281L9.6918 12.9778Z" fill="#919191"/>
<path d="M77.1309 12.7294H76.4206C76.2475 12.7294 76.1516 12.615 76.1328 12.3861L75.1156 6.86802H75.0965L74.0794 12.3861C74.0602 12.6153 73.9445 12.7294 73.7725 12.7294H73.0813C72.9475 12.7294 72.8318 12.6153 72.7936 12.3861L71.219 5.74099H70.5469C70.4463 5.74099 70.4121 5.68393 70.4121 5.54981V4.84416C70.4121 4.71004 70.4695 4.65299 70.5469 4.65299H72.7926C72.8932 4.65299 72.9274 4.71004 72.9274 4.84416V5.55081C72.9274 5.68494 72.87 5.74199 72.7926 5.74199H72.2362L73.4264 11.2981H73.4455L74.5009 5.74199H74.0401C73.9395 5.74199 73.9053 5.68494 73.9053 5.55081V4.84416C73.9053 4.71004 73.9626 4.65299 74.0401 4.65299H76.1529C76.2535 4.65299 76.2867 4.71004 76.2867 4.84416V5.55081C76.2867 5.68494 76.2294 5.74199 76.1529 5.74199H75.6921L76.7475 11.2981H76.7667L77.9569 5.74199H77.4196C77.319 5.74199 77.2657 5.68494 77.2657 5.55081V4.84416C77.2657 4.71004 77.323 4.65299 77.4196 4.65299H79.627C79.7276 4.65299 79.7618 4.71004 79.7618 4.84416V5.55081C79.7618 5.68494 79.7236 5.74199 79.627 5.74199H78.9741L77.4005 12.3861C77.3623 12.6153 77.2657 12.7294 77.1319 12.7294H77.1309ZM85.2682 11.6794C85.0338 12.0329 84.7146 12.3227 84.3394 12.5228C83.9642 12.7229 83.5449 12.8269 83.1192 12.8255C82.6962 12.8266 82.2797 12.7223 81.9076 12.5222C81.5356 12.322 81.2199 12.0322 80.9893 11.6794C80.3945 10.7816 80.1053 9.71738 80.1643 8.64366C80.1051 7.57314 80.4017 6.513 81.0084 5.62688C81.2436 5.27987 81.5609 4.99562 81.9324 4.7991C82.3038 4.60259 82.7181 4.49982 83.1388 4.49982C83.5596 4.49982 83.9738 4.60259 84.3453 4.7991C84.7167 4.99562 85.034 5.27987 85.2693 5.62688C85.8707 6.51539 86.1669 7.57376 86.1134 8.64366C86.1545 9.7181 85.8596 10.7788 85.2693 11.6794H85.2682ZM81.1432 8.66267C81.1047 9.43601 81.3056 10.2025 81.7187 10.8587C81.8534 11.1122 82.055 11.3244 82.3019 11.4724C82.5487 11.6203 82.8315 11.6985 83.1197 11.6985C83.4079 11.6985 83.6907 11.6203 83.9376 11.4724C84.1844 11.3244 84.3861 11.1122 84.5207 10.8587C84.9339 10.2025 85.1347 9.43601 85.0962 8.66267C85.1388 7.89819 84.9301 7.14069 84.5016 6.50469C84.3588 6.25958 84.1549 6.05527 83.9096 5.91149C83.6643 5.76771 83.3858 5.68933 83.1011 5.68393C82.8172 5.69364 82.5403 5.77382 82.2955 5.91716C82.0507 6.06051 81.8459 6.26248 81.6996 6.50469C81.3103 7.1562 81.1172 7.90519 81.1432 8.66267ZM89.4345 12.7294H87.1507C87.0501 12.7294 86.9967 12.6724 86.9967 12.5382V11.8316C86.9967 11.6975 87.0541 11.6404 87.1507 11.6404H87.8036V5.72197H87.1507C87.0501 5.72197 86.9967 5.66492 86.9967 5.53079V4.82414C86.9967 4.69002 87.0541 4.63297 87.1507 4.63297H88.5522C88.6528 4.63297 88.7061 4.69002 88.7061 4.82414V6.88604H88.7444C88.7862 6.63197 88.8705 6.38668 88.9939 6.16037C89.1186 5.88965 89.2732 5.63353 89.4547 5.39667C89.665 5.16481 89.9194 4.97669 90.2032 4.84316C90.5415 4.67173 90.9173 4.58645 91.2968 4.59493C91.3974 4.59493 91.4508 4.65198 91.4508 4.80513V5.68293C91.4508 5.81706 91.3934 5.91214 91.2968 5.91214H91.0473C90.7154 5.90692 90.3879 5.98894 90.098 6.14992C89.8081 6.3109 89.5661 6.54515 89.3963 6.82899C88.9877 7.43205 88.7737 8.14468 88.7826 8.87187V11.6404H89.4164C89.517 11.6404 89.5703 11.6975 89.5703 11.8316V12.5382C89.5895 12.6523 89.5321 12.7294 89.4355 12.7294H89.4345ZM98.087 12.7294H97.0507C96.9765 12.734 96.9022 12.7228 96.8328 12.6963C96.7634 12.6699 96.7004 12.629 96.6483 12.5763C96.5568 12.4137 96.5168 12.2274 96.5336 12.0418V11.1059H96.5145C96.3857 11.5666 96.1413 11.9872 95.8042 12.328C95.6359 12.4958 95.4352 12.6279 95.2142 12.7165C94.9932 12.8051 94.7566 12.8483 94.5184 12.8435C94.1224 12.8394 93.7344 12.7313 93.394 12.53C93.0535 12.3288 92.7726 12.0415 92.5796 11.6975C92.0423 10.785 91.7823 9.73711 91.8311 8.68069C91.7823 7.62427 92.0423 6.57642 92.5796 5.66392C92.7779 5.32022 93.0626 5.0338 93.4059 4.83285C93.7492 4.6319 94.1392 4.52334 94.5375 4.51786C94.9914 4.50572 95.4321 4.67019 95.7659 4.97628C96.0879 5.29905 96.331 5.69118 96.4763 6.12234H96.4954C96.4762 5.89313 96.4763 5.72197 96.4763 5.56883V1.99855H95.286C95.1854 1.99855 95.1512 1.94149 95.1512 1.80737V1.10072C95.1512 0.966598 95.2086 0.909546 95.286 0.909546H97.2982C97.3989 0.909546 97.4331 0.966598 97.4331 1.10072V11.6204H98.1051C98.2057 11.6204 98.24 11.6774 98.24 11.8116V12.5212C98.24 12.6553 98.1826 12.7314 98.086 12.7314L98.087 12.7294ZM92.809 8.64366C92.7817 9.40854 92.9606 10.1668 93.3272 10.8397C93.4517 11.085 93.6404 11.2925 93.8733 11.4403C94.1063 11.588 94.375 11.6707 94.6512 11.6794C94.9244 11.6684 95.1901 11.5869 95.4221 11.443C95.6542 11.2992 95.8448 11.0978 95.9752 10.8587C96.3449 10.1806 96.5189 9.41401 96.4783 8.64366C96.5177 7.88369 96.3379 7.12835 95.9601 6.46665C95.8325 6.23023 95.6443 6.03161 95.4146 5.89097C95.1849 5.75033 94.9218 5.67269 94.6522 5.66592C94.381 5.67508 94.1167 5.75356 93.8848 5.8938C93.6529 6.03405 93.4612 6.23133 93.3282 6.46665C92.9503 7.12833 92.7705 7.88368 92.81 8.64366H92.809ZM101.79 12.8475C101.324 12.8734 100.865 12.7233 100.505 12.4271C100.24 12.2231 100.035 11.953 99.9101 11.6444H99.893C99.9121 12.1979 99.9121 12.4652 99.9121 12.5032C99.9121 12.6373 99.8547 12.7324 99.739 12.7324H99.3366C99.236 12.7324 99.1827 12.6563 99.1827 12.5032V10.0369C99.1827 9.90281 99.24 9.80773 99.3366 9.80773H99.7924C99.9077 9.80773 99.9654 9.88413 99.9654 10.0369V10.3612C100.051 10.7047 100.225 11.0205 100.468 11.2781C100.611 11.4416 100.788 11.5714 100.988 11.658C101.187 11.7446 101.403 11.7858 101.62 11.7785C101.797 11.8069 101.979 11.7937 102.15 11.74C102.321 11.6863 102.477 11.5937 102.605 11.4695C102.734 11.3452 102.831 11.1928 102.89 11.0244C102.949 10.856 102.968 10.6762 102.944 10.4994C102.951 10.3602 102.921 10.2219 102.857 10.098C102.793 9.97403 102.698 9.86882 102.58 9.79271C102.306 9.59094 102 9.43602 101.675 9.33429C101.311 9.22019 100.965 9.06705 100.6 8.9139C100.212 8.73355 99.8848 8.44401 99.6597 8.081C99.4346 7.71798 99.3213 7.29737 99.3336 6.87103C99.3049 6.25019 99.5024 5.63991 99.89 5.15244C100.069 4.94949 100.291 4.78798 100.54 4.67923C100.789 4.57048 101.058 4.51712 101.33 4.52287C101.677 4.50183 102.023 4.58069 102.326 4.75002C102.629 4.91935 102.877 5.17199 103.04 5.47774H103.059C103.04 5.07738 103.04 4.8862 103.04 4.86718C103.04 4.73306 103.097 4.63797 103.194 4.63797H103.578C103.679 4.63797 103.732 4.71404 103.732 4.86718V7.15829C103.732 7.29241 103.675 7.3875 103.578 7.3875H103.113C103.012 7.3875 102.939 7.31143 102.939 7.15829V6.92908C102.933 6.59736 102.795 6.2816 102.555 6.05127C102.441 5.90839 102.295 5.79419 102.128 5.71787C101.961 5.64155 101.779 5.60525 101.595 5.61187C101.423 5.60208 101.251 5.6275 101.089 5.68655C100.927 5.7456 100.779 5.83703 100.655 5.95518C100.539 6.07428 100.448 6.21553 100.389 6.37038C100.33 6.52522 100.303 6.69044 100.31 6.85601C100.304 7.0187 100.335 7.18055 100.402 7.32933C100.468 7.4781 100.568 7.60992 100.693 7.7148C100.967 7.92972 101.28 8.09165 101.614 8.19224C101.979 8.30634 102.325 8.44047 102.689 8.57459C103.058 8.71761 103.378 8.96286 103.611 9.28124C103.884 9.68616 104.019 10.1683 103.994 10.6555C103.997 11.2143 103.8 11.7558 103.437 12.1829C103.234 12.4149 102.979 12.5962 102.692 12.7123C102.406 12.8284 102.096 12.8761 101.787 12.8515L101.79 12.8475Z" fill="#919191"/>
<g opacity="0.2">
<path opacity="0.2" d="M39.0548 8.90986C39.2469 7.63068 39.9371 7.11521 40.9352 7.43951C41.4151 7.99301 41.8759 8.03105 42.3558 7.42049C42.5862 7.13423 42.8166 6.80993 43.2774 7.03814C43.6225 7.2103 43.7382 8.37437 43.6798 8.69966C43.6416 9.02396 43.5792 9.34926 43.545 9.69258H45.9244L46.2122 7.80284C46.238 7.49631 46.3745 7.20944 46.5964 6.99527C46.8184 6.7811 47.1108 6.6541 47.4195 6.63777C47.6125 6.62142 47.7912 6.53011 47.917 6.38361C48.0428 6.23712 48.1055 6.04722 48.0916 5.85505C48.0725 5.37761 47.8612 5.01528 47.4004 4.97724C46.2484 5.05331 46.4788 4.36668 46.844 3.83119C47.2666 3.16257 47.7847 2.68513 48.6862 2.95338C50.0867 3.37377 50.1068 1.59814 49.0887 1.19677C47.1117 0.433065 45.3268 1.61715 44.694 3.58296C44.1909 5.11036 43.6959 5.43466 42.0842 5.12938C41.72 5.07233 41.2018 4.86214 41.0096 5.02929C40.2611 5.65887 40.1846 5.73594 38.764 4.64694C37.4973 4.30362 37.1542 4.6089 36.9218 5.88808C36.7267 7.15288 36.6051 8.42784 36.5576 9.70659H38.9723C38.9974 9.42533 39.0165 9.1771 39.0548 8.90986Z" fill="white"/>
<path opacity="0.2" d="M58.6117 7.72175C58.954 7.26624 59.4566 6.95613 60.0188 6.85349C60.5811 6.75086 61.1616 6.86328 61.6441 7.16824C63.0446 8.4284 63.0839 4.99124 62.1814 4.93419C57.9205 4.66694 55.5602 7.28234 55.9053 9.68856H58.1127C58.0024 9.34713 57.9907 8.98173 58.0789 8.63401C58.1671 8.28628 58.3517 7.97019 58.6117 7.72175Z" fill="white"/>
<path opacity="0.2" d="M23.2025 6.52377C23.6453 6.54559 24.0634 6.73305 24.3731 7.04859C24.6828 7.36413 24.8613 7.78445 24.8726 8.22533C24.8823 8.63354 24.8631 9.04192 24.8153 9.44746C24.7496 9.53412 24.6791 9.617 24.604 9.69569H27.0609C27.0609 9.69064 27.0629 9.68581 27.0665 9.68224C27.0701 9.67867 27.075 9.67667 27.08 9.67667C27.5831 7.23242 27.2722 4.96033 23.6059 4.97935C22.7236 5.07944 22.627 4.55896 22.5314 3.81428C22.466 3.5537 22.3082 3.32539 22.087 3.17131C21.8659 3.01723 21.5962 2.94775 21.3277 2.97563C21.0592 3.00351 20.8098 3.12689 20.6254 3.32308C20.441 3.51927 20.334 3.77508 20.324 4.04349C20.171 5.38221 19.5849 6.63521 18.6539 7.61377C18.3431 7.93912 18.0784 8.30517 17.8671 8.70177C17.7968 8.80555 17.7682 8.93177 17.7868 9.05553C17.8054 9.1793 17.87 9.29164 17.9677 9.37039C18.0177 9.40706 18.0752 9.43238 18.1361 9.44456C18.197 9.45675 18.2598 9.45549 18.3201 9.44089C18.3805 9.42628 18.4368 9.39869 18.4853 9.36005C18.5338 9.32141 18.5731 9.27266 18.6006 9.21725C18.7354 8.96902 19.157 8.39649 19.5061 8.49158C19.6791 8.54863 19.6982 9.02607 19.6409 9.69268H21.6179C21.4559 8.43252 22.4348 6.4477 23.2025 6.52377Z" fill="white"/>
<path opacity="0.2" d="M30.8598 9.10098C31.8694 9.03736 32.8818 9.03101 33.8922 9.08196C36.1378 9.02491 35.5019 6.46655 34.2765 5.62578C31.3789 3.5829 27.5205 6.38948 27.9431 9.71154H30.1505C30.1686 9.40626 30.3799 9.15803 30.8598 9.10098ZM31.8578 6.54263C32.1848 6.54486 32.4989 6.66981 32.7373 6.8925C32.9757 7.11519 33.1208 7.4192 33.1436 7.74373H30.6103C30.6182 7.42071 30.7534 7.11372 30.9868 6.88902C31.2202 6.66432 31.5331 6.5399 31.8578 6.54263Z" fill="white"/>
<path opacity="0.2" d="M66.999 7.76584C67.0167 7.49409 67.1184 7.23443 67.2903 7.02245C67.4621 6.81047 67.6956 6.65654 67.9588 6.58175C68.4619 6.46765 68.9186 6.82998 69.2829 6.25745C69.3722 6.10032 69.4184 5.92252 69.4167 5.74198V5.72296C69.3976 5.26454 69.2054 5.09338 68.7446 5.07337C68.2264 5.05435 67.3431 5.17345 67.823 3.96634C67.823 3.48891 67.823 2.97344 67.1509 3.04951C66.6901 3.10656 66.0955 2.91538 65.7695 3.31675C65.6614 3.45465 65.5948 3.62018 65.5773 3.79419C65.4627 4.42377 65.7504 5.22651 64.4837 5.05435C64.042 5.01631 63.5239 5.05435 63.4092 5.70394C63.1597 7.11724 64.3881 6.48667 64.695 6.67784C65.3671 7.07821 64.9063 8.37941 64.7523 9.69461H66.7645C66.7772 9.04548 66.8558 8.39928 66.999 7.76584Z" fill="white"/>
<path opacity="0.2" d="M50.8401 9.1011C51.8497 9.03742 52.8622 9.03107 53.8725 9.08208C56.099 9.02503 55.4823 6.46668 54.2568 5.6259C51.3592 3.58303 47.5018 6.38961 47.9234 9.71166H50.1117C50.1489 9.40638 50.3602 9.15815 50.8401 9.1011ZM51.8191 6.54275C52.145 6.54239 52.4584 6.66702 52.6944 6.89072C52.9303 7.11442 53.0704 7.41998 53.0857 7.74385H50.5524C50.5707 7.42107 50.7119 7.11733 50.9471 6.89427C51.1823 6.67121 51.4941 6.54553 51.8191 6.54275Z" fill="white"/>
<path opacity="0.2" d="M16.7358 6.42865H17.4461C17.5467 6.42865 17.6 6.3716 17.6192 6.23748L17.6574 5.56886C17.6765 5.45475 17.6192 5.37769 17.5226 5.37769H15.1431C15.0425 5.37769 14.9892 5.43474 14.9701 5.56886L14.9127 6.23748C14.9127 6.35158 14.951 6.42865 15.0475 6.42865H15.623L14.2598 9.67463H15.5265L16.7358 6.42865Z" fill="white"/>
<path opacity="0.2" d="M12.4551 6.42866H12.9733C12.998 6.42984 13.0227 6.42553 13.0455 6.41606C13.0683 6.40658 13.0888 6.39218 13.1053 6.37388C13.1219 6.35559 13.1342 6.33386 13.1413 6.31027C13.1483 6.28668 13.1501 6.26182 13.1463 6.23749L13.2037 5.56887C13.2112 5.54565 13.2128 5.52092 13.2082 5.49693C13.2037 5.47295 13.1932 5.45048 13.1777 5.43157C13.1622 5.41266 13.1422 5.39791 13.1195 5.38868C13.0968 5.37944 13.0721 5.37601 13.0477 5.3787H10.7468C10.6461 5.3787 10.5928 5.43575 10.5737 5.56987L10.5164 6.23849C10.4972 6.35259 10.5546 6.42966 10.6512 6.42966H11.3615L12.5688 9.67564H13.6816L12.4551 6.42866Z" fill="white"/>
<path opacity="0.2" d="M1.72991 7.95502C1.78708 7.78721 1.86444 7.6269 1.96031 7.47758C2.01361 7.37632 2.08523 7.28572 2.17159 7.21033C2.28004 7.0899 2.40189 6.98211 2.53479 6.88904C2.75024 6.74737 3.00657 6.68019 3.26422 6.69786C3.44688 6.69105 3.62839 6.72934 3.79254 6.80934C3.95669 6.88933 4.09837 7.00853 4.20493 7.15628C4.44352 7.55305 4.55707 8.01188 4.5309 8.4735V9.6746H5.47161V8.28032C5.47246 8.08172 5.45325 7.88355 5.41426 7.68877C5.52617 7.40072 5.72025 7.15148 5.97264 6.9717C6.22503 6.79192 6.52472 6.68944 6.83488 6.67684C7.01817 6.66559 7.20126 6.70193 7.36617 6.7823C7.53109 6.86266 7.67217 6.9843 7.77559 7.13526C8.00706 7.53429 8.11389 7.99284 8.08245 8.45248V9.65358H9.04227V8.14619C9.06566 7.48461 8.88484 6.83177 8.52413 6.27547C8.36053 6.05033 8.14291 5.86947 7.8911 5.74937C7.63929 5.62927 7.36128 5.57374 7.08238 5.58784C6.68907 5.59103 6.30525 5.70837 5.97801 5.92547C5.65077 6.14256 5.39435 6.44997 5.24021 6.80996C5.13473 6.44462 4.90857 6.12531 4.59824 5.90356C4.28791 5.68182 3.91151 5.57059 3.52983 5.58784C3.1245 5.5825 2.72756 5.70278 2.39404 5.93199C2.06052 6.16121 1.80696 6.48799 1.66854 6.86702H1.6293L1.64841 6.12233C1.66551 6.00246 1.63834 5.88049 1.57195 5.77902C1.49294 5.70941 1.3896 5.67346 1.2842 5.67893H0.173465C0.0728547 5.67893 0.0195312 5.73598 0.0195312 5.8701V6.49968C0.0195312 6.61379 0.0768791 6.69086 0.173465 6.69086H0.787189V9.65058H1.74701L1.7279 7.94901L1.72991 7.95502Z" fill="white"/>
<path opacity="0.2" d="M81.1442 8.66166C81.1016 7.89718 81.3103 7.13968 81.7388 6.50368C81.8834 6.25997 82.0879 6.0568 82.333 5.91324C82.5782 5.76968 82.856 5.69043 83.1403 5.68292C83.4252 5.68814 83.7039 5.76644 83.9494 5.91023C84.1949 6.05402 84.399 6.25843 84.5418 6.50368C84.9567 7.14582 85.1641 7.89883 85.1364 8.66166C85.1405 9.00867 85.102 9.35489 85.0217 9.69261H86.0389C86.0944 9.35182 86.12 9.00686 86.1154 8.66166C86.1689 7.59176 85.8727 6.5334 85.2712 5.64488C85.036 5.29787 84.7188 5.01362 84.3473 4.81711C83.9758 4.62059 83.5615 4.51782 83.1408 4.51782C82.7201 4.51782 82.3058 4.62059 81.9344 4.81711C81.5629 5.01362 81.2456 5.29787 81.0104 5.64488C80.409 6.53343 80.1129 7.59177 80.1663 8.66166C80.1617 9.00686 80.1873 9.35181 80.2428 9.69261H81.279C81.194 9.35533 81.1488 9.00935 81.1442 8.66166Z" fill="white"/>
<path opacity="0.2" d="M75.0962 6.86799H75.1153L75.6334 9.69359H76.4383L75.6898 5.72194H76.1506C76.2512 5.72194 76.2854 5.66488 76.2854 5.53076V4.82411C76.2854 4.68999 76.2281 4.63293 76.1506 4.63293H74.0378C73.9371 4.63293 73.9039 4.68999 73.9039 4.82411V5.53476C73.9039 5.66889 73.9613 5.72594 74.0378 5.72594H74.4986L73.75 9.69759H74.5549L75.0962 6.86799Z" fill="white"/>
<path opacity="0.2" d="M103.617 9.25419C103.379 8.94109 103.061 8.69711 102.696 8.54754C102.331 8.41342 101.985 8.28029 101.621 8.16519C101.289 8.0605 100.977 7.89894 100.7 7.68775C100.575 7.58286 100.475 7.45105 100.409 7.30227C100.342 7.1535 100.311 6.99165 100.316 6.82896C100.31 6.66339 100.337 6.49817 100.396 6.34333C100.455 6.18848 100.546 6.04723 100.661 5.92813C100.786 5.80998 100.934 5.71855 101.096 5.6595C101.258 5.60045 101.43 5.57503 101.602 5.58482C101.786 5.57827 101.968 5.61462 102.135 5.69093C102.301 5.76725 102.448 5.8814 102.562 6.02422C102.799 6.25681 102.936 6.57124 102.945 6.90203V7.13124C102.945 7.26536 103.003 7.36045 103.118 7.36045H103.579C103.68 7.36045 103.733 7.28438 103.733 7.13124V4.84313C103.733 4.70901 103.676 4.61392 103.579 4.61392H103.195C103.094 4.61392 103.041 4.68999 103.041 4.84313C103.041 4.86215 103.041 5.05333 103.06 5.4537H103.041C102.878 5.14795 102.63 4.8953 102.327 4.72597C102.024 4.55664 101.678 4.47778 101.331 4.49882C101.06 4.49738 100.791 4.55269 100.543 4.66116C100.295 4.76963 100.073 4.92883 99.8908 5.1284C99.5004 5.61433 99.3024 6.22571 99.3344 6.84698C99.3221 7.27332 99.4355 7.69393 99.6605 8.05695C99.8856 8.41996 100.213 8.7095 100.601 8.88985C100.951 9.04969 101.31 9.19003 101.676 9.31024C101.949 9.39876 102.208 9.52765 102.443 9.69259H103.825C103.783 9.53509 103.713 9.3865 103.617 9.25419Z" fill="white"/>
<path opacity="0.2" d="M88.7809 8.85383C88.7721 8.12664 88.9862 7.41404 89.3946 6.81095C89.5644 6.52711 89.8065 6.29287 90.0963 6.13188C90.3862 5.9709 90.7137 5.88888 91.0457 5.8941H91.2952C91.3958 5.8941 91.4491 5.81803 91.4491 5.66489V4.80611C91.4491 4.67198 91.3917 4.59591 91.2952 4.59591C90.9156 4.58743 90.5398 4.67271 90.2015 4.84414C89.9138 4.97104 89.6581 5.16013 89.453 5.39765C89.2647 5.62986 89.1096 5.88686 88.9922 6.16135C88.8776 6.39139 88.7937 6.63535 88.7427 6.88702H88.7064V4.82512C88.7064 4.691 88.6491 4.63395 88.5525 4.63395H87.151C87.0504 4.63395 86.9971 4.691 86.9971 4.82512V5.53177C86.9971 5.6659 87.0544 5.72295 87.151 5.72295H87.801V9.6946H88.799V8.85483L88.7809 8.85383Z" fill="white"/>
<path opacity="0.2" d="M72.2567 5.72194H72.8131C72.9137 5.72194 72.9479 5.66488 72.9479 5.53076V4.82411C72.9479 4.68999 72.8905 4.63293 72.8131 4.63293H70.5674C70.4668 4.63293 70.4326 4.68999 70.4326 4.82411V5.53476C70.4326 5.66889 70.49 5.72594 70.5674 5.72594H71.2395L72.1802 9.69759H73.1209L72.2567 5.72194Z" fill="white"/>
<path opacity="0.2" d="M78.9937 5.72194H79.6466C79.7472 5.72194 79.7805 5.66488 79.7805 5.53076V4.82411C79.7805 4.68999 79.7422 4.63293 79.6466 4.63293H77.4392C77.3386 4.63293 77.2853 4.68999 77.2853 4.82411V5.53476C77.2853 5.66889 77.3426 5.72594 77.4392 5.72594H77.9765L77.1133 9.69759H78.054L78.9937 5.72194Z" fill="white"/>
<path opacity="0.2" d="M92.8123 8.64363C92.7783 7.88177 92.9648 7.12622 93.3495 6.46663C93.4808 6.22982 93.672 6.03131 93.9043 5.89083C94.1366 5.75035 94.4018 5.67281 94.6736 5.66589C94.9437 5.67069 95.2075 5.74752 95.4376 5.88837C95.6676 6.02922 95.8555 6.22892 95.9815 6.46663C96.3593 7.12833 96.5391 7.88366 96.4997 8.64363C96.4973 8.99589 96.4636 9.34725 96.399 9.6936H97.4544V1.1017C97.4544 0.967575 97.3971 0.910522 97.3196 0.910522H95.3074C95.2068 0.910522 95.1726 0.967575 95.1726 1.1017V1.81135C95.1726 1.94547 95.23 2.00253 95.3074 2.00253H96.4976V5.57281C96.4976 5.70693 96.4976 5.89711 96.5167 6.12632H96.4976C96.3644 5.68964 96.1197 5.29477 95.7873 4.98026C95.4535 4.67417 95.0127 4.5097 94.5589 4.52184C94.1597 4.52328 93.7682 4.63015 93.4242 4.83151C93.0802 5.03287 92.7961 5.3215 92.601 5.6679C92.0638 6.58042 91.8038 7.62825 91.8525 8.68467C91.8478 9.02987 91.8734 9.37483 91.9289 9.71562H92.9461C92.8517 9.36618 92.8067 9.0054 92.8123 8.64363Z" fill="white"/>
</g>
</g>
<defs>
<clipPath id="clip0_3824_638">
<rect width="104" height="15.9046" fill="white" transform="translate(0 0.910522)"/>
</clipPath>
</defs>
</svg>
