<svg width="220" height="34" viewBox="0 0 220 34" fill="none" xmlns="http://www.w3.org/2000/svg">
<g clip-path="url(#clip0_1102:59)">
<path d="M89.2344 9.0591L89.5603 8.89648L89.8031 9.14041L89.2344 9.0591Z" fill="#919191"/>
<path d="M94.5909 5.71337C95.9317 1.50884 99.6988 -1.0203 103.887 0.612301C106.039 1.46819 105.999 5.22551 103.036 4.36749C101.086 3.79619 100.031 4.85749 99.139 6.24402C98.409 7.38662 97.8812 8.85661 100.316 8.69399C101.291 8.7753 101.738 9.54987 101.778 10.5705C101.801 10.9798 101.666 11.3822 101.401 11.6939C101.136 12.0056 100.762 12.2025 100.356 12.2438C99.7033 12.2787 99.0848 12.5502 98.6153 13.008C98.1458 13.4659 97.8571 14.0791 97.8025 14.7344C96.8277 20.8154 95.887 26.9307 94.9612 33.0204C94.3512 33.6199 93.5407 33.9694 92.6882 34.0003C91.839 33.9544 91.0336 33.6072 90.4151 33.0204C90.7665 27.529 91.4446 22.0636 92.4455 16.6537C92.5669 15.9604 92.3242 13.4698 91.5942 13.1018C90.6599 12.6118 90.1321 13.3158 89.6447 13.9192C88.6295 15.2244 87.6547 15.1837 86.6395 13.9598C84.5283 13.2259 83.0214 14.3685 82.6618 17.103C82.378 18.9403 82.1751 20.7769 82.053 22.6128C82.0874 23.0606 82.0157 23.5103 81.8438 23.9248C81.6719 24.3394 81.4046 24.7071 81.064 24.9977C80.7234 25.2884 80.3191 25.4937 79.8843 25.5969C79.4495 25.7 78.9966 25.6981 78.5626 25.5913C76.3705 25.3773 76.9792 23.6313 77.0601 22.3261C77.3857 18.7335 77.4262 14.1631 78.0753 10.6112C78.6031 7.87662 79.3331 7.22401 81.9722 7.95793C85.0178 10.3244 85.1391 10.1212 86.7225 8.7753C87.129 8.40727 88.2251 8.8566 88.9956 8.98927C92.4455 9.68253 93.5416 8.98927 94.5973 5.72407L94.5909 5.71337Z" fill="#2D96EE"/>
<path d="M131.498 8.61198C133.413 8.73394 133.364 16.0817 130.361 13.3878C129.342 12.7288 128.112 12.4844 126.921 12.7042C125.73 12.9239 124.666 13.5914 123.946 14.5711C122.201 16.5311 121.956 19.5502 124.921 20.6928C126.545 21.3454 130.808 19.6229 132.025 20.9068C132.432 21.3968 132.311 22.212 131.295 24.2126C130.646 25.4772 126.343 26.3759 122.486 24.6213C113.92 19.5202 118.67 7.80531 131.5 8.62054L131.498 8.61198Z" fill="#2D96EE"/>
<path d="M52.4944 18.2425C51.8653 19.1116 51.0461 19.8239 50.1 20.3245C42.5084 23.5897 46.4053 11.7121 49.1253 11.9988C50.0619 12.0455 50.9464 12.4462 51.6015 13.1208C52.2567 13.7953 52.6341 14.6939 52.6582 15.6363C52.6987 16.4922 52.5369 17.3909 52.4965 18.2489L52.4944 18.2425ZM49.8957 8.69085C48.0292 8.90482 47.8249 7.79217 47.6227 6.20023C47.4842 5.64318 47.1504 5.1551 46.6826 4.82572C46.2148 4.49634 45.6444 4.34781 45.0764 4.40742C44.5084 4.46702 43.9808 4.73077 43.5907 5.15016C43.2006 5.56956 42.9743 6.11643 42.9532 6.69022C42.6295 9.55206 41.3895 12.2307 39.4202 14.3226C38.7627 15.0181 38.2028 15.8006 37.7559 16.6484C37.6072 16.8703 37.5466 17.1401 37.5859 17.4047C37.6253 17.6693 37.7619 17.9094 37.9687 18.0778C38.0745 18.1566 38.1962 18.211 38.3252 18.2373C38.4543 18.2635 38.5875 18.2609 38.7154 18.2297C38.8433 18.1985 38.9628 18.1393 39.0655 18.0565C39.1682 17.9737 39.2515 17.8692 39.3096 17.7504C39.5948 17.2197 40.4865 15.9958 41.225 16.1991C42.4424 16.6078 40.129 27.5053 39.8033 29.6279C39.3159 33.2654 39.4373 33.1798 43.0107 33.1798C47.5993 33.1392 42.1977 25.1795 47.3545 25.1795C49.4793 25.3681 51.6056 24.8353 53.3938 23.6663C55.1819 22.4972 56.5288 20.7594 57.2192 18.7304C58.3153 13.4645 57.6661 8.64805 49.9106 8.6887L49.8957 8.69085Z" fill="#2D96EE"/>
<path d="M72.5478 10.0418C65.2392 4.85729 55.0511 14.3212 60.7336 22.8993C62.068 24.4415 63.8878 25.4772 65.8897 25.8339C67.8916 26.1906 69.9546 25.8466 71.7348 24.8593C72.75 24.1254 74.1717 23.1048 73.5204 21.6348C72.8309 20.0428 71.207 20.5328 70.0704 21.1041C65.7266 24.0013 61.4232 18.0422 65.3201 17.5115C67.4558 17.3756 69.5975 17.362 71.7348 17.4709C76.4447 17.3489 75.1401 11.8798 72.5478 10.0418ZM67.3909 12.0424C68.0827 12.0472 68.7471 12.3143 69.2514 12.7904C69.7557 13.2664 70.0626 13.9163 70.1109 14.6101H64.7518C64.7686 13.9196 65.0547 13.2633 65.5484 12.7829C66.0421 12.3026 66.7039 12.0366 67.3909 12.0424Z" fill="#2D96EE"/>
<path d="M141.281 25.4698C132.796 23.5099 139.698 14.0416 136.857 12.3277C136.207 11.919 133.609 13.2671 134.137 10.2458C134.379 8.85711 135.475 8.77581 136.41 8.85711C139.089 9.22515 138.48 7.51123 138.723 6.16321C138.752 5.78924 138.894 5.43306 139.13 5.14258C139.819 4.28669 141.079 4.65258 142.052 4.57127C143.473 4.40865 143.473 5.46995 143.473 6.53125C142.409 9.14383 144.286 8.85711 145.423 8.89776C146.398 8.93842 146.845 9.30645 146.845 10.2864V10.3271C146.854 10.7137 146.756 11.0953 146.562 11.429C145.749 12.653 144.816 11.8784 143.761 12.1223C142.584 12.3662 142.016 13.3869 141.73 14.6536C140.228 22.4079 142.46 21.7959 144.084 20.816C145.587 19.9601 146.034 20.0414 145.829 22.2859C145.82 22.8722 145.666 23.4469 145.383 23.9592C145.003 24.4051 144.537 24.769 144.014 25.0286C143.49 25.2883 142.92 25.4384 142.337 25.4698C141.983 25.5114 141.626 25.5114 141.273 25.4698H141.281Z" fill="#2D96EE"/>
<path d="M114.77 10.0418C107.462 4.85729 97.2737 14.3212 102.956 22.8993C104.283 24.4392 106.096 25.4742 108.091 25.831C110.087 26.1878 112.143 25.8448 113.917 24.8593C114.981 24.1254 116.354 23.1047 115.743 21.6348C115.054 20.0428 113.389 20.5328 112.293 21.1041C107.949 24.0013 103.605 18.0422 107.543 17.5115C109.678 17.3754 111.82 17.3618 113.957 17.4709C118.667 17.3489 117.363 11.8798 114.77 10.0418ZM109.614 12.0424C110.303 12.0417 110.966 12.3081 111.465 12.7863C111.964 13.2645 112.261 13.9177 112.293 14.6101H106.934C106.973 13.9201 107.271 13.2707 107.769 12.7939C108.267 12.3171 108.926 12.0484 109.614 12.0424Z" fill="#2D96EE"/>
<path d="M26.9589 19.7554L24.0772 11.8385H22.5746C22.3617 11.8385 22.2489 11.7165 22.2894 11.4298L22.4107 10.0005C22.4511 9.75656 22.532 9.5918 22.7768 9.5918H27.6442C27.8868 9.5918 28.0103 9.71376 27.9698 10.0005L27.8485 11.4298C27.8485 11.6737 27.7272 11.8385 27.4824 11.8385H26.3864L29.5937 20.3289H29.6341L33.1245 11.8385H31.9072C31.6943 11.8385 31.622 11.7165 31.622 11.4298L31.7433 10.0005C31.7837 9.75656 31.8646 9.5918 32.1094 9.5918H37.1428C37.3556 9.5918 37.428 9.71376 37.428 10.0005L37.3471 11.4298C37.3067 11.6737 37.2258 11.8385 36.981 11.8385H35.4785L28.6168 31.0959H29.632C29.8448 31.0959 29.9172 31.2178 29.9172 31.4639L29.8363 32.8098C29.7959 33.0965 29.715 33.2185 29.4703 33.2185H24.639C24.4262 33.2185 24.3538 33.0965 24.3538 32.8098L24.4751 31.4639C24.4751 31.22 24.5965 31.0959 24.8008 31.0959H26.3842C27.1547 28.5282 28.6168 23.9942 28.5764 23.6668C28.5764 23.6262 27.1547 20.2433 26.9525 19.749L26.9589 19.7554Z" fill="#919191"/>
<path d="M20.5019 25.7962H15.9622C15.7494 25.7962 15.677 25.6742 15.677 25.3875V25.1436V24.3262V24.0823C15.677 23.7956 15.7984 23.6736 15.9622 23.6736H17.0987V16.2039C17.1652 15.2213 16.9393 14.241 16.4496 13.388C16.2308 13.0653 15.9324 12.8052 15.5835 12.6334C15.2347 12.4616 14.8474 12.384 14.4597 12.408C13.8036 12.4349 13.1696 12.654 12.6357 13.0383C12.1018 13.4227 11.6912 13.9555 11.4545 14.5713C11.537 14.9876 11.5776 15.4113 11.5758 15.8358V23.7528H12.9145C13.1273 23.7528 13.1997 23.8747 13.1997 24.1614V25.5073C13.1997 25.7512 13.0784 25.8753 12.9145 25.8753H8.32164C8.10881 25.8753 7.99601 25.7534 7.99601 25.5073V24.1636C7.99601 23.9197 8.11733 23.7549 8.32164 23.7549H9.6199V16.2039C9.67525 15.217 9.43506 14.2362 8.93034 13.388C8.70493 13.0721 8.40523 12.8173 8.05798 12.6463C7.71074 12.4753 7.32677 12.3934 6.94037 12.408C6.39535 12.3702 5.85312 12.5138 5.39736 12.8167C5.11512 13.0175 4.85663 13.2501 4.62692 13.51C4.46284 13.6879 4.31336 13.879 4.17997 14.0813C3.97726 14.4005 3.81362 14.7432 3.69259 15.1019V23.7142H4.90998C5.12281 23.7142 5.19517 23.8362 5.19517 24.1229V25.4688C5.19517 25.7127 5.1143 25.8368 4.90998 25.8368H0.325629C0.1128 25.8368 0 25.7149 0 25.4688V24.1229C0 23.879 0.121313 23.7142 0.325629 23.7142H1.66432V12.408H0.325629C0.1128 12.408 0 12.2861 0 11.9993V10.6534C0 10.3667 0.121313 10.2448 0.325629 10.2448H2.67952C2.79062 10.2286 2.90396 10.2396 3.00992 10.2769C3.11588 10.3141 3.21134 10.3765 3.28822 10.4587C3.4223 10.6783 3.47926 10.9367 3.44997 11.1927L3.40953 12.7846H3.49041C3.78323 11.9743 4.31959 11.2758 5.02511 10.7858C5.73063 10.2958 6.57033 10.0386 7.42775 10.05C8.23517 10.0132 9.03138 10.251 9.68785 10.725C10.3443 11.199 10.8227 11.8816 11.0459 12.6626C11.3705 11.8918 11.9121 11.2331 12.604 10.7674C13.2959 10.3018 14.108 10.0494 14.9406 10.0415C15.5299 10.0121 16.1172 10.1311 16.649 10.3878C17.1809 10.6446 17.6406 11.0308 17.9862 11.5115C18.7728 12.69 19.1574 14.0934 19.0823 15.5106V23.5923H20.5445C20.7573 23.5923 20.8296 23.7142 20.8296 24.001V24.2449V25.0623V25.3062C20.8296 25.5929 20.7488 25.7149 20.5445 25.7149H20.504L20.5019 25.7962Z" fill="#919191"/>
<path d="M163.162 25.2659H161.659C161.293 25.2659 161.09 25.0212 161.051 24.532L158.899 12.7357H158.859L156.707 24.532C156.666 25.022 156.422 25.2659 156.058 25.2659H154.596C154.312 25.2659 154.068 25.022 153.987 24.532L150.656 10.3264H149.234C149.022 10.3264 148.949 10.2045 148.949 9.91774V8.40925C148.949 8.12253 149.071 8.00056 149.234 8.00056H153.985C154.198 8.00056 154.27 8.12253 154.27 8.40925V9.91988C154.27 10.2066 154.149 10.3286 153.985 10.3286H152.808L155.326 22.2061H155.366L157.599 10.3286H156.624C156.411 10.3286 156.339 10.2066 156.339 9.91988V8.40925C156.339 8.12253 156.46 8.00056 156.624 8.00056H161.093C161.306 8.00056 161.376 8.12253 161.376 8.40925V9.91988C161.376 10.2066 161.255 10.3286 161.093 10.3286H160.118L162.351 22.2061H162.392L164.909 10.3286H163.773C163.56 10.3286 163.447 10.2066 163.447 9.91988V8.40925C163.447 8.12253 163.568 8.00056 163.773 8.00056H168.442C168.655 8.00056 168.727 8.12253 168.727 8.40925V9.91988C168.727 10.2066 168.647 10.3286 168.442 10.3286H167.061L163.732 24.532C163.651 25.022 163.447 25.2659 163.164 25.2659H163.162ZM180.376 23.0213C179.88 23.7769 179.204 24.3965 178.411 24.8242C177.617 25.252 176.73 25.4743 175.83 25.4713C174.935 25.4737 174.054 25.2508 173.267 24.8228C172.48 24.3949 171.812 23.7755 171.324 23.0213C170.066 21.1019 169.454 18.8269 169.579 16.5316C169.454 14.2431 170.081 11.9768 171.364 10.0825C171.862 9.34067 172.533 8.73302 173.319 8.31293C174.105 7.89283 174.981 7.67313 175.871 7.67313C176.761 7.67313 177.637 7.89283 178.423 8.31293C179.209 8.73302 179.88 9.34067 180.378 10.0825C181.65 11.9819 182.277 14.2444 182.163 16.5316C182.25 18.8285 181.627 21.096 180.378 23.0213H180.376ZM171.65 16.5722C171.568 18.2254 171.993 19.864 172.867 21.2668C173.152 21.8087 173.578 22.2623 174.101 22.5786C174.623 22.895 175.221 23.0622 175.831 23.0622C176.44 23.0622 177.039 22.895 177.561 22.5786C178.083 22.2623 178.509 21.8087 178.794 21.2668C179.668 19.864 180.093 18.2254 180.012 16.5722C180.102 14.938 179.66 13.3186 178.754 11.959C178.452 11.4351 178.021 10.9983 177.502 10.6909C176.983 10.3836 176.394 10.216 175.791 10.2045C175.191 10.2252 174.605 10.3966 174.087 10.703C173.569 11.0095 173.136 11.4412 172.827 11.959C172.003 13.3518 171.595 14.9529 171.65 16.5722ZM189.189 25.2659H184.358C184.145 25.2659 184.032 25.1439 184.032 24.8572V23.3466C184.032 23.0599 184.153 22.9379 184.358 22.9379H185.739V10.2858H184.358C184.145 10.2858 184.032 10.1638 184.032 9.87709V8.36645C184.032 8.07973 184.153 7.95777 184.358 7.95777H187.322C187.535 7.95777 187.648 8.07973 187.648 8.36645V12.7743H187.729C187.817 12.2311 187.996 11.7068 188.257 11.223C188.521 10.6442 188.848 10.0967 189.232 9.59037C189.676 9.09471 190.215 8.69255 190.815 8.40711C191.531 8.04064 192.325 7.85831 193.128 7.87646C193.341 7.87646 193.454 7.99842 193.454 8.3258V10.2023C193.454 10.489 193.333 10.6923 193.128 10.6923H192.601C191.898 10.6811 191.206 10.8565 190.592 11.2006C189.979 11.5448 189.467 12.0455 189.108 12.6523C188.244 13.9415 187.791 15.4649 187.81 17.0194V22.9379H189.151C189.363 22.9379 189.476 23.0599 189.476 23.3466V24.8572C189.517 25.1011 189.395 25.2659 189.191 25.2659H189.189ZM207.492 25.2659H205.3C205.143 25.2758 204.986 25.2517 204.839 25.1952C204.692 25.1387 204.559 25.0512 204.449 24.9385C204.255 24.591 204.171 24.1927 204.206 23.7959V21.7953H204.166C203.893 22.7801 203.376 23.6791 202.663 24.4079C202.307 24.7664 201.883 25.0489 201.415 25.2383C200.948 25.4276 200.447 25.52 199.943 25.5098C199.105 25.5011 198.285 25.2699 197.565 24.8397C196.844 24.4094 196.25 23.7954 195.842 23.0598C194.705 21.1091 194.155 18.8691 194.259 16.6108C194.155 14.3524 194.705 12.1124 195.842 10.1617C196.261 9.42694 196.864 8.81465 197.59 8.38507C198.316 7.95549 199.141 7.72342 199.984 7.7117C200.944 7.68575 201.876 8.03733 202.582 8.69169C203.263 9.38169 203.778 10.22 204.085 11.1417H204.125C204.085 10.6517 204.085 10.2858 204.085 9.9584V2.32605H201.567C201.354 2.32605 201.282 2.20409 201.282 1.91737V0.406732C201.282 0.12001 201.403 -0.00195312 201.567 -0.00195312H205.824C206.037 -0.00195312 206.109 0.12001 206.109 0.406732V22.8951H207.531C207.743 22.8951 207.816 23.0171 207.816 23.3038V24.8208C207.816 25.1076 207.694 25.2702 207.49 25.2702L207.492 25.2659ZM196.327 16.5316C196.27 18.1667 196.648 19.7876 197.423 21.2261C197.687 21.7507 198.086 22.1942 198.579 22.5101C199.072 22.8259 199.64 23.0026 200.224 23.0213C200.802 22.9976 201.364 22.8235 201.855 22.5159C202.346 22.2084 202.749 21.778 203.025 21.2668C203.807 19.8171 204.175 18.1784 204.089 16.5316C204.172 14.907 203.792 13.2923 202.993 11.8777C202.723 11.3723 202.325 10.9477 201.839 10.6471C201.353 10.3464 200.797 10.1804 200.226 10.1659C199.653 10.1855 199.093 10.3533 198.603 10.6531C198.112 10.9529 197.707 11.3747 197.425 11.8777C196.626 13.2922 196.246 14.907 196.329 16.5316H196.327ZM215.327 25.5184C214.34 25.5736 213.368 25.2527 212.607 24.6197C212.048 24.1835 211.614 23.6062 211.349 22.9464H211.313C211.353 24.1297 211.353 24.701 211.353 24.7823C211.353 25.069 211.232 25.2723 210.987 25.2723H210.136C209.923 25.2723 209.81 25.1097 209.81 24.7823V19.5101C209.81 19.2233 209.931 19.0201 210.136 19.0201H211.1C211.344 19.0201 211.466 19.1834 211.466 19.5101V20.2033C211.647 20.9376 212.014 21.6126 212.53 22.1633C212.831 22.5129 213.206 22.7903 213.628 22.9754C214.05 23.1605 214.507 23.2486 214.967 23.2332C215.341 23.2937 215.725 23.2655 216.086 23.1508C216.448 23.0361 216.778 22.838 217.05 22.5724C217.322 22.3069 217.528 21.981 217.653 21.621C217.778 21.261 217.817 20.8766 217.768 20.4986C217.781 20.2012 217.717 19.9054 217.582 19.6405C217.447 19.3756 217.245 19.1507 216.997 18.988C216.417 18.5567 215.77 18.2255 215.082 18.008C214.311 17.7641 213.579 17.4367 212.809 17.1093C211.987 16.7238 211.295 16.1048 210.819 15.3288C210.343 14.5527 210.103 13.6536 210.129 12.7422C210.069 11.415 210.486 10.1104 211.306 9.06828C211.686 8.63441 212.155 8.28915 212.681 8.05667C213.207 7.82419 213.777 7.7101 214.352 7.7224C215.086 7.67743 215.818 7.84601 216.459 8.208C217.101 8.56999 217.625 9.11007 217.97 9.76368H218.01C217.97 8.9078 217.97 8.49911 217.97 8.45846C217.97 8.17174 218.091 7.96847 218.296 7.96847H219.109C219.321 7.96847 219.434 8.13108 219.434 8.45846V13.3563C219.434 13.643 219.313 13.8463 219.109 13.8463H218.123C217.91 13.8463 217.757 13.6836 217.757 13.3563V12.8663C217.744 12.1571 217.452 11.4821 216.944 10.9897C216.702 10.6843 216.393 10.4402 216.04 10.277C215.687 10.1139 215.302 10.0362 214.914 10.0504C214.55 10.0295 214.185 10.0838 213.843 10.2101C213.501 10.3363 213.188 10.5317 212.924 10.7843C212.679 11.0389 212.488 11.3409 212.362 11.6719C212.237 12.0029 212.179 12.3561 212.194 12.7101C212.182 13.0579 212.248 13.4038 212.389 13.7219C212.529 14.0399 212.74 14.3217 213.005 14.5459C213.585 15.0054 214.247 15.3515 214.954 15.5666C215.725 15.8105 216.457 16.0972 217.227 16.3839C218.007 16.6897 218.684 17.214 219.177 17.8946C219.755 18.7602 220.04 19.7908 219.988 20.8324C219.994 22.0269 219.577 23.1847 218.811 24.0976C218.38 24.5935 217.84 24.981 217.234 25.2293C216.628 25.4775 215.973 25.5794 215.32 25.5269L215.327 25.5184Z" fill="#919191"/>
<g opacity="0.2">
<path opacity="0.2" d="M82.6184 17.1007C83.0249 14.3661 84.4849 13.2642 86.5962 13.9575C87.6114 15.1407 88.5861 15.222 89.6013 13.9168C90.0887 13.3048 90.5761 12.6116 91.5508 13.0994C92.2808 13.4675 92.5256 15.9559 92.4022 16.6513C92.3213 17.3446 92.1893 18.04 92.117 18.7739H97.1504L97.7591 14.7342C97.8137 14.0789 98.1024 13.4656 98.5719 13.0078C99.0414 12.5499 99.6599 12.2785 100.313 12.2435C100.721 12.2086 101.099 12.0134 101.365 11.7002C101.632 11.3871 101.764 10.9811 101.735 10.5703C101.694 9.54965 101.247 8.77507 100.273 8.69377C97.8357 8.85638 98.3231 7.38854 99.0957 6.2438C99.9895 4.81447 101.086 3.79383 102.993 4.36727C105.955 5.26595 105.998 1.4701 103.844 0.612079C99.6618 -1.02052 95.8862 1.51075 94.5475 5.71315C93.4833 8.97834 92.4362 9.67161 89.0267 9.019C88.2563 8.89704 87.1602 8.4477 86.7537 8.80503C85.1702 10.1509 85.0085 10.3157 82.0033 7.98766C79.3238 7.25374 78.598 7.90635 78.1064 10.6409C77.6935 13.3447 77.4363 16.0703 77.3359 18.8039H82.4439C82.4971 18.2026 82.5375 17.672 82.6184 17.1007Z" fill="#919191"/>
<path opacity="0.2" d="M123.987 14.56C124.711 13.5863 125.774 12.9233 126.963 12.7039C128.153 12.4845 129.381 12.7249 130.401 13.3768C133.364 16.0707 133.447 8.72292 131.538 8.60095C122.525 8.02965 117.532 13.6207 118.262 18.7646H122.931C122.698 18.0347 122.673 17.2536 122.86 16.5102C123.046 15.7669 123.437 15.0912 123.987 14.56Z" fill="#919191"/>
<path opacity="0.2" d="M49.0852 12.0002C50.0218 12.0469 50.9063 12.4476 51.5615 13.1222C52.2167 13.7967 52.5941 14.6953 52.6182 15.6377C52.6386 16.5104 52.598 17.3834 52.4969 18.2503C52.358 18.4356 52.2088 18.6128 52.0499 18.781H57.2472C57.2472 18.7702 57.2515 18.7599 57.2591 18.7522C57.2667 18.7446 57.277 18.7403 57.2877 18.7403C58.3518 13.5152 57.6942 8.65801 49.9387 8.69866C48.0721 8.91264 47.8678 7.79998 47.6657 6.20804C47.5272 5.65099 47.1933 5.16292 46.7255 4.83354C46.2577 4.50416 45.6874 4.35562 45.1193 4.41523C44.5513 4.47483 44.0238 4.73859 43.6337 5.15798C43.2436 5.57738 43.0172 6.12424 42.9962 6.69803C42.6724 9.55987 41.4325 12.2385 39.4632 14.3304C38.8057 15.0259 38.2457 15.8084 37.7989 16.6563C37.6502 16.8781 37.5895 17.1479 37.6289 17.4125C37.6683 17.6771 37.8049 17.9172 38.0117 18.0856C38.1174 18.164 38.239 18.2181 38.3678 18.2441C38.4966 18.2702 38.6295 18.2675 38.7571 18.2363C38.8848 18.2051 39.004 18.1461 39.1065 18.0635C39.209 17.9809 39.2923 17.8767 39.3504 17.7582C39.6356 17.2276 40.5273 16.0036 41.2659 16.2069C41.6319 16.3289 41.6724 17.3495 41.5511 18.7746H45.7331C45.3905 16.0807 47.4613 11.8376 49.0852 12.0002Z" fill="#919191"/>
<path opacity="0.2" d="M65.2844 17.5102C67.4201 17.3742 69.5618 17.3607 71.6991 17.4696C76.4494 17.3476 75.1043 11.8785 72.5121 10.0812C66.3826 5.71401 58.2206 11.7138 59.1144 18.8155H63.7839C63.8222 18.1628 64.2692 17.6322 65.2844 17.5102ZM67.3957 12.0411C68.0874 12.0459 68.7518 12.313 69.2561 12.7891C69.7604 13.2651 70.0674 13.915 70.1156 14.6088H64.7566C64.7733 13.9182 65.0594 13.262 65.5531 12.7816C66.0468 12.3013 66.7086 12.0353 67.3957 12.0411Z" fill="#919191"/>
<path opacity="0.2" d="M141.73 14.655C141.768 14.0741 141.983 13.519 142.347 13.0658C142.71 12.6127 143.204 12.2836 143.761 12.1237C144.825 11.8798 145.791 12.6544 146.562 11.4305C146.751 11.0946 146.848 10.7145 146.845 10.3285V10.2879C146.804 9.30788 146.398 8.94199 145.423 8.8992C144.327 8.85854 142.458 9.11316 143.474 6.53267C143.474 5.51203 143.474 4.41008 142.052 4.5727C141.077 4.69467 139.819 4.28598 139.13 5.144C138.901 5.43879 138.76 5.79266 138.723 6.16465C138.481 7.51052 139.089 9.22657 136.41 8.85854C135.475 8.77723 134.379 8.85853 134.137 10.2472C133.609 13.2685 136.208 11.9205 136.857 12.3292C138.278 13.185 137.304 15.9667 136.978 18.7782H141.235C141.261 17.3906 141.428 16.0091 141.73 14.655Z" fill="#919191"/>
<path opacity="0.2" d="M107.55 17.5102C109.685 17.3741 111.827 17.3605 113.964 17.4696C118.674 17.3476 117.37 11.8785 114.777 10.0812C108.648 5.71401 100.488 11.7138 101.38 18.8155H106.009C106.088 18.1628 106.534 17.6322 107.55 17.5102ZM109.621 12.0411C110.31 12.0404 110.973 12.3068 111.472 12.785C111.971 13.2632 112.268 13.9164 112.3 14.6088H106.941C106.98 13.9188 107.278 13.2694 107.776 12.7926C108.274 12.3157 108.933 12.0471 109.621 12.0411Z" fill="#919191"/>
<path opacity="0.2" d="M35.4057 11.7955H36.9083C37.1211 11.7955 37.2339 11.6736 37.2744 11.3868L37.3552 9.95751C37.3957 9.71358 37.2744 9.54883 37.07 9.54883H32.0366C31.8238 9.54883 31.711 9.67079 31.6705 9.95751L31.5492 11.3868C31.5492 11.6308 31.6301 11.7955 31.8344 11.7955H33.0518L30.168 18.7346H32.8475L35.4057 11.7955Z" fill="#919191"/>
<path opacity="0.2" d="M26.3512 11.7953H27.4472C27.4995 11.7978 27.5517 11.7886 27.6 11.7683C27.6484 11.7481 27.6916 11.7173 27.7266 11.6782C27.7617 11.6391 27.7876 11.5926 27.8026 11.5422C27.8176 11.4918 27.8212 11.4386 27.8133 11.3866L27.9346 9.95727C27.9506 9.90763 27.9539 9.85476 27.9443 9.80349C27.9347 9.75222 27.9125 9.70418 27.8797 9.66375C27.8469 9.62333 27.8046 9.59181 27.7565 9.57206C27.7085 9.55232 27.6563 9.54498 27.6047 9.55073H22.7373C22.5245 9.55073 22.4117 9.67269 22.3712 9.95942L22.2499 11.3887C22.2095 11.6327 22.3308 11.7974 22.5351 11.7974H24.0377L26.5917 18.7365H28.9456L26.3512 11.7953Z" fill="#919191"/>
<path opacity="0.2" d="M3.66108 15.0591C3.78201 14.7004 3.94566 14.3577 4.14846 14.0385C4.26121 13.822 4.41272 13.6284 4.5954 13.4672C4.82481 13.2097 5.08256 12.9793 5.36371 12.7804C5.81947 12.4775 6.36171 12.3339 6.90673 12.3717C7.29312 12.3571 7.67709 12.439 8.02434 12.61C8.37158 12.781 8.67129 13.0358 8.89669 13.3517C9.40141 14.1999 9.64161 15.1807 9.58626 16.1675V18.7352H11.5762V15.7546C11.578 15.33 11.5374 14.9064 11.4549 14.49C11.6916 13.8742 12.1022 13.3414 12.6361 12.9571C13.17 12.5727 13.804 12.3537 14.4601 12.3267C14.8478 12.3027 15.2351 12.3804 15.5839 12.5522C15.9328 12.724 16.2312 12.984 16.45 13.3067C16.9397 14.1597 17.1656 15.14 17.0991 16.1226V18.6902H19.1295V15.4678C19.179 14.0535 18.7965 12.6579 18.0335 11.4687C17.6874 10.9874 17.227 10.6008 16.6944 10.344C16.1617 10.0873 15.5736 9.96859 14.9836 9.99873C14.1516 10.0056 13.3397 10.2564 12.6474 10.7205C11.9552 11.1846 11.4128 11.8417 11.0867 12.6113C10.8636 11.8303 10.3852 11.1477 9.7287 10.6737C9.07223 10.1996 8.27601 9.96186 7.4686 9.99873C6.61118 9.98732 5.77148 10.2445 5.06596 10.7344C4.36045 11.2244 3.82407 11.923 3.53125 12.7333H3.44824L3.48868 11.1413C3.52484 10.8851 3.46738 10.6243 3.32693 10.4074C3.15979 10.2586 2.94119 10.1818 2.71824 10.1935H0.368598C0.155768 10.1935 0.0429688 10.3154 0.0429688 10.6021V11.948C0.0429688 12.1919 0.164281 12.3567 0.368598 12.3567H1.66686V18.6838H3.69725L3.65682 15.0463L3.66108 15.0591Z" fill="#919191"/>
<path opacity="0.2" d="M171.652 16.5694C171.562 14.9351 172.003 13.3158 172.91 11.9562C173.216 11.4352 173.648 11.0009 174.167 10.694C174.685 10.3871 175.273 10.2177 175.875 10.2016C176.477 10.2128 177.067 10.3802 177.586 10.6875C178.105 10.9949 178.537 11.4319 178.839 11.9562C179.717 13.3289 180.156 14.9387 180.097 16.5694C180.106 17.3112 180.024 18.0513 179.854 18.7733H182.006C182.124 18.0448 182.178 17.3074 182.168 16.5694C182.281 14.2822 181.655 12.0197 180.382 10.1203C179.885 9.37848 179.214 8.77083 178.428 8.35074C177.642 7.93064 176.766 7.71094 175.876 7.71094C174.986 7.71094 174.109 7.93064 173.323 8.35074C172.538 8.77083 171.867 9.37848 171.369 10.1203C170.097 12.0198 169.47 14.2823 169.583 16.5694C169.574 17.3074 169.628 18.0448 169.745 18.7733H171.937C171.757 18.0523 171.662 17.3127 171.652 16.5694Z" fill="#919191"/>
<path opacity="0.2" d="M158.859 12.735H158.9L159.996 18.7754H161.699L160.115 10.285H161.09C161.303 10.285 161.375 10.1631 161.375 9.87635V8.36572C161.375 8.079 161.254 7.95703 161.09 7.95703H156.62C156.408 7.95703 156.337 8.079 156.337 8.36572V9.88491C156.337 10.1716 156.459 10.2936 156.62 10.2936H157.595L156.012 18.784H157.714L158.859 12.735Z" fill="#919191"/>
<path opacity="0.2" d="M219.192 17.837C218.688 17.1676 218.015 16.6461 217.243 16.3263C216.47 16.0396 215.74 15.755 214.97 15.509C214.266 15.2852 213.606 14.9398 213.02 14.4883C212.755 14.2641 212.545 13.9823 212.404 13.6643C212.264 13.3462 212.197 13.0002 212.209 12.6524C212.195 12.2985 212.252 11.9453 212.378 11.6143C212.503 11.2833 212.694 10.9813 212.939 10.7267C213.203 10.4741 213.516 10.2787 213.859 10.1524C214.201 10.0262 214.565 9.97186 214.929 9.99278C215.317 9.97879 215.703 10.0565 216.056 10.2196C216.408 10.3828 216.718 10.6268 216.96 10.9321C217.46 11.4293 217.751 12.1015 217.771 12.8086V13.2986C217.771 13.5854 217.892 13.7886 218.137 13.7886H219.111C219.324 13.7886 219.437 13.626 219.437 13.2986V8.40725C219.437 8.12053 219.316 7.91726 219.111 7.91726H218.298C218.085 7.91726 217.973 8.07988 217.973 8.40725C217.973 8.44791 217.973 8.85659 218.013 9.71248H217.973C217.628 9.05886 217.104 8.51878 216.462 8.15679C215.821 7.7948 215.089 7.62622 214.355 7.67119C213.781 7.66811 213.214 7.78636 212.689 8.01824C212.165 8.25012 211.694 8.59044 211.309 9.01707C210.483 10.0559 210.064 11.3629 210.132 12.691C210.106 13.6024 210.346 14.5015 210.822 15.2776C211.298 16.0536 211.99 16.6725 212.812 17.0581C213.552 17.3998 214.311 17.6998 215.085 17.9568C215.663 18.146 216.211 18.4215 216.708 18.7742H219.631C219.543 18.4374 219.394 18.1198 219.192 17.837Z" fill="#919191"/>
<path opacity="0.2" d="M187.805 16.9805C187.786 15.426 188.239 13.9026 189.103 12.6134C189.462 12.0066 189.974 11.5058 190.587 11.1617C191.201 10.8176 191.893 10.6422 192.596 10.6534H193.123C193.336 10.6534 193.449 10.4908 193.449 10.1634V8.32752C193.449 8.0408 193.328 7.87819 193.123 7.87819C192.32 7.86004 191.526 8.04236 190.81 8.40883C190.201 8.68011 189.66 9.08433 189.226 9.59209C188.828 10.0885 188.5 10.6379 188.252 11.2247C188.009 11.7165 187.832 12.238 187.724 12.776H187.647V8.36818C187.647 8.08146 187.526 7.95949 187.322 7.95949H184.357C184.144 7.95949 184.031 8.08146 184.031 8.36818V9.87881C184.031 10.1655 184.153 10.2875 184.357 10.2875H185.732V18.7779H187.843V16.9826L187.805 16.9805Z" fill="#919191"/>
<path opacity="0.2" d="M152.855 10.285H154.032C154.245 10.285 154.317 10.1631 154.317 9.87635V8.36572C154.317 8.079 154.196 7.95703 154.032 7.95703H149.281C149.068 7.95703 148.996 8.079 148.996 8.36572V9.88491C148.996 10.1716 149.117 10.2936 149.281 10.2936H150.703L152.693 18.784H154.683L152.855 10.285Z" fill="#919191"/>
<path opacity="0.2" d="M167.103 10.285H168.484C168.697 10.285 168.767 10.1631 168.767 9.87635V8.36572C168.767 8.079 168.686 7.95703 168.484 7.95703H163.815C163.602 7.95703 163.489 8.079 163.489 8.36572V9.88491C163.489 10.1716 163.61 10.2936 163.815 10.2936H164.951L163.125 18.784H165.115L167.103 10.285Z" fill="#919191"/>
<path opacity="0.2" d="M196.336 16.5314C196.264 14.9027 196.658 13.2876 197.472 11.8775C197.75 11.3713 198.154 10.9469 198.646 10.6466C199.137 10.3463 199.698 10.1805 200.273 10.1658C200.844 10.176 201.402 10.3403 201.889 10.6414C202.376 10.9425 202.773 11.3694 203.04 11.8775C203.839 13.2921 204.219 14.9068 204.136 16.5314C204.131 17.2844 204.06 18.0356 203.923 18.776H206.156V0.408685C206.156 0.121963 206.034 0 205.87 0H201.614C201.401 0 201.329 0.121963 201.329 0.408685V1.92574C201.329 2.21246 201.45 2.33442 201.614 2.33442H204.132V9.96677C204.132 10.2535 204.131 10.66 204.172 11.15H204.132C203.85 10.2165 203.332 9.3724 202.629 8.70006C201.923 8.0457 200.99 7.69412 200.03 7.72008C199.186 7.72316 198.358 7.9516 197.63 8.38206C196.902 8.81252 196.301 9.42954 195.889 10.17C194.752 12.1208 194.202 14.3608 194.305 16.6191C194.295 17.3571 194.349 18.0945 194.467 18.823H196.619C196.419 18.076 196.324 17.3048 196.336 16.5314Z" fill="#919191"/>
</g>
</g>
<defs>
<clipPath id="clip0_1102:59">
<rect width="220" height="34" fill="white"/>
</clipPath>
</defs>
</svg>
