<svg width="18" height="18" viewBox="0 0 18 18" fill="none" xmlns="http://www.w3.org/2000/svg">
<path d="M3.21887 5.98705H7.5738C7.74633 5.98705 7.88618 5.8472 7.88618 5.67468C7.88618 5.50215 7.74633 5.3623 7.5738 5.3623H3.21887C3.04634 5.3623 2.90649 5.50215 2.90649 5.67468C2.90649 5.8472 3.04634 5.98705 3.21887 5.98705Z" fill="#117BD4"/>
<path d="M7.57402 10.9824H3.21911C3.04659 10.9824 2.90674 11.1223 2.90674 11.2948C2.90674 11.4673 3.04659 11.6072 3.21911 11.6072H7.57405C7.74657 11.6072 7.88642 11.4673 7.88642 11.2948C7.88642 11.1223 7.74654 10.9824 7.57402 10.9824Z" fill="#117BD4"/>
<path d="M6.94927 12.8564H3.21911C3.04659 12.8564 2.90674 12.9963 2.90674 13.1688C2.90674 13.3413 3.04659 13.4812 3.21911 13.4812H6.9493C7.12182 13.4812 7.26167 13.3413 7.26167 13.1688C7.26167 12.9963 7.12179 12.8564 6.94927 12.8564Z" fill="#117BD4"/>
<path d="M2.90674 9.42077C2.90674 9.5933 3.04659 9.73315 3.21911 9.73315H9.44829C9.62082 9.73315 9.76067 9.5933 9.76067 9.42077C9.76067 9.24825 9.62082 9.1084 9.44829 9.1084H3.21911C3.04659 9.1084 2.90674 9.24825 2.90674 9.42077Z" fill="#117BD4"/>
<path d="M3.18762 7.88061H8.82329C8.99581 7.88061 9.13566 7.74076 9.13566 7.56823C9.13566 7.39571 8.99581 7.25586 8.82329 7.25586H3.18762C3.01509 7.25586 2.87524 7.39571 2.87524 7.56823C2.87524 7.74076 3.01509 7.88061 3.18762 7.88061Z" fill="#117BD4"/>
<path d="M10.3777 7.88092C10.5503 7.88092 10.6902 7.741 10.6902 7.56839C10.6902 7.39578 10.5503 7.25586 10.3777 7.25586C10.2051 7.25586 10.0652 7.39578 10.0652 7.56839C10.0652 7.741 10.2051 7.88092 10.3777 7.88092Z" fill="#117BD4"/>
<path d="M16.5879 6.06215L16.5681 6.04235C16.3086 5.78283 15.9627 5.6416 15.5938 5.64348C15.2264 5.64576 14.8804 5.79076 14.6194 6.05175L14.6145 6.05662C14.6141 6.05709 14.6136 6.05746 14.6131 6.0579L12.5835 8.08752C12.5835 8.08752 12.5838 4.73734 12.5838 4.73725C12.5838 4.59505 12.5497 4.46204 12.4834 4.33669C12.4438 4.26187 12.3935 4.19209 12.3333 4.13246L9.45163 1.25046C9.38419 1.18302 9.30566 1.12795 9.22019 1.0865C9.2162 1.08456 9.2122 1.08259 9.20817 1.08069C9.20073 1.07706 9.1932 1.07369 9.18546 1.07063C9.079 1.02477 8.96345 1 8.84653 1H1.90401C1.40556 1 1 1.40552 1 1.90401V16.1064C1 16.6049 1.40552 17.0104 1.90401 17.0104H11.6798C12.157 17.0104 12.5535 16.6373 12.5823 16.1609C12.5827 16.1546 12.5828 16.1483 12.5828 16.1421L12.5832 12.0061L16.5717 8.01758L16.5763 8.01308C16.577 8.01237 16.5778 8.01162 16.5785 8.01087C16.8395 7.74988 16.9845 7.40383 16.9868 7.03654C16.9891 6.66772 16.8474 6.32167 16.5879 6.06215ZM15.5977 6.26822H15.6025C15.8011 6.26822 15.987 6.34479 16.1264 6.48417L16.1462 6.50397C16.2866 6.64445 16.3633 6.83222 16.3621 7.03267C16.3615 7.12919 16.3427 7.22303 16.3077 7.31052L15.3197 6.3227C15.4072 6.28762 15.5011 6.26882 15.5977 6.26822ZM9.31484 13.0263L9.6016 13.3132L9.15519 13.4723L9.31484 13.0263ZM10.2529 13.081L9.54778 12.3757C9.54778 12.3757 9.71437 11.912 9.71615 11.9073L10.722 12.9133C10.7173 12.915 10.2529 13.081 10.2529 13.081ZM10.1235 11.4311L14.834 6.72054L15.1553 7.04179L10.4447 11.7524L10.1235 11.4311ZM11.5173 4.19993H9.45307C9.41496 4.19993 9.38394 4.16891 9.38394 4.1308V2.06635L11.5173 4.19993ZM11.9581 16.1309C11.9455 16.2744 11.8247 16.3857 11.6798 16.3857H1.90401C1.75001 16.3857 1.62475 16.2604 1.62475 16.1064V1.90401C1.62475 1.75001 1.75001 1.62475 1.90401 1.62475H8.75919V4.1308C8.75919 4.5134 9.07047 4.82468 9.45307 4.82468H11.959L11.9587 8.71233L9.39534 11.276C9.27192 11.399 9.17668 11.5517 9.1198 11.7177L8.54468 13.3239C8.46647 13.5421 8.51957 13.7795 8.68328 13.9435C8.79724 14.0576 8.94687 14.1182 9.10096 14.1182C9.16812 14.1182 9.23619 14.1067 9.30247 14.083L10.9084 13.5106C11.076 13.4544 11.2307 13.3586 11.3558 13.2335L11.9584 12.6309L11.9581 16.1309ZM11.199 12.5068L10.8865 12.1942L15.5971 7.48355L15.9097 7.79605L11.199 12.5068Z" fill="#117BD4"/>
</svg>
