<svg width="16" height="16" viewBox="0 0 16 16" fill="none" xmlns="http://www.w3.org/2000/svg">
<path d="M13.5 13.9378H4.35L5.665 13.6453C5.72314 13.6327 5.77622 13.6032 5.8175 13.5603L13.7925 5.58783C14.2407 5.13962 14.4925 4.53171 14.4925 3.89783C14.4925 3.26396 14.2407 2.65605 13.7925 2.20783C13.3443 1.75962 12.7364 1.50781 12.1025 1.50781C11.4686 1.50781 10.8607 1.75962 10.4125 2.20783L7.2675 5.35533L2.44 10.1828C2.39717 10.2241 2.36759 10.2772 2.355 10.3353L1.535 14.0253C1.50418 14.0541 1.47963 14.089 1.46285 14.1277C1.44608 14.1664 1.43745 14.2081 1.4375 14.2503C1.4375 14.3332 1.47042 14.4127 1.52903 14.4713C1.58763 14.5299 1.66712 14.5628 1.75 14.5628H13.5C13.5829 14.5628 13.6624 14.5299 13.721 14.4713C13.7796 14.4127 13.8125 14.3332 13.8125 14.2503C13.8125 14.1675 13.7796 14.088 13.721 14.0294C13.6624 13.9708 13.5829 13.9378 13.5 13.9378ZM11.34 7.14783C11.34 7.11283 11.34 7.08033 11.34 7.04533C11.3404 6.72232 11.2751 6.4026 11.1481 6.10561C11.0211 5.80862 10.835 5.54055 10.6012 5.31771C10.3673 5.09487 10.0906 4.9219 9.78787 4.80932C9.48511 4.69674 9.16262 4.6469 8.84 4.66283C9.17018 4.3344 9.61694 4.15001 10.0826 4.14993C10.5484 4.14985 10.9952 4.33409 11.3255 4.66241C11.6558 4.99072 11.8427 5.43642 11.8454 5.90212C11.8481 6.36783 11.6664 6.81568 11.34 7.14783ZM10.855 2.64783C11.1865 2.31631 11.6362 2.13007 12.105 2.13007C12.3371 2.13007 12.567 2.17579 12.7815 2.26463C12.996 2.35347 13.1908 2.48368 13.355 2.64783C13.5192 2.81199 13.6494 3.00686 13.7382 3.22134C13.827 3.43581 13.8728 3.66569 13.8728 3.89783C13.8728 4.12998 13.827 4.35985 13.7382 4.57433C13.6494 4.7888 13.5192 4.98368 13.355 5.14783L12.3925 6.11033C12.3925 6.07283 12.3925 6.03533 12.3925 5.99783C12.3925 5.67492 12.327 5.35537 12.1999 5.05854C12.0727 4.76172 11.8866 4.4938 11.6529 4.27102C11.4191 4.04825 11.1426 3.87527 10.84 3.76256C10.5374 3.64985 10.215 3.59976 9.8925 3.61533L10.855 2.64783ZM2.945 10.5603L7.695 5.79533C8.02652 5.46381 8.47616 5.27757 8.945 5.27757C9.41384 5.27757 9.86348 5.46381 10.195 5.79533C10.5265 6.12685 10.7128 6.57649 10.7128 7.04533C10.7128 7.51417 10.5265 7.96381 10.195 8.29533L5.445 13.0453L2.2325 13.7678L2.945 10.5603Z" fill="white"/>
</svg>
