<svg width="18" height="18" viewBox="0 0 18 18" fill="none" xmlns="http://www.w3.org/2000/svg">
<g clip-path="url(#clip0_7772_1092)">
<path d="M10.5 6.81738L17.1075 8.12988C17.64 8.24238 18 8.69238 18 9.22488V16.8749C18 17.4974 17.4975 17.9999 16.875 17.9999H10.125C10.335 17.9999 10.5 17.8349 10.5 17.6249V17.2499H16.875C17.0775 17.2499 17.25 17.0849 17.25 16.8749V9.22488C17.25 9.05238 17.13 8.89488 16.9575 8.85738L10.5 7.58238V6.81738Z" fill="#117BD4"/>
<path d="M14.625 10.5C14.835 10.5 15 10.665 15 10.875C15 11.085 14.835 11.25 14.625 11.25H13.125C12.915 11.25 12.75 11.085 12.75 10.875C12.75 10.665 12.915 10.5 13.125 10.5H14.625Z" fill="#117BD4"/>
<path d="M14.625 12.75C14.835 12.75 15 12.915 15 13.125C15 13.335 14.835 13.5 14.625 13.5H13.125C12.915 13.5 12.75 13.335 12.75 13.125C12.75 12.915 12.915 12.75 13.125 12.75H14.625Z" fill="#117BD4"/>
<path d="M14.625 15C14.835 15 15 15.165 15 15.375C15 15.585 14.835 15.75 14.625 15.75H13.125C12.915 15.75 12.75 15.585 12.75 15.375C12.75 15.165 12.915 15 13.125 15H14.625Z" fill="#117BD4"/>
<path d="M10.5 17.6249C10.5 17.8349 10.335 17.9999 10.125 17.9999C9.915 17.9999 9.75 17.8349 9.75 17.6249V17.2499V7.12489C9.75 7.01239 9.8025 6.90739 9.885 6.83239C9.975 6.76489 10.0875 6.73489 10.2 6.75739L10.5 6.81739V7.58239V17.2499V17.6249Z" fill="#117BD4"/>
<path d="M9.75 17.25V17.625C9.75 17.835 9.915 18 10.125 18H7.125C7.335 18 7.5 17.835 7.5 17.625V17.25H9.75Z" fill="#117BD4"/>
<path d="M7.875 3.75C8.085 3.75 8.25 3.915 8.25 4.125C8.25 4.335 8.085 4.5 7.875 4.5H6.375C6.165 4.5 6 4.335 6 4.125C6 3.915 6.165 3.75 6.375 3.75H7.875Z" fill="#117BD4"/>
<path d="M8.25 6.375C8.25 6.585 8.085 6.75 7.875 6.75H6.375C6.165 6.75 6 6.585 6 6.375C6 6.165 6.165 6 6.375 6H7.875C8.085 6 8.25 6.165 8.25 6.375Z" fill="#117BD4"/>
<path d="M7.875 8.25C8.085 8.25 8.25 8.415 8.25 8.625C8.25 8.835 8.085 9 7.875 9H6.375C6.165 9 6 8.835 6 8.625C6 8.415 6.165 8.25 6.375 8.25H7.875Z" fill="#117BD4"/>
<path d="M7.875 10.5C8.085 10.5 8.25 10.665 8.25 10.875C8.25 11.085 8.085 11.25 7.875 11.25H6.375C6.165 11.25 6 11.085 6 10.875C6 10.665 6.165 10.5 6.375 10.5H7.875Z" fill="#117BD4"/>
<path d="M4.5 10.875C4.5 11.085 4.335 11.25 4.125 11.25H2.625C2.415 11.25 2.25 11.085 2.25 10.875C2.25 10.665 2.415 10.5 2.625 10.5H4.125C4.335 10.5 4.5 10.665 4.5 10.875Z" fill="#117BD4"/>
<path d="M4.125 3.75C4.335 3.75 4.5 3.915 4.5 4.125C4.5 4.335 4.335 4.5 4.125 4.5H2.625C2.415 4.5 2.25 4.335 2.25 4.125C2.25 3.915 2.415 3.75 2.625 3.75H4.125Z" fill="#117BD4"/>
<path d="M4.125 6C4.335 6 4.5 6.165 4.5 6.375C4.5 6.585 4.335 6.75 4.125 6.75H2.625C2.415 6.75 2.25 6.585 2.25 6.375C2.25 6.165 2.415 6 2.625 6H4.125Z" fill="#117BD4"/>
<path d="M4.125 8.25C4.335 8.25 4.5 8.415 4.5 8.625C4.5 8.835 4.335 9 4.125 9H2.625C2.415 9 2.25 8.835 2.25 8.625C2.25 8.415 2.415 8.25 2.625 8.25H4.125Z" fill="#117BD4"/>
<path d="M6.75 13.875C6.75 13.665 6.5775 13.5 6.375 13.5H4.125C3.915 13.5 3.75 13.665 3.75 13.875V17.25H3V13.875C3 13.2525 3.5025 12.75 4.125 12.75H6.375C6.9975 12.75 7.5 13.2525 7.5 13.875V17.25H6.75V13.875Z" fill="#117BD4"/>
<path d="M3.75 17.25H6.75H7.5V17.625C7.5 17.835 7.335 18 7.125 18H3.375C3.165 18 3 17.835 3 17.625V17.25H3.75Z" fill="#117BD4"/>
<path d="M1.3125 0.150344L9.555 1.40284C10.1025 1.49284 10.5 1.95784 10.5 2.51284V6.81784L10.2 6.75784C10.0875 6.73534 9.975 6.76534 9.885 6.83284C9.8025 6.90784 9.75 7.01284 9.75 7.12534V2.51284C9.75 2.32534 9.615 2.16784 9.435 2.13784L1.1925 0.892844C1.17 0.885344 1.1475 0.885344 1.125 0.885344C1.035 0.885344 0.9525 0.915344 0.885 0.975344C0.795 1.05034 0.75 1.14784 0.75 1.26034V16.8753C0.75 17.0853 0.9225 17.2503 1.125 17.2503H3V17.6253C3 17.8353 3.165 18.0003 3.375 18.0003H1.125C0.5025 18.0003 0 17.4978 0 16.8753V1.26034C0 0.930344 0.1425 0.615344 0.3975 0.405344C0.6525 0.187844 0.9825 0.0978439 1.3125 0.150344Z" fill="#117BD4"/>
</g>
<defs>
<clipPath id="clip0_7772_1092">
<rect width="18" height="18" fill="white"/>
</clipPath>
</defs>
</svg>
