<svg width="12" height="12" viewBox="0 0 12 12" fill="none" xmlns="http://www.w3.org/2000/svg">
<g clip-path="url(#clip0_7762_834)">
<path d="M6.94033 5.95923L11.307 1.59306C11.578 1.322 11.578 0.882532 11.307 0.611496C11.0359 0.340439 10.5965 0.340439 10.3254 0.611496L5.95923 4.97812L1.59306 0.611496C1.322 0.340439 0.882532 0.340439 0.611496 0.611496C0.34046 0.882554 0.340439 1.32202 0.611496 1.59306L4.97812 5.95923L0.611496 10.3254C0.340439 10.5965 0.340439 11.0359 0.611496 11.307C0.882554 11.578 1.32202 11.578 1.59306 11.307L5.95923 6.94033L10.3254 11.307C10.5965 11.578 11.0359 11.578 11.307 11.307C11.578 11.0359 11.578 10.5965 11.307 10.3254L6.94033 5.95923Z" fill="#033146" stroke="#033146" stroke-width="0.5"/>
</g>
<defs>
<clipPath id="clip0_7762_834">
<rect width="12" height="12" fill="white"/>
</clipPath>
</defs>
</svg>
