<svg width="18" height="18" viewBox="0 0 18 18" fill="none" xmlns="http://www.w3.org/2000/svg">
<path d="M15.1875 15.6801H4.89375L6.37312 15.351C6.43853 15.3368 6.49824 15.3036 6.54469 15.2554L15.5166 6.28631C16.0208 5.78207 16.3041 5.09817 16.3041 4.38506C16.3041 3.67196 16.0208 2.98806 15.5166 2.48381C15.0123 1.97957 14.3284 1.69629 13.6153 1.69629C12.9022 1.69629 12.2183 1.97957 11.7141 2.48381L8.17594 6.02475L2.745 11.4557C2.69682 11.5021 2.66354 11.5618 2.64938 11.6273L1.72688 15.7785C1.69221 15.8109 1.66458 15.8501 1.64571 15.8937C1.62684 15.9372 1.61713 15.9842 1.61719 16.0316C1.61719 16.1249 1.65423 16.2143 1.72016 16.2802C1.78609 16.3461 1.87551 16.3832 1.96875 16.3832H15.1875C15.2807 16.3832 15.3702 16.3461 15.4361 16.2802C15.502 16.2143 15.5391 16.1249 15.5391 16.0316C15.5391 15.9384 15.502 15.849 15.4361 15.783C15.3702 15.7171 15.2807 15.6801 15.1875 15.6801ZM12.7575 8.04131C12.7575 8.00194 12.7575 7.96538 12.7575 7.926C12.7579 7.56261 12.6845 7.20293 12.5416 6.86881C12.3987 6.53469 12.1894 6.23312 11.9263 5.98242C11.6632 5.73172 11.352 5.53714 11.0114 5.41048C10.6707 5.28383 10.3079 5.22777 9.945 5.24569C10.3165 4.8762 10.8191 4.66876 11.343 4.66867C11.8669 4.66858 12.3696 4.87585 12.7412 5.24521C13.1127 5.61456 13.323 6.11597 13.3261 6.63989C13.3292 7.1638 13.1247 7.66764 12.7575 8.04131ZM12.2119 2.97881C12.5848 2.60585 13.0907 2.39632 13.6181 2.39632C13.8793 2.39632 14.1379 2.44777 14.3792 2.54771C14.6205 2.64765 14.8397 2.79414 15.0244 2.97881C15.209 3.16348 15.3555 3.38272 15.4555 3.62401C15.5554 3.86529 15.6069 4.1239 15.6069 4.38506C15.6069 4.64623 15.5554 4.90483 15.4555 5.14612C15.3555 5.3874 15.209 5.60664 15.0244 5.79131L13.9416 6.87413C13.9416 6.83194 13.9416 6.78975 13.9416 6.74756C13.9416 6.38429 13.8679 6.02479 13.7249 5.69086C13.5818 5.35693 13.3725 5.05552 13.1095 4.8049C12.8465 4.55428 12.5354 4.35968 12.195 4.23288C11.8545 4.10608 11.4919 4.04973 11.1291 4.06725L12.2119 2.97881ZM3.31313 11.8804L8.65688 6.51975C9.02984 6.14679 9.53568 5.93726 10.0631 5.93726C10.5906 5.93726 11.0964 6.14679 11.4694 6.51975C11.8423 6.89271 12.0519 7.39855 12.0519 7.926C12.0519 8.45345 11.8423 8.95929 11.4694 9.33225L6.12563 14.676L2.51156 15.4888L3.31313 11.8804Z" fill="#117BD4"/>
</svg>
