<svg width="16" height="16" viewBox="0 0 16 16" fill="none" xmlns="http://www.w3.org/2000/svg">
<g clip-path="url(#clip0_2683_21067)">
<path d="M9.33333 6.05957L15.2067 7.22624C15.68 7.32624 16 7.72624 16 8.19957V14.9996C16 15.5529 15.5533 15.9996 15 15.9996H9C9.18667 15.9996 9.33333 15.8529 9.33333 15.6662V15.3329H15C15.18 15.3329 15.3333 15.1862 15.3333 14.9996V8.19957C15.3333 8.04624 15.2267 7.90624 15.0733 7.8729L9.33333 6.73957V6.05957Z" fill="white"/>
<path d="M12.9997 9.33301C13.1863 9.33301 13.333 9.47967 13.333 9.66634C13.333 9.85301 13.1863 9.99967 12.9997 9.99967H11.6663C11.4797 9.99967 11.333 9.85301 11.333 9.66634C11.333 9.47967 11.4797 9.33301 11.6663 9.33301H12.9997Z" fill="white"/>
<path d="M12.9997 11.333C13.1863 11.333 13.333 11.4797 13.333 11.6663C13.333 11.853 13.1863 11.9997 12.9997 11.9997H11.6663C11.4797 11.9997 11.333 11.853 11.333 11.6663C11.333 11.4797 11.4797 11.333 11.6663 11.333H12.9997Z" fill="white"/>
<path d="M12.9997 13.333C13.1863 13.333 13.333 13.4797 13.333 13.6663C13.333 13.853 13.1863 13.9997 12.9997 13.9997H11.6663C11.4797 13.9997 11.333 13.853 11.333 13.6663C11.333 13.4797 11.4797 13.333 11.6663 13.333H12.9997Z" fill="white"/>
<path d="M9.33366 15.6666C9.33366 15.8532 9.18699 15.9999 9.00033 15.9999C8.81366 15.9999 8.66699 15.8532 8.66699 15.6666V15.3332V6.33323C8.66699 6.23323 8.71366 6.1399 8.78699 6.07323C8.86699 6.01323 8.96699 5.98657 9.06699 6.00657L9.33366 6.0599V6.7399V15.3332V15.6666Z" fill="white"/>
<path d="M8.66634 15.333V15.6663C8.66634 15.853 8.81301 15.9997 8.99967 15.9997H6.33301C6.51967 15.9997 6.66634 15.853 6.66634 15.6663V15.333H8.66634Z" fill="white"/>
<path d="M6.99967 3.33301C7.18634 3.33301 7.33301 3.47967 7.33301 3.66634C7.33301 3.85301 7.18634 3.99967 6.99967 3.99967H5.66634C5.47967 3.99967 5.33301 3.85301 5.33301 3.66634C5.33301 3.47967 5.47967 3.33301 5.66634 3.33301H6.99967Z" fill="white"/>
<path d="M7.33301 5.66634C7.33301 5.85301 7.18634 5.99967 6.99967 5.99967H5.66634C5.47967 5.99967 5.33301 5.85301 5.33301 5.66634C5.33301 5.47967 5.47967 5.33301 5.66634 5.33301H6.99967C7.18634 5.33301 7.33301 5.47967 7.33301 5.66634Z" fill="white"/>
<path d="M6.99967 7.33301C7.18634 7.33301 7.33301 7.47967 7.33301 7.66634C7.33301 7.85301 7.18634 7.99967 6.99967 7.99967H5.66634C5.47967 7.99967 5.33301 7.85301 5.33301 7.66634C5.33301 7.47967 5.47967 7.33301 5.66634 7.33301H6.99967Z" fill="white"/>
<path d="M6.99967 9.33301C7.18634 9.33301 7.33301 9.47967 7.33301 9.66634C7.33301 9.85301 7.18634 9.99967 6.99967 9.99967H5.66634C5.47967 9.99967 5.33301 9.85301 5.33301 9.66634C5.33301 9.47967 5.47967 9.33301 5.66634 9.33301H6.99967Z" fill="white"/>
<path d="M4 9.66634C4 9.85301 3.85333 9.99967 3.66667 9.99967H2.33333C2.14667 9.99967 2 9.85301 2 9.66634C2 9.47967 2.14667 9.33301 2.33333 9.33301H3.66667C3.85333 9.33301 4 9.47967 4 9.66634Z" fill="white"/>
<path d="M3.66667 3.33301C3.85333 3.33301 4 3.47967 4 3.66634C4 3.85301 3.85333 3.99967 3.66667 3.99967H2.33333C2.14667 3.99967 2 3.85301 2 3.66634C2 3.47967 2.14667 3.33301 2.33333 3.33301H3.66667Z" fill="white"/>
<path d="M3.66667 5.33301C3.85333 5.33301 4 5.47967 4 5.66634C4 5.85301 3.85333 5.99967 3.66667 5.99967H2.33333C2.14667 5.99967 2 5.85301 2 5.66634C2 5.47967 2.14667 5.33301 2.33333 5.33301H3.66667Z" fill="white"/>
<path d="M3.66667 7.33301C3.85333 7.33301 4 7.47967 4 7.66634C4 7.85301 3.85333 7.99967 3.66667 7.99967H2.33333C2.14667 7.99967 2 7.85301 2 7.66634C2 7.47967 2.14667 7.33301 2.33333 7.33301H3.66667Z" fill="white"/>
<path d="M6.00033 12.333C6.00033 12.1463 5.84699 11.9997 5.66699 11.9997H3.66699C3.48033 11.9997 3.33366 12.1463 3.33366 12.333V15.333H2.66699V12.333C2.66699 11.7797 3.11366 11.333 3.66699 11.333H5.66699C6.22033 11.333 6.66699 11.7797 6.66699 12.333V15.333H6.00033V12.333Z" fill="white"/>
<path d="M3.33366 15.333H6.00033H6.66699V15.6663C6.66699 15.853 6.52033 15.9997 6.33366 15.9997H3.00033C2.81366 15.9997 2.66699 15.853 2.66699 15.6663V15.333H3.33366Z" fill="white"/>
<path d="M1.16667 0.133097L8.49333 1.24643C8.98 1.32643 9.33333 1.73976 9.33333 2.2331V6.05976L9.06667 6.00643C8.96667 5.98643 8.86667 6.0131 8.78667 6.0731C8.71333 6.13976 8.66667 6.2331 8.66667 6.3331V2.2331C8.66667 2.06643 8.54667 1.92643 8.38667 1.89976L1.06 0.793097C1.04 0.78643 1.02 0.78643 1 0.78643C0.92 0.78643 0.846667 0.813097 0.786667 0.86643C0.706667 0.933096 0.666667 1.01976 0.666667 1.11976V14.9998C0.666667 15.1864 0.82 15.3331 1 15.3331H2.66667V15.6664C2.66667 15.8531 2.81333 15.9998 3 15.9998H1C0.446667 15.9998 0 15.5531 0 14.9998V1.11976C0 0.82643 0.126667 0.54643 0.353333 0.359763C0.58 0.16643 0.873333 0.0864298 1.16667 0.133097Z" fill="white"/>
</g>
<defs>
<clipPath id="clip0_2683_21067">
<rect width="16" height="16" fill="white"/>
</clipPath>
</defs>
</svg>
