<svg width="18" height="18" viewBox="0 0 18 18" fill="none" xmlns="http://www.w3.org/2000/svg">
<g clip-path="url(#clip0_7772_1193)">
<path d="M14.5989 11.4148C14.4644 11.336 14.2923 11.381 14.214 11.5152L10.9891 17.0156C10.7561 17.4187 10.2394 17.5577 9.84857 17.3321L9.22035 16.925C9.08983 16.8403 8.91565 16.8774 8.83125 17.0079C8.74655 17.1382 8.78397 17.3126 8.91423 17.397L9.55482 17.8117C9.77568 17.9394 10.0173 17.9999 10.2559 17.9999C10.7423 17.9999 11.2155 17.7482 11.4752 17.2986L14.699 11.7996C14.7776 11.6657 14.7328 11.4932 14.5989 11.4148Z" fill="#117BD4" stroke="#117BD4" stroke-width="0.2"/>
<path d="M15.4499 1.125H10.9485C10.0781 1.125 9.4296 1.4021 8.78028 2.05143C8.67029 2.16144 8.67029 2.33924 8.78028 2.44923C8.8903 2.55925 9.0681 2.55925 9.17808 2.44923C9.72612 1.90119 10.2227 1.68765 10.9485 1.68765H15.4499C15.9152 1.68765 16.2939 2.06633 16.2939 2.53165V7.03303C16.2939 7.75917 16.0803 8.25541 15.532 8.80346L7.17694 17.1704C6.85789 17.4889 6.30197 17.4891 5.98353 17.1704L0.811168 11.998C0.651664 11.8385 0.563868 11.6266 0.563868 11.401C0.563868 11.1757 0.651631 10.9638 0.810871 10.8046L8.36246 3.26369C8.47865 3.29323 8.59513 3.32277 8.71582 3.35512C9.86031 3.66176 10.7634 3.97856 11.4366 4.2613C11.3041 4.50662 11.2298 4.78148 11.2298 5.06366C11.2298 5.99461 11.9869 6.75167 12.9178 6.75167C13.8488 6.75167 14.6059 5.99461 14.6059 5.06366C14.6059 4.13272 13.8488 3.37565 12.9178 3.37565C12.7623 3.37565 12.6365 3.5017 12.6365 3.65698C12.6365 3.81226 12.7623 3.9383 12.9178 3.9383C13.5385 3.9383 14.0432 4.44302 14.0432 5.06363C14.0432 5.68427 13.5384 6.18896 12.9178 6.18896C12.2972 6.18896 11.7925 5.68424 11.7925 5.06363C11.7925 4.86107 11.8479 4.66329 11.9501 4.49112C12.4374 4.72435 12.742 4.92101 12.8625 5.04649C12.811 5.06112 12.7313 5.07744 12.6112 5.08783C12.4565 5.10161 12.342 5.23807 12.3558 5.39279C12.3687 5.53907 12.4914 5.64965 12.6357 5.64965C12.6439 5.64965 12.6523 5.64909 12.6608 5.64853C12.8338 5.63307 13.3602 5.58665 13.4614 5.20935C13.7385 4.17433 9.67805 3.0304 8.86132 2.81152C7.61189 2.47672 6.41202 2.24772 5.4822 2.16672C4.3397 2.06686 3.78322 2.19682 3.67857 2.58786C3.62849 2.77552 3.49487 3.27375 5.77592 4.17317C5.92026 4.23027 6.08398 4.15939 6.14082 4.01479C6.19766 3.87019 6.12674 3.70673 5.98214 3.64989C4.88016 3.21523 4.42354 2.89675 4.27725 2.74681C4.62415 2.64497 5.81054 2.67451 7.72109 3.10887L0.413365 10.4065C0.147504 10.6724 0.0012207 11.0254 0.0012207 11.401C0.0012207 11.7769 0.147504 12.1302 0.413365 12.3958L5.58569 17.5681C5.85099 17.8337 6.20435 17.98 6.57993 17.98C6.95581 17.98 7.30888 17.8337 7.57474 17.5679L15.9301 9.20126C16.5797 8.55194 16.8565 7.90347 16.8565 7.03303V2.53168C16.8565 1.75602 16.2255 1.125 15.4499 1.125Z" fill="#117BD4" stroke="#117BD4" stroke-width="0.2"/>
<path d="M9.20295 8.52197C9.09296 8.41195 8.91513 8.41195 8.80514 8.52197L8.65322 8.67389C8.43068 8.52648 8.16512 8.43954 7.87872 8.43954C7.10309 8.43954 6.47203 9.07057 6.47203 9.84623C6.47203 10.2654 6.64505 10.5968 6.79585 10.8391C6.93653 11.065 7.03471 11.3868 7.03471 11.5342C7.03471 11.9996 6.65603 12.3782 6.19071 12.3782C5.72539 12.3782 5.34671 11.9996 5.34671 11.5342C5.34671 11.3635 5.39761 11.1989 5.49385 11.0582C5.58161 10.9302 5.54871 10.7549 5.42069 10.6672C5.29241 10.5797 5.11741 10.6123 5.02964 10.7403C4.86899 10.975 4.78403 11.2495 4.78403 11.5343C4.78403 11.8207 4.87097 12.0862 5.01837 12.3088L4.86645 12.4607C4.75643 12.5707 4.75643 12.7485 4.86645 12.8585C4.92131 12.9134 4.99335 12.9409 5.06535 12.9409C5.13739 12.9409 5.20939 12.9134 5.26425 12.8585L5.41617 12.7066C5.63871 12.854 5.90428 12.9409 6.19068 12.9409C6.9663 12.9409 7.59736 12.3099 7.59736 11.5342C7.59736 11.2602 7.4612 10.8427 7.27354 10.5414C7.10616 10.2727 7.03468 10.0648 7.03468 9.84623C7.03468 9.3809 7.41336 9.00222 7.87868 9.00222C8.10432 9.00222 8.30827 9.09226 8.45963 9.23713C8.46441 9.2422 8.46609 9.24893 8.47087 9.25401C8.47595 9.25879 8.48267 9.26047 8.48775 9.26525C8.63265 9.41661 8.72266 9.62059 8.72266 9.84619C8.72266 10.0718 8.6346 10.2842 8.4748 10.444C8.36478 10.5537 8.36478 10.7318 8.4745 10.8418C8.58392 10.9518 8.76232 10.9515 8.8723 10.8421C9.13846 10.576 9.2853 10.2223 9.2853 9.84619C9.2853 9.55979 9.19836 9.29423 9.05096 9.07169L9.20288 8.91977C9.31296 8.80978 9.31296 8.63195 9.20295 8.52197Z" fill="#117BD4" stroke="#117BD4" stroke-width="0.2"/>
</g>
<defs>
<clipPath id="clip0_7772_1193">
<rect width="18" height="18" fill="white"/>
</clipPath>
</defs>
</svg>
