<svg width="15" height="15" viewBox="0 0 15 15" fill="none" xmlns="http://www.w3.org/2000/svg">
<path fill-rule="evenodd" clip-rule="evenodd" d="M7.5 7.01565C8.16922 7.01581 8.82345 6.81021 9.37996 6.42486C9.93646 6.03951 10.3702 5.4917 10.6264 4.85074C10.8826 4.20977 10.9497 3.50443 10.8193 2.82391C10.6888 2.1434 10.3666 1.51829 9.89344 1.02764C9.42027 0.536986 8.81739 0.202833 8.16104 0.0674389C7.50469 -0.067955 6.82435 0.00149234 6.20608 0.266999C5.5878 0.532505 5.05935 0.982143 4.68756 1.55905C4.31578 2.13595 4.11736 2.8142 4.1174 3.50803C4.11862 4.43781 4.47537 5.32916 5.10945 5.98668C5.74353 6.64419 6.6032 7.01422 7.5 7.01565ZM11.3145 7.74958C10.2406 8.66787 8.89199 9.17009 7.49997 9.17009C6.10796 9.17009 4.75933 8.66787 3.68545 7.74958C2.60864 8.40578 1.70731 9.3309 1.0636 10.4407C0.41989 11.5504 0.054251 12.8095 0 14.1033C0.000316303 14.1036 0.000694111 14.1038 0.00110016 14.1039C2.4516 14.7174 4.9805 15 7.5 15C10.0195 15 12.5489 14.7176 15 14.104C14.9459 12.8101 14.5803 11.5509 13.9366 10.441C13.2929 9.33108 12.3916 8.40585 11.3147 7.74958H11.3145Z" fill="#AABEDD"/>
</svg>
