<svg width="29" height="29" viewBox="0 0 29 29" fill="none" xmlns="http://www.w3.org/2000/svg">
<path fill-rule="evenodd" clip-rule="evenodd" d="M23.5478 5.48773L22.2758 6.12577C24.7555 8.12824 25.9678 10.7148 26.1931 13.8447C26.0047 19.8861 23.1543 23.769 18.2579 25.4342C12.6009 27.1386 9.01629 25.7595 5.5476 22.2253L5.3291 23.5839L6.73936 25.0534C11.6449 30.1655 19.7781 30.3334 24.8902 25.4279C30.0023 20.5221 30.1702 12.3891 25.2644 7.27676L23.5478 5.48773Z" fill="#FEEF7C"/>
<path fill-rule="evenodd" clip-rule="evenodd" d="M4.63135 22.8269L5.48358 22.0825C1.94274 17.0648 1.79437 9.71877 6.64015 5.67459C10.2321 2.67683 17.3594 1.12301 23.0615 6.14349L23.4871 5.39481L22.0976 3.94657C17.1918 -1.16556 9.05886 -1.33342 3.94648 3.57236C-1.16566 8.47789 -1.33327 16.6111 3.57226 21.7232L4.63135 22.8269Z" fill="#5CD3CB"/>
<path d="M1.56787 14.5364C1.56787 21.6394 7.3269 27.3984 14.4299 27.3984C21.5341 27.3984 27.2928 21.6394 27.2928 14.5364C27.2928 7.43222 21.5341 1.67319 14.4299 1.67319C7.3269 1.67319 1.56787 7.43222 1.56787 14.5364ZM10.5204 16.8627C10.6556 16.4348 10.5052 15.9685 10.1456 15.6998C9.19366 14.9889 7.31677 13.5872 6.05564 12.6454C5.8736 12.5094 5.79916 12.2722 5.87081 12.0565C5.94246 11.8407 6.144 11.6954 6.37137 11.6954H11.2594C11.7144 11.6954 12.118 11.4037 12.261 10.9721C12.6464 9.80814 13.4123 7.49501 13.9202 5.9617C13.9916 5.74624 14.1929 5.6004 14.42 5.60015C14.6471 5.5999 14.8491 5.74497 14.921 5.96018C15.4343 7.49476 16.2093 9.81169 16.5984 10.9751C16.7425 11.4053 17.1453 11.6954 17.599 11.6954C18.7553 11.6954 20.9829 11.6954 22.4995 11.6954C22.7261 11.6954 22.9276 11.8402 22.9995 12.0554C23.0714 12.2707 22.998 12.5076 22.8167 12.6441C21.5594 13.5913 19.6815 15.0056 18.7315 15.7211C18.374 15.9903 18.2254 16.4559 18.3604 16.8822C18.7277 18.0423 19.4645 20.3689 19.9623 21.9404C20.0317 22.16 19.9506 22.3995 19.762 22.5316C19.5734 22.6638 19.321 22.6585 19.1381 22.5182C17.875 21.5485 16.0295 20.1319 15.0631 19.3903C14.683 19.0986 14.1544 19.0994 13.7754 19.3926C12.8183 20.1324 10.9979 21.5401 9.74536 22.5086C9.56306 22.6496 9.31013 22.6559 9.12099 22.5238C8.93186 22.3919 8.85034 22.1524 8.91971 21.9326C9.41748 20.3565 10.1532 18.0259 10.5204 16.8627Z" fill="black"/>
</svg>
