<svg width="18" height="18" viewBox="0 0 18 18" fill="none" xmlns="http://www.w3.org/2000/svg">
<g clip-path="url(#clip0_7772_1128)">
<path d="M8.23061 12.3946L10.2858 11.8685C10.3548 11.8564 10.4184 11.8233 10.4678 11.7735L17.6223 4.61507C17.8124 4.42448 17.9191 4.16626 17.9191 3.89705C17.9191 3.62784 17.8124 3.36962 17.6223 3.17903L17.0447 2.59947C16.9503 2.50477 16.8381 2.42978 16.7145 2.37884C16.5909 2.3279 16.4584 2.30205 16.3247 2.30276C16.1913 2.30231 16.0592 2.32829 15.936 2.37922C15.8127 2.43015 15.7008 2.50501 15.6067 2.59947L14.4198 3.78628V1.54914C14.4196 1.36204 14.3824 1.17683 14.3104 1.00412C14.2385 0.831413 14.1332 0.6746 14.0005 0.542669C13.8678 0.410737 13.7104 0.30628 13.5373 0.235281C13.3642 0.164282 13.1788 0.128138 12.9917 0.128919H1.57061C1.19411 0.129442 0.833171 0.27924 0.566941 0.545469C0.300712 0.811699 0.150914 1.17263 0.150391 1.54914V13.9395C0.150914 14.316 0.300712 14.6769 0.566941 14.9431C0.833171 15.2094 1.19411 15.3592 1.57061 15.3597H6.99435L10.4104 17.8025C10.4621 17.8396 10.523 17.8617 10.5865 17.8665C10.6499 17.8712 10.7134 17.8583 10.7701 17.8293C10.8267 17.8003 10.8742 17.7562 10.9074 17.7019C10.9406 17.6477 10.9582 17.5853 10.9583 17.5217V15.3597H12.9917C13.3682 15.3592 13.7291 15.2094 13.9954 14.9431C14.2616 14.6769 14.4114 14.316 14.4119 13.9395V10.0171C14.4119 9.92524 14.3755 9.8372 14.3105 9.77228C14.2456 9.70737 14.1576 9.6709 14.0658 9.6709C13.974 9.6709 13.8859 9.70737 13.821 9.77228C13.7561 9.8372 13.7196 9.92524 13.7196 10.0171V13.9395C13.7196 14.0351 13.7008 14.1297 13.6642 14.218C13.6276 14.3063 13.574 14.3866 13.5064 14.4542C13.4388 14.5218 13.3586 14.5754 13.2703 14.612C13.182 14.6486 13.0873 14.6674 12.9917 14.6674H10.0563C9.96452 14.6674 9.87647 14.7038 9.81156 14.7688C9.74664 14.8337 9.71017 14.9217 9.71017 15.0135C9.71017 15.1053 9.74664 15.1934 9.81156 15.2583C9.87647 15.3232 9.96452 15.3597 10.0563 15.3597H10.266V16.8491L7.29896 14.7307C7.24118 14.6896 7.17206 14.6675 7.10116 14.6674H1.5627C1.46711 14.6674 1.37245 14.6486 1.28414 14.612C1.19582 14.5754 1.11558 14.5218 1.04799 14.4542C0.980394 14.3866 0.926776 14.3063 0.890195 14.218C0.853614 14.1297 0.834786 14.0351 0.834786 13.9395V1.54914C0.834781 1.45288 0.853868 1.35757 0.890942 1.26874C0.928017 1.1799 0.982343 1.09931 1.05078 1.03161C1.11921 0.963912 1.20039 0.91046 1.28962 0.874348C1.37885 0.838236 1.47436 0.82018 1.57061 0.821226H12.9917C13.1848 0.821226 13.3699 0.897917 13.5064 1.03443C13.6429 1.17094 13.7196 1.35608 13.7196 1.54914V4.4865L8.45215 9.75397C8.40283 9.80364 8.36973 9.86709 8.3572 9.93595L7.80731 11.9674C7.78984 12.026 7.78871 12.0884 7.80405 12.1476C7.81939 12.2069 7.85061 12.2608 7.89435 12.3036C7.93812 12.346 7.99193 12.3766 8.05074 12.3925C8.10955 12.4084 8.17144 12.4092 8.23061 12.3946ZM15.5097 3.67551L16.5462 4.712L10.2165 11.0417L9.18006 10.0072L15.5097 3.67551ZM8.88929 10.6817L9.53413 11.3265L8.63808 11.5698L8.88929 10.6817ZM16.3247 2.99507C16.3673 2.99495 16.4095 3.00327 16.4489 3.01957C16.4883 3.03587 16.5241 3.05981 16.5541 3.09002L17.1317 3.6676C17.1618 3.69756 17.1857 3.73316 17.2019 3.77237C17.2182 3.81157 17.2266 3.85361 17.2266 3.89606C17.2266 3.93852 17.2182 3.98055 17.2019 4.01976C17.1857 4.05896 17.1618 4.09457 17.1317 4.12452L17.0348 4.22145L16.0003 3.18694L16.0972 3.09002C16.1268 3.05969 16.1622 3.03565 16.2013 3.01933C16.2403 3.00302 16.2823 2.99477 16.3247 2.99507Z" fill="#117BD4"/>
<path d="M3.41622 3.63078H6.23688C6.32869 3.63078 6.41673 3.59431 6.48165 3.5294C6.54657 3.46448 6.58304 3.37644 6.58304 3.28463C6.58304 3.19282 6.54657 3.10478 6.48165 3.03986C6.41673 2.97495 6.32869 2.93848 6.23688 2.93848H3.41622C3.32442 2.93848 3.23637 2.97495 3.17145 3.03986C3.10654 3.10478 3.07007 3.19282 3.07007 3.28463C3.07007 3.37644 3.10654 3.46448 3.17145 3.5294C3.23637 3.59431 3.32442 3.63078 3.41622 3.63078Z" fill="#117BD4"/>
<path d="M9.91187 3.63078C10.0037 3.63078 10.0917 3.59431 10.1566 3.5294C10.2215 3.46448 10.258 3.37644 10.258 3.28463C10.258 3.19282 10.2215 3.10478 10.1566 3.03986C10.0917 2.97495 10.0037 2.93848 9.91187 2.93848H7.75582C7.66402 2.93848 7.57597 2.97495 7.51105 3.03986C7.44614 3.10478 7.40967 3.19282 7.40967 3.28463C7.40967 3.37644 7.44614 3.46448 7.51105 3.5294C7.57597 3.59431 7.66402 3.63078 7.75582 3.63078H9.91187Z" fill="#117BD4"/>
<path d="M3.41622 6.52727H4.74743C4.83924 6.52727 4.92728 6.4908 4.9922 6.42588C5.05711 6.36097 5.09358 6.27292 5.09358 6.18111C5.09358 6.08931 5.05711 6.00126 4.9922 5.93635C4.92728 5.87143 4.83924 5.83496 4.74743 5.83496H3.41622C3.32442 5.83496 3.23637 5.87143 3.17145 5.93635C3.10654 6.00126 3.07007 6.08931 3.07007 6.18111C3.07007 6.27292 3.10654 6.36097 3.17145 6.42588C3.23637 6.4908 3.32442 6.52727 3.41622 6.52727Z" fill="#117BD4"/>
<path d="M7.62739 9.08541C7.62739 8.99361 7.59092 8.90556 7.52601 8.84064C7.46109 8.77573 7.37304 8.73926 7.28124 8.73926H6.07662C5.98482 8.73926 5.89677 8.77573 5.83185 8.84064C5.76694 8.90556 5.73047 8.99361 5.73047 9.08541C5.73047 9.17722 5.76694 9.26526 5.83185 9.33018C5.89677 9.3951 5.98482 9.43157 6.07662 9.43157H7.28124C7.37304 9.43157 7.46109 9.3951 7.52601 9.33018C7.59092 9.26526 7.62739 9.17722 7.62739 9.08541Z" fill="#117BD4"/>
<path d="M3.41622 12.331H6.74326C6.83506 12.331 6.92311 12.2945 6.98802 12.2296C7.05294 12.1647 7.08941 12.0766 7.08941 11.9848C7.08941 11.893 7.05294 11.805 6.98802 11.7401C6.92311 11.6751 6.83506 11.6387 6.74326 11.6387H3.41622C3.32442 11.6387 3.23637 11.6751 3.17145 11.7401C3.10654 11.805 3.07007 11.893 3.07007 11.9848C3.07007 12.0766 3.10654 12.1647 3.17145 12.2296C3.23637 12.2945 3.32442 12.331 3.41622 12.331Z" fill="#117BD4"/>
<path d="M11.886 3.63078C11.9778 3.63078 12.0659 3.59431 12.1308 3.5294C12.1957 3.46448 12.2322 3.37644 12.2322 3.28463C12.2322 3.19282 12.1957 3.10478 12.1308 3.03986C12.0659 2.97495 11.9778 2.93848 11.886 2.93848H11.2214C11.1296 2.93848 11.0415 2.97495 10.9766 3.03986C10.9117 3.10478 10.8752 3.19282 10.8752 3.28463C10.8752 3.37644 10.9117 3.46448 10.9766 3.5294C11.0415 3.59431 11.1296 3.63078 11.2214 3.63078H11.886Z" fill="#117BD4"/>
<path d="M10.2582 6.186C10.2582 6.09419 10.2217 6.00615 10.1568 5.94123C10.0919 5.87631 10.0038 5.83984 9.91201 5.83984H6.15377C6.10831 5.83984 6.0633 5.8488 6.0213 5.86619C5.97931 5.88359 5.94115 5.90909 5.909 5.94123C5.87686 5.97337 5.85136 6.01153 5.83397 6.05353C5.81657 6.09553 5.80762 6.14054 5.80762 6.186C5.80762 6.23146 5.81657 6.27647 5.83397 6.31846C5.85136 6.36046 5.87686 6.39862 5.909 6.43077C5.94115 6.46291 5.97931 6.48841 6.0213 6.5058C6.0633 6.5232 6.10831 6.53215 6.15377 6.53215H9.91201C10.0038 6.53215 10.0919 6.49568 10.1568 6.43077C10.2217 6.36585 10.2582 6.2778 10.2582 6.186Z" fill="#117BD4"/>
<path d="M4.49409 8.73926H3.75826C3.66646 8.73926 3.57841 8.77573 3.5135 8.84064C3.44858 8.90556 3.41211 8.99361 3.41211 9.08541C3.41211 9.17722 3.44858 9.26526 3.5135 9.33018C3.57841 9.3951 3.66646 9.43157 3.75826 9.43157H4.50398C4.59578 9.43157 4.68383 9.3951 4.74875 9.33018C4.81366 9.26526 4.85013 9.17722 4.85013 9.08541C4.85013 8.99361 4.81366 8.90556 4.74875 8.84064C4.68383 8.77573 4.59578 8.73926 4.50398 8.73926H4.49409Z" fill="#117BD4"/>
</g>
<defs>
<clipPath id="clip0_7772_1128">
<rect width="18" height="18" fill="white"/>
</clipPath>
</defs>
</svg>
