<svg width="18" height="18" viewBox="0 0 18 18" fill="none" xmlns="http://www.w3.org/2000/svg">
<path d="M10.8563 3.0931C10.7138 3.04917 10.5597 3.06359 10.4279 3.1332C10.296 3.20282 10.1972 3.32192 10.1531 3.46435C10.109 3.60608 10.1226 3.75953 10.1911 3.89124C10.2596 4.02295 10.3774 4.12224 10.5188 4.16748C11.6726 4.53033 12.6583 5.2943 13.2976 6.32107C13.9369 7.34784 14.1874 8.56956 14.0039 9.76507C13.8203 10.9606 13.2148 12.0509 12.2969 12.8386C11.3791 13.6263 10.2095 14.0593 9.00001 14.0593C7.7905 14.0593 6.62095 13.6263 5.70308 12.8386C4.78522 12.0509 4.1797 10.9606 3.99615 9.76507C3.8126 8.56956 4.06313 7.34784 4.70241 6.32107C5.34169 5.2943 6.32746 4.53033 7.48126 4.16748C7.55382 4.14804 7.62174 4.11427 7.68103 4.06815C7.74032 4.02204 7.78977 3.96452 7.82647 3.89898C7.86317 3.83345 7.88637 3.76123 7.89471 3.68658C7.90305 3.61193 7.89635 3.53637 7.87501 3.46435C7.85347 3.39059 7.81704 3.32203 7.76797 3.26289C7.7189 3.20375 7.65824 3.15529 7.58972 3.12051C7.5212 3.08572 7.44628 3.06534 7.36958 3.06063C7.29288 3.05592 7.21603 3.06697 7.14376 3.0931C5.73356 3.53659 4.52873 4.47032 3.74739 5.72527C2.96605 6.98021 2.65984 8.47343 2.88418 9.9346C3.10852 11.3958 3.8486 12.7284 4.97043 13.6911C6.09226 14.6538 7.52171 15.1831 9.00001 15.1831C10.4783 15.1831 11.9078 14.6538 13.0296 13.6911C14.1514 12.7284 14.8915 11.3958 15.1158 9.9346C15.3402 8.47343 15.034 6.98021 14.2526 5.72527C13.4713 4.47032 12.2665 3.53659 10.8563 3.0931Z" fill="#117BD4"/>
<path d="M9 8.1875C9.14918 8.1875 9.29226 8.12824 9.39775 8.02275C9.50324 7.91726 9.5625 7.77418 9.5625 7.625V1.6875C9.5625 1.53832 9.50324 1.39524 9.39775 1.28975C9.29226 1.18426 9.14918 1.125 9 1.125C8.85082 1.125 8.70774 1.18426 8.60225 1.28975C8.49676 1.39524 8.4375 1.53832 8.4375 1.6875V7.625C8.4375 7.77418 8.49676 7.91726 8.60225 8.02275C8.70774 8.12824 8.85082 8.1875 9 8.1875Z" fill="#117BD4"/>
</svg>
