<svg width="29" height="29" viewBox="0 0 29 29" fill="none" xmlns="http://www.w3.org/2000/svg">
<path d="M5.44344 23.5566C5.10581 23.219 4.55941 23.219 4.22179 23.5566L0.556734 27.2216C0.219104 27.5593 0.219104 28.1058 0.556734 28.4434C0.894364 28.781 1.44076 28.781 1.77839 28.4434L5.44344 24.7783C5.78107 24.4407 5.78107 23.8942 5.44344 23.5566ZM6.66509 26L5.44344 27.2216C5.10581 27.5593 5.10581 28.1058 5.44344 28.4434C5.78107 28.781 6.32746 28.781 6.66509 28.4434L7.88674 27.2216C8.22437 26.884 8.22437 26.3376 7.88674 26C7.54911 25.6624 7.00272 25.6624 6.66509 26ZM1.77839 21.1133L0.556734 22.3349C0.219104 22.6726 0.219104 23.2191 0.556734 23.5567C0.894364 23.8943 1.44076 23.8943 1.77839 23.5567L3.00004 22.3349C3.33767 21.9973 3.33767 21.4509 3.00004 21.1133C2.66241 20.7757 2.11602 20.7757 1.77839 21.1133ZM28.8999 0.832643C28.845 0.453241 28.5468 0.154982 28.1674 0.100151C27.963 0.0708631 25.1811 -0.293558 21.5599 0.579324L28.4208 7.44024C29.2936 3.81898 28.9292 1.03699 28.8999 0.832643ZM12.1626 5.84226C9.77799 8.22689 6.45738 12.442 5.25782 15.2799C5.12117 15.6038 5.19454 15.9778 5.44334 16.2265L6.66499 17.4481L10.33 13.7831C11.677 12.4361 13.8692 12.4355 15.2167 13.7831C16.5643 15.1306 16.5637 17.3228 15.2167 18.6698L11.5517 22.3348L12.7733 23.5566C13.0221 23.8053 13.3961 23.8787 13.72 23.7421C16.5305 22.5542 20.7246 19.2703 23.1576 16.8374C25.5936 14.4013 27.0199 11.7552 27.8607 9.32371L19.676 1.13906C17.2448 1.97997 14.5987 3.40625 12.1626 5.84226ZM22.5469 6.45309C23.8945 7.80063 23.8939 9.99282 22.5469 11.3398C21.2 12.6868 19.0078 12.6873 17.6602 11.3398C16.3127 9.99224 16.3133 7.80005 17.6602 6.45309C19.0072 5.10612 21.1994 5.10554 22.5469 6.45309ZM21.3253 10.1181C21.9994 9.44403 21.9987 8.34827 21.3253 7.67474C20.6519 7.0013 19.556 7.00063 18.8819 7.67474C18.2078 8.34885 18.2085 9.4446 18.8819 10.1181C19.5554 10.7916 20.6512 10.7922 21.3253 10.1181ZM13.5188 25.5202C13.4877 26.1393 13.2453 26.7499 12.7734 27.2216C12.4358 27.5593 12.4358 28.1058 12.7734 28.4434C12.848 28.5179 14.6406 30.2413 17.6601 27.2216C19.774 25.1078 20.3954 22.9975 20.5167 21.4366C18.1919 23.2546 16.0293 24.6417 14.3929 25.3337C14.1088 25.4534 13.814 25.5046 13.5188 25.5202ZM1.77839 16.2265C2.25016 15.7547 2.86061 15.5124 3.47959 15.4812C3.49515 15.1866 3.54633 14.8922 3.66579 14.6087C4.35882 12.9695 5.74621 10.8061 7.56217 8.48347C6.00126 8.60495 3.89165 9.22662 1.77839 11.3398C-1.24117 14.3593 0.482121 16.152 0.556734 16.2265C0.894268 16.5642 1.44076 16.5642 1.77839 16.2265ZM13.9952 15.0048C13.3218 14.3313 12.2259 14.3307 11.5519 15.0048L6.66519 19.8915C5.99108 20.5656 5.99175 21.6614 6.66519 22.3348C7.33862 23.0084 8.43448 23.009 9.10858 22.3348L13.9953 17.4481C14.6692 16.7741 14.6686 15.6784 13.9952 15.0048Z" fill="url(#paint0_linear_7861_124)"/>
<defs>
<linearGradient id="paint0_linear_7861_124" x1="0.558289" y1="28.4341" x2="28.6527" y2="0.339729" gradientUnits="userSpaceOnUse">
<stop stop-color="#00C0FF"/>
<stop offset="1" stop-color="#5558FF"/>
</linearGradient>
</defs>
</svg>
