<svg width="71" height="11" viewBox="0 0 71 11" fill="none" xmlns="http://www.w3.org/2000/svg">
<path d="M6.05217 0.214173C5.98803 0.0830277 5.85568 0 5.71076 0C5.56585 0 5.4335 0.0830277 5.36936 0.214173L3.8108 3.40117L0.326015 3.91186C0.182597 3.93288 0.0634401 4.03425 0.0186501 4.17334C-0.0261399 4.31243 0.0112053 4.46513 0.114982 4.56721L2.63667 7.0478L2.04122 10.5508C2.01672 10.695 2.07543 10.8407 2.19267 10.9266C2.30992 11.0126 2.46535 11.0239 2.59362 10.9559L5.71076 9.30196L8.8279 10.9559C8.95617 11.0239 9.11161 11.0126 9.22885 10.9266C9.3461 10.8407 9.40481 10.695 9.38031 10.5508L8.78486 7.0478L11.3065 4.56721C11.4103 4.46513 11.4477 4.31243 11.4029 4.17334C11.3581 4.03425 11.2389 3.93288 11.0955 3.91186L7.61073 3.40117L6.05217 0.214173Z" fill="#FD8C04"/>
<path d="M20.9469 0.214173C20.8828 0.0830277 20.7505 0 20.6055 0C20.4606 0 20.3283 0.0830277 20.2641 0.214173L18.7056 3.40117L15.2208 3.91186C15.0774 3.93288 14.9582 4.03425 14.9134 4.17334C14.8686 4.31243 14.906 4.46513 15.0098 4.56721L17.5314 7.0478L16.936 10.5508C16.9115 10.695 16.9702 10.8407 17.0874 10.9266C17.2047 11.0126 17.3601 11.0239 17.4884 10.9559L20.6055 9.30196L23.7227 10.9559C23.851 11.0239 24.0064 11.0126 24.1236 10.9266C24.2409 10.8407 24.2996 10.695 24.2751 10.5508L23.6796 7.0478L26.2013 4.56721C26.3051 4.46513 26.3424 4.31243 26.2977 4.17334C26.2529 4.03425 26.1337 3.93288 25.9903 3.91186L22.5055 3.40117L20.9469 0.214173Z" fill="#FD8C04"/>
<path d="M35.8412 0.214173C35.7771 0.0830277 35.6447 0 35.4998 0C35.3549 0 35.2226 0.0830277 35.1584 0.214173L33.5999 3.40117L30.1151 3.91186C29.9717 3.93288 29.8525 4.03425 29.8077 4.17334C29.7629 4.31243 29.8003 4.46513 29.904 4.56721L32.4257 7.0478L31.8303 10.5508C31.8058 10.695 31.8645 10.8407 31.9817 10.9266C32.099 11.0126 32.2544 11.0239 32.3827 10.9559L35.4998 9.30196L38.617 10.9559C38.7452 11.0239 38.9007 11.0126 39.0179 10.9266C39.1352 10.8407 39.1939 10.695 39.1694 10.5508L38.5739 7.0478L41.0956 4.56721C41.1994 4.46513 41.2367 4.31243 41.1919 4.17334C41.1471 4.03425 41.028 3.93288 40.8846 3.91186L37.3998 3.40117L35.8412 0.214173Z" fill="#FD8C04"/>
<path d="M50.7338 0.214173C50.6697 0.0830277 50.5373 0 50.3924 0C50.2475 0 50.1151 0.0830277 50.051 0.214173L48.4924 3.40117L45.0077 3.91186C44.8642 3.93288 44.7451 4.03425 44.7003 4.17334C44.6555 4.31243 44.6928 4.46513 44.7966 4.56721L47.3183 7.0478L46.7229 10.5508C46.6984 10.695 46.7571 10.8407 46.8743 10.9266C46.9916 11.0126 47.147 11.0239 47.2753 10.9559L50.3924 9.30196L53.5095 10.9559C53.6378 11.0239 53.7933 11.0126 53.9105 10.9266C54.0277 10.8407 54.0865 10.695 54.062 10.5508L53.4665 7.0478L55.9882 4.56721C56.092 4.46513 56.1293 4.31243 56.0845 4.17334C56.0397 4.03425 55.9206 3.93288 55.7772 3.91186L52.2924 3.40117L50.7338 0.214173Z" fill="#FD8C04"/>
<path d="M65.6305 0.214173C65.5664 0.0830277 65.4341 0 65.2891 0C65.1442 0 65.0119 0.0830277 64.9477 0.214173L63.3892 3.40117L59.9044 3.91186C59.761 3.93288 59.6418 4.03425 59.597 4.17334C59.5522 4.31243 59.5896 4.46513 59.6934 4.56721L62.215 7.0478L61.6196 10.5508C61.5951 10.695 61.6538 10.8407 61.771 10.9266C61.8883 11.0126 62.0437 11.0239 62.172 10.9559L65.2891 9.30196L68.4063 10.9559C68.5345 11.0239 68.69 11.0126 68.8072 10.9266C68.9245 10.8407 68.9832 10.695 68.9587 10.5508L68.3632 7.0478L70.8849 4.56721C70.9887 4.46513 71.026 4.31243 70.9812 4.17334C70.9365 4.03425 70.8173 3.93288 70.6739 3.91186L67.1891 3.40117L65.6305 0.214173Z" fill="#E4E5E6"/>
</svg>
