<svg width="78" height="13" viewBox="0 0 78 13" fill="none" xmlns="http://www.w3.org/2000/svg">
<path d="M7.10893 0.251285C7.0336 0.097415 6.87814 0 6.70792 0C6.5377 0 6.38224 0.097415 6.3069 0.251285L4.4762 3.99054L0.38294 4.58972C0.21448 4.61438 0.0745173 4.73331 0.0219066 4.89651C-0.0307041 5.0597 0.0131619 5.23885 0.135059 5.35863L3.09706 8.26907L2.39763 12.3791C2.36885 12.5482 2.43782 12.7192 2.57554 12.82C2.71325 12.9209 2.89583 12.9342 3.0465 12.8543L6.70792 10.9138L10.3693 12.8543C10.52 12.9342 10.7026 12.9209 10.8403 12.82C10.978 12.7192 11.047 12.5482 11.0182 12.3791L10.3188 8.26907L13.2808 5.35863C13.4027 5.23885 13.4465 5.0597 13.3939 4.89651C13.3413 4.73331 13.2014 4.61438 13.0329 4.58972L8.93964 3.99054L7.10893 0.251285Z" fill="#FD8C04"/>
<path d="M23.2549 0.251285C23.1796 0.097415 23.0241 0 22.8539 0C22.6837 0 22.5282 0.097415 22.4529 0.251285L20.6222 3.99054L16.5289 4.58972C16.3605 4.61438 16.2205 4.73331 16.1679 4.89651C16.1153 5.0597 16.1592 5.23885 16.2811 5.35863L19.2431 8.26907L18.5436 12.3791C18.5148 12.5482 18.5838 12.7192 18.7215 12.82C18.8592 12.9209 19.0418 12.9342 19.1925 12.8543L22.8539 10.9138L26.5153 12.8543C26.666 12.9342 26.8486 12.9209 26.9863 12.82C27.124 12.7192 27.193 12.5482 27.1642 12.3791L26.4648 8.26907L29.4268 5.35863C29.5487 5.23885 29.5925 5.0597 29.5399 4.89651C29.4873 4.73331 29.3474 4.61438 29.1789 4.58972L25.0856 3.99054L23.2549 0.251285Z" fill="#FD8C04"/>
<path d="M39.4009 0.251285C39.3256 0.097415 39.1701 0 38.9999 0C38.8297 0 38.6742 0.097415 38.5989 0.251285L36.7682 3.99054L32.6749 4.58972C32.5065 4.61438 32.3665 4.73331 32.3139 4.89651C32.2613 5.0597 32.3052 5.23885 32.4271 5.35863L35.389 8.26907L34.6896 12.3791C34.6608 12.5482 34.7298 12.7192 34.8675 12.82C35.0052 12.9209 35.1878 12.9342 35.3385 12.8543L38.9999 10.9138L42.6613 12.8543C42.812 12.9342 42.9946 12.9209 43.1323 12.82C43.27 12.7192 43.339 12.5482 43.3102 12.3791L42.6108 8.26907L45.5728 5.35863C45.6947 5.23885 45.7385 5.0597 45.6859 4.89651C45.6333 4.73331 45.4933 4.61438 45.3249 4.58972L41.2316 3.99054L39.4009 0.251285Z" fill="#FD8C04"/>
<path d="M55.5472 0.251285C55.4718 0.097415 55.3164 0 55.1461 0C54.9759 0 54.8205 0.097415 54.7451 0.251285L52.9144 3.99054L48.8212 4.58972C48.6527 4.61438 48.5127 4.73331 48.4601 4.89651C48.4075 5.0597 48.4514 5.23885 48.5733 5.35863L51.5353 8.26907L50.8359 12.3791C50.8071 12.5482 50.8761 12.7192 51.0138 12.82C51.1515 12.9209 51.3341 12.9342 51.4847 12.8543L55.1461 10.9138L58.8076 12.8543C58.9582 12.9342 59.1408 12.9209 59.2785 12.82C59.4162 12.7192 59.4852 12.5482 59.4564 12.3791L58.757 8.26907L61.719 5.35863C61.8409 5.23885 61.8848 5.0597 61.8322 4.89651C61.7795 4.73331 61.6396 4.61438 61.4711 4.58972L57.3779 3.99054L55.5472 0.251285Z" fill="#FD8C04"/>
<path d="M71.6929 0.251285C71.6176 0.097415 71.4621 0 71.2919 0C71.1217 0 70.9662 0.097415 70.8909 0.251285L69.0602 3.99054L64.9669 4.58972C64.7985 4.61438 64.6585 4.73331 64.6059 4.89651C64.5533 5.0597 64.5971 5.23885 64.719 5.35863L67.681 8.26907L66.9816 12.3791C66.9528 12.5482 67.0218 12.7192 67.1595 12.82C67.2972 12.9209 67.4798 12.9342 67.6305 12.8543L71.2919 10.9138L74.9533 12.8543C75.104 12.9342 75.2866 12.9209 75.4243 12.82C75.562 12.7192 75.631 12.5482 75.6022 12.3791L74.9028 8.26907L77.8648 5.35863C77.9867 5.23885 78.0305 5.0597 77.9779 4.89651C77.9253 4.73331 77.7853 4.61438 77.6169 4.58972L73.5236 3.99054L71.6929 0.251285Z" fill="#E3E3E3"/>
<g clip-path="url(#clip0_7861_287)">
<path d="M71.7144 0.253113C71.6391 0.0981237 71.4836 0 71.3134 0C71.1432 0 70.9877 0.0981237 70.9124 0.253113L69.0817 4.01957L64.9884 4.62311C64.8199 4.64795 64.68 4.76775 64.6274 4.93213C64.5748 5.09651 64.6186 5.27697 64.7405 5.39761L67.7025 8.32922L67.0031 12.4692C66.9743 12.6395 67.0433 12.8117 67.181 12.9133C67.3187 13.0149 67.5013 13.0283 67.652 12.9478L71.3134 10.9932L74.9748 12.9478C75.1255 13.0283 75.3081 13.0149 75.4458 12.9133C75.5835 12.8117 75.6524 12.6395 75.6237 12.4692L74.9242 8.32922L77.8862 5.39761C78.0081 5.27697 78.052 5.09651 77.9994 4.93213C77.9468 4.76775 77.8068 4.64795 77.6384 4.62311L73.5451 4.01957L71.7144 0.253113Z" fill="#FD8C04"/>
</g>
<defs>
<clipPath id="clip0_7861_287">
<rect width="10.9192" height="12.8143" fill="white" transform="translate(64.6055)"/>
</clipPath>
</defs>
</svg>
