<svg xmlns="http://www.w3.org/2000/svg" width="26" height="26" viewBox="0 0 26 26" fill="none">
  <g clip-path="url(#clip0_9007_927)">
    <path d="M25.6506 10.1033L13.2039 5.16803C13.0724 5.11586 12.9276 5.11586 12.7961 5.16803L0.349319 10.1033C0.137069 10.1874 0 10.3894 0 10.6177C0 10.846 0.137069 11.0479 0.349319 11.132L12.7961 16.0671C12.8617 16.0933 12.9309 16.1064 13 16.1064C13.069 16.1064 13.1382 16.0933 13.2039 16.0671L22.8813 12.2302V13.708H22.8128C22.4274 13.708 22.114 14.0216 22.114 14.4068V15.4677L21.723 19.2164C21.706 19.3808 21.7595 19.5454 21.8702 19.6682C21.9807 19.791 22.139 19.8614 22.3042 19.8614H24.2198C24.3851 19.8614 24.5434 19.791 24.6539 19.6682C24.7645 19.5454 24.8181 19.3808 24.801 19.2164L24.4101 15.4677V14.4068C24.4101 14.0216 24.0966 13.708 23.7112 13.708H23.643V11.9281L25.6506 11.132C25.8629 11.0477 25.9999 10.8458 25.9999 10.6177C25.9999 10.3894 25.8629 10.1874 25.6506 10.1033ZM22.501 19.0997L22.838 15.8684H23.686L24.0231 19.0997H22.501ZM23.6483 15.1067H22.8755V14.4697H23.6483V15.1067ZM23.208 11.281L12.9169 10.2386C12.7074 10.2178 12.5209 10.3699 12.4997 10.5792C12.4785 10.7885 12.6308 10.9753 12.8401 10.9966L21.6701 11.891L13 15.3286L1.11877 10.6177L13 5.90654L24.8812 10.6177L23.208 11.281Z" fill="#1176CA"/>
    <path d="M20.6368 14.6713C20.6003 14.4642 20.4027 14.3259 20.1956 14.3622C19.9886 14.3985 19.8501 14.5961 19.8866 14.8032L20.3752 17.5823C20.3775 17.5962 20.3748 17.6091 20.3664 17.6206C20.3607 17.6285 20.35 17.6386 20.3319 17.6414C19.3381 17.7884 16.6364 18.3218 13.0244 20.0969C13.0095 20.1043 12.9919 20.1041 12.977 20.0969C9.36497 18.3218 6.66326 17.7882 5.66926 17.6414C5.65121 17.6386 5.64069 17.6285 5.63474 17.6206C5.62661 17.6091 5.62363 17.5962 5.62601 17.5821L6.10824 14.8407C6.14454 14.6334 6.00628 14.436 5.79899 14.3995C5.5919 14.3632 5.39433 14.5015 5.35783 14.7088L4.8758 17.4502C4.83752 17.6682 4.8877 17.8868 5.01704 18.0661C5.14657 18.2458 5.33859 18.3624 5.55778 18.3948C6.51627 18.5366 9.12535 19.0527 12.6412 20.7805C12.7536 20.8358 12.877 20.8634 13.0006 20.8634C13.1242 20.8634 13.2476 20.8358 13.3602 20.7805C16.8758 19.0527 19.4849 18.5366 20.4434 18.3948C20.6626 18.3624 20.8546 18.2456 20.9841 18.0661C21.1135 17.8868 21.1637 17.668 21.1254 17.4502L20.6368 14.6713Z" fill="#1176CA"/>
  </g>
  <defs>
    <clipPath id="clip0_9007_927">
      <rect width="26" height="26" fill="white"/>
    </clipPath>
  </defs>
</svg>