<svg width="43" height="43" viewBox="0 0 43 43" fill="none" xmlns="http://www.w3.org/2000/svg">
<g clip-path="url(#clip0_8200_57)">
<path d="M21.5 5.8457C20.7489 5.84659 20.0288 6.14535 19.4977 6.67644C18.9666 7.20753 18.6679 7.92759 18.667 8.67866V9.56285C18.667 10.3142 18.9655 11.0348 19.4967 11.5661C20.028 12.0973 20.7486 12.3958 21.5 12.3958C22.2513 12.3958 22.9719 12.0973 23.5032 11.5661C24.0344 11.0348 24.3329 10.3142 24.3329 9.56285V8.679C24.3321 7.92787 24.0334 7.20772 23.5023 6.67656C22.9712 6.1454 22.2511 5.84659 21.5 5.8457ZM23.1571 9.56285C23.1571 10.0024 22.9825 10.4239 22.6718 10.7347C22.361 11.0454 21.9395 11.22 21.5 11.22C21.0604 11.22 20.6389 11.0454 20.3281 10.7347C20.0174 10.4239 19.8428 10.0024 19.8428 9.56285V8.679C19.8428 8.23949 20.0174 7.81798 20.3281 7.5072C20.6389 7.19642 21.0604 7.02182 21.5 7.02182C21.9395 7.02182 22.361 7.19642 22.6718 7.5072C22.9825 7.81798 23.1571 8.23949 23.1571 8.679V9.56285Z" fill="#1176CA"/>
<path d="M35.5568 7.13135C34.9404 7.13215 34.3496 7.37737 33.9138 7.81324C33.478 8.2491 33.2328 8.84001 33.2321 9.45637V10.1403C33.2284 10.448 33.2858 10.7533 33.401 11.0386C33.5162 11.3239 33.6868 11.5836 33.9031 11.8024C34.1193 12.0213 34.3769 12.195 34.6608 12.3136C34.9447 12.4322 35.2493 12.4933 35.557 12.4933C35.8646 12.4933 36.1693 12.4322 36.4532 12.3136C36.7371 12.195 36.9946 12.0213 37.2108 11.8024C37.4271 11.5836 37.5978 11.3239 37.7129 11.0386C37.8281 10.7533 37.8855 10.448 37.8818 10.1403V9.45637C37.8811 8.83996 37.6359 8.24899 37.2 7.81312C36.7642 7.37724 36.1732 7.13206 35.5568 7.13135ZM36.706 10.1403C36.7057 10.445 36.5845 10.737 36.3692 10.9525C36.1538 11.1679 35.8618 11.2891 35.5571 11.2896C35.2525 11.2892 34.9604 11.168 34.745 10.9526C34.5296 10.7371 34.4085 10.445 34.4082 10.1403V9.45637C34.4056 9.30382 34.4334 9.15228 34.49 9.01058C34.5466 8.86888 34.6308 8.73987 34.7377 8.63106C34.8447 8.52226 34.9723 8.43584 35.113 8.37685C35.2537 8.31786 35.4047 8.28748 35.5573 8.28748C35.7099 8.28748 35.8609 8.31786 36.0016 8.37685C36.1423 8.43584 36.2699 8.52226 36.3768 8.63106C36.4838 8.73987 36.568 8.86888 36.6246 9.01058C36.6812 9.15228 36.709 9.30382 36.7064 9.45637L36.706 10.1403Z" fill="#1176CA"/>
<path d="M35.5572 4.66973C34.4375 4.67353 33.333 4.92884 32.3252 5.4168C31.3174 5.90476 30.4321 6.6129 29.7348 7.48892C28.9146 6.02554 27.7194 4.80714 26.272 3.95911C24.8246 3.11108 23.1774 2.66406 21.4999 2.66406C19.8224 2.66406 18.1752 3.11108 16.7278 3.95911C15.2804 4.80714 14.0852 6.02554 13.2651 7.48892C12.3051 6.27809 10.9921 5.39606 9.50818 4.96521C8.02427 4.53436 6.44304 4.57606 4.9839 5.08451C3.52475 5.59296 2.26003 6.54295 1.36521 7.80268C0.470392 9.06242 -0.0101584 10.5694 -0.00976538 12.1146C-0.00937233 13.6598 0.471944 15.1666 1.3674 16.4259C2.26286 17.6851 3.52807 18.6345 4.98747 19.1422C6.44688 19.6499 8.02812 19.6908 9.51182 19.2592C10.9955 18.8276 12.3081 17.9449 13.2674 16.7336C13.8908 17.8426 14.7315 18.8144 15.7393 19.5909C16.7471 20.3673 17.9012 20.9324 19.1326 21.2523V33.339L15.918 30.1244C15.4996 29.6979 14.9386 29.4408 14.3425 29.4021C13.7463 29.3635 13.1568 29.5462 12.6869 29.9151C12.4317 30.1248 12.2232 30.3856 12.0748 30.6808C11.9264 30.9759 11.8414 31.2988 11.8253 31.6288C11.8092 31.9587 11.8623 32.2884 11.9813 32.5966C12.1002 32.9048 12.2823 33.1847 12.5159 33.4182L18.3757 39.2783C18.7103 39.6146 19.1082 39.8812 19.5464 40.0627C19.9846 40.2442 20.4545 40.3371 20.9288 40.3359H30.9324C31.8898 40.3348 32.8078 39.954 33.4848 39.277C34.1618 38.5999 34.5426 37.682 34.5437 36.7245V31.316C34.5492 30.7186 34.3343 30.1401 33.9401 29.6912C33.5458 29.2424 32.9999 28.9547 32.4068 28.8831C31.912 28.8359 31.4147 28.9447 30.9848 29.1942V29.1324C30.9903 28.535 30.7754 27.9565 30.3812 27.5077C29.9869 27.0588 29.441 26.7711 28.8479 26.6995C28.3531 26.6522 27.856 26.761 27.4262 27.0106V26.6535C27.4316 26.0562 27.2166 25.4779 26.8223 25.0292C26.4281 24.5805 25.8823 24.2928 25.2893 24.2213C24.7944 24.1737 24.2971 24.2825 23.8673 24.5324V21.2523C25.0986 20.9324 26.2527 20.3673 27.2605 19.5909C28.2683 18.8144 29.109 17.8426 29.7324 16.7336C30.5154 17.7204 31.5361 18.4922 32.6989 18.9767C33.8617 19.4613 35.1285 19.6426 36.3805 19.5037C37.6325 19.3649 38.8288 18.9104 39.8571 18.1829C40.8855 17.4553 41.7123 16.4786 42.26 15.3442C42.8077 14.2098 43.0585 12.9549 42.9887 11.6971C42.9188 10.4394 42.5308 9.21994 41.8609 8.15312C41.191 7.08631 40.2612 6.20705 39.1587 5.59779C38.0561 4.98852 36.8169 4.66919 35.5572 4.66973ZM3.40431 16.8979C3.43018 16.2905 3.68941 15.7165 4.12798 15.2955C4.56655 14.8745 5.15064 14.639 5.75856 14.638H9.12701C9.73413 14.639 10.3175 14.8739 10.7559 15.2939C11.1944 15.7139 11.4541 16.2866 11.4813 16.8931C10.3544 17.8521 8.92331 18.3792 7.44365 18.38C5.96399 18.3809 4.53225 17.8555 3.40431 16.8979ZM12.4656 15.8457C12.2257 15.1508 11.7753 14.5479 11.1769 14.1208C10.5786 13.6936 9.86214 13.4634 9.12701 13.4622H5.75856C5.0233 13.4632 4.30661 13.6932 3.70806 14.1202C3.10952 14.5472 2.65885 15.1501 2.41867 15.845C1.72329 14.9143 1.30086 13.8082 1.19872 12.6509C1.09659 11.4936 1.31878 10.3306 1.84041 9.29249C2.36203 8.25433 3.16247 7.38195 4.15202 6.77313C5.14157 6.16431 6.28112 5.8431 7.44295 5.84551C8.48602 5.84946 9.51175 6.11268 10.4278 6.61148C11.3439 7.11027 12.1216 7.829 12.691 8.70299C11.8369 10.8935 11.8387 13.3252 12.696 15.5145C12.6228 15.6278 12.546 15.7384 12.4656 15.8457ZM24.257 25.6954C24.3805 25.5832 24.5263 25.4983 24.6848 25.4462C24.8434 25.3941 25.0111 25.376 25.1771 25.393C25.4797 25.4348 25.7564 25.5866 25.9543 25.8194C26.1521 26.0522 26.2573 26.3497 26.2497 26.6552V29.0561C26.2496 29.0818 26.2512 29.1075 26.2544 29.133C26.2745 29.2806 26.3498 29.415 26.4652 29.5093C26.5805 29.6035 26.7273 29.6504 26.8759 29.6407C27.0245 29.6309 27.1638 29.5652 27.2658 29.4567C27.3679 29.3482 27.4249 29.205 27.4255 29.0561C27.4255 28.8896 27.4604 28.725 27.528 28.5729C27.5955 28.4207 27.6942 28.2844 27.8176 28.1727C27.941 28.061 28.0865 27.9764 28.2446 27.9244C28.4028 27.8723 28.57 27.854 28.7357 27.8706C29.0383 27.9124 29.3149 28.0642 29.5127 28.297C29.7104 28.5298 29.8156 28.8273 29.808 29.1327V31.2397C29.808 31.3956 29.8699 31.5451 29.9802 31.6554C30.0904 31.7656 30.24 31.8276 30.3959 31.8276C30.5518 31.8276 30.7013 31.7656 30.8116 31.6554C30.9218 31.5451 30.9838 31.3956 30.9838 31.2397C30.9838 31.0732 31.0187 30.9086 31.0862 30.7564C31.1537 30.6043 31.2524 30.468 31.3758 30.3563C31.4993 30.2446 31.6448 30.16 31.8029 30.108C31.961 30.0559 32.1283 30.0376 32.2939 30.0542C32.5966 30.0959 32.8733 30.2477 33.0711 30.4805C33.269 30.7133 33.3742 31.0109 33.3666 31.3163V36.7249C33.3659 37.3706 33.109 37.9897 32.6524 38.4463C32.1958 38.9029 31.5768 39.1597 30.931 39.1604H20.9288C20.6088 39.1614 20.2918 39.0988 19.9962 38.9764C19.7005 38.854 19.4321 38.6741 19.2065 38.4472L13.3474 32.5861C13.2296 32.4684 13.1379 32.3272 13.078 32.1718C13.0182 32.0164 12.9916 31.8502 12.9999 31.6839C13.0082 31.5175 13.0513 31.3548 13.1264 31.2061C13.2014 31.0575 13.3068 30.9262 13.4357 30.8208C13.6407 30.6541 13.8975 30.5644 14.1617 30.5671C14.5091 30.5692 14.8415 30.7086 15.0865 30.9548L19.3049 35.1728C19.3871 35.2552 19.4918 35.3113 19.6059 35.334C19.7199 35.3568 19.8382 35.3452 19.9456 35.3007C20.0531 35.2562 20.1449 35.1808 20.2095 35.084C20.274 34.9873 20.3085 34.8736 20.3083 34.7573V19.4385C20.3083 19.272 20.3432 19.1074 20.4107 18.9552C20.4782 18.803 20.5769 18.6666 20.7003 18.5549C20.8237 18.4432 20.9692 18.3586 21.1274 18.3065C21.2855 18.2545 21.4528 18.2361 21.6185 18.2527C21.9218 18.2944 22.199 18.4467 22.397 18.6802C22.595 18.9137 22.6999 19.2121 22.6915 19.5182V26.5769C22.6915 26.7328 22.7534 26.8823 22.8637 26.9926C22.9739 27.1028 23.1235 27.1648 23.2794 27.1648C23.4353 27.1648 23.5848 27.1028 23.6951 26.9926C23.8053 26.8823 23.8673 26.7328 23.8673 26.5769C23.8674 26.4108 23.9022 26.2466 23.9694 26.0948C24.0366 25.9429 24.1341 25.8071 24.257 25.6954ZM21.7304 17.0843C21.4016 17.0521 21.0698 17.0891 20.7562 17.1929C20.4425 17.2967 20.1541 17.465 19.9095 17.6869C19.6648 17.9088 19.4693 18.1795 19.3355 18.4815C19.2017 18.7836 19.1325 19.1102 19.1326 19.4406V20.0416C18.0163 19.7075 16.9838 19.1397 16.1038 18.376C16.1178 17.531 16.463 16.7253 17.0651 16.1322C17.6671 15.5392 18.4779 15.2061 19.323 15.2047H23.6768C24.5219 15.2061 25.3327 15.5392 25.9347 16.1322C26.5368 16.7253 26.882 17.531 26.8961 18.376C26.0161 19.1398 24.9836 19.7077 23.8673 20.0419V19.5182C23.8731 18.9206 23.6584 18.3418 23.2641 17.8927C22.8698 17.4437 22.3237 17.1558 21.7304 17.0843ZM27.9257 17.3114C27.679 16.372 27.1285 15.5407 26.3599 14.9469C25.5914 14.3531 24.648 14.0303 23.6768 14.0286H19.323C18.3518 14.0303 17.4085 14.3531 16.6399 14.9469C15.8714 15.5407 15.3208 16.372 15.0741 17.3114C14.0899 16.0974 13.4696 14.6295 13.2852 13.0775C13.1008 11.5256 13.3599 9.95318 14.0323 8.54238C14.7047 7.13157 15.763 5.9401 17.0846 5.10595C18.4062 4.27179 19.9371 3.82908 21.4999 3.82908C23.0628 3.82908 24.5936 4.27179 25.9153 5.10595C27.2369 5.9401 28.2952 7.13157 28.9676 8.54238C29.64 9.95318 29.899 11.5256 29.7146 13.0775C29.5302 14.6295 28.91 16.0974 27.9257 17.3114ZM31.5186 16.8928C31.5458 16.2863 31.8056 15.7136 32.244 15.2937C32.6824 14.8737 33.2657 14.6388 33.8728 14.6377H37.2413C37.8492 14.6387 38.4333 14.8742 38.8719 15.2952C39.3104 15.7162 39.5697 16.2901 39.5955 16.8975C38.4676 17.8552 37.0359 18.3806 35.5562 18.3797C34.0765 18.3788 32.6454 17.8518 31.5186 16.8928ZM40.5812 15.845C40.3411 15.1503 39.8907 14.5475 39.2924 14.1204C38.6941 13.6933 37.9777 13.4632 37.2426 13.4619H33.8728C33.1377 13.4631 32.4212 13.6933 31.8229 14.1204C31.2246 14.5476 30.7742 15.1505 30.5343 15.8454C30.4539 15.7379 30.3771 15.6276 30.3038 15.5145C31.1612 13.3252 31.163 10.8935 30.3089 8.70299C31.0435 7.56876 32.1253 6.70266 33.3928 6.2341C34.6603 5.76553 36.0454 5.71966 37.3411 6.10333C38.6368 6.48701 39.7736 7.27963 40.5817 8.36277C41.3897 9.44591 41.8255 10.7614 41.8241 12.1128C41.824 13.4585 41.3879 14.7679 40.5812 15.845Z" fill="#1176CA"/>
<path d="M7.44261 7.13135C6.82625 7.13215 6.23537 7.37737 5.79957 7.81324C5.36377 8.2491 5.11863 8.84001 5.11792 9.45637V10.1403C5.11863 10.7567 5.36377 11.3476 5.79957 11.7835C6.23537 12.2193 6.82625 12.4646 7.44261 12.4654C8.05897 12.4646 8.64985 12.2193 9.08565 11.7835C9.52145 11.3476 9.76658 10.7567 9.7673 10.1403V9.45637C9.76658 8.84001 9.52145 8.2491 9.08565 7.81324C8.64985 7.37737 8.05897 7.13215 7.44261 7.13135ZM8.59185 10.1403C8.59446 10.2929 8.56666 10.4444 8.51009 10.5861C8.45351 10.7278 8.36929 10.8568 8.26233 10.9656C8.15537 11.0745 8.02782 11.1609 7.88711 11.2199C7.7464 11.2788 7.59535 11.3092 7.44278 11.3092C7.2902 11.3092 7.13915 11.2788 6.99845 11.2199C6.85774 11.1609 6.73018 11.0745 6.62322 10.9656C6.51626 10.8568 6.43204 10.7278 6.37546 10.5861C6.31889 10.4444 6.29109 10.2929 6.2937 10.1403V9.45637C6.29109 9.30382 6.31889 9.15228 6.37546 9.01058C6.43204 8.86888 6.51626 8.73987 6.62322 8.63106C6.73018 8.52226 6.85774 8.43584 6.99845 8.37685C7.13915 8.31786 7.2902 8.28748 7.44278 8.28748C7.59535 8.28748 7.7464 8.31786 7.88711 8.37685C8.02782 8.43584 8.15537 8.52226 8.26233 8.63106C8.36929 8.73987 8.45351 8.86888 8.51009 9.01058C8.56666 9.15228 8.59446 9.30382 8.59185 9.45637V10.1403Z" fill="#1176CA"/>
</g>
<g clip-path="url(#clip1_8200_57)">
<path fill-rule="evenodd" clip-rule="evenodd" d="M23.8673 21.2523V20.0419V19.5182C23.8731 18.9206 23.6584 18.3418 23.2641 17.8927C22.8698 17.4437 22.3237 17.1558 21.7304 17.0843C21.4016 17.0521 21.0698 17.0891 20.7562 17.1929C20.4425 17.2967 20.1541 17.465 19.9095 17.6869C19.6648 17.9088 19.4693 18.1795 19.3355 18.4815C19.2017 18.7836 19.1325 19.1102 19.1326 19.4406V20.0416V21.2523V33.339L15.918 30.1244C15.4996 29.6979 14.9386 29.4408 14.3425 29.4021C13.7463 29.3635 13.1568 29.5462 12.6869 29.9151C12.4317 30.1248 12.2232 30.3856 12.0748 30.6808C11.9264 30.9759 11.8414 31.2988 11.8253 31.6288C11.8092 31.9587 11.8623 32.2884 11.9813 32.5966C12.1002 32.9048 12.2823 33.1847 12.5159 33.4182L18.3757 39.2783C18.7103 39.6146 19.1082 39.8812 19.5464 40.0627C19.9846 40.2442 20.4545 40.3371 20.9288 40.3359H30.9324C31.8898 40.3348 32.8078 39.954 33.4848 39.277C34.1618 38.5999 34.5426 37.682 34.5437 36.7245V31.316C34.5492 30.7186 34.3343 30.1401 33.9401 29.6912C33.5458 29.2424 32.9999 28.9547 32.4068 28.8831C31.912 28.8359 31.4147 28.9447 30.9848 29.1942V29.1324C30.9903 28.535 30.7754 27.9565 30.3812 27.5077C29.9869 27.0588 29.441 26.7711 28.8479 26.6995C28.3531 26.6522 27.856 26.761 27.4262 27.0106V26.6535C27.4316 26.0562 27.2166 25.4779 26.8223 25.0292C26.4281 24.5805 25.8823 24.2928 25.2893 24.2213C24.7944 24.1737 24.2971 24.2825 23.8673 24.5324V21.5007V21.2523ZM24.6848 25.4462C24.5263 25.4983 24.3805 25.5832 24.257 25.6954C24.1341 25.8071 24.0366 25.9429 23.9694 26.0948C23.9022 26.2466 23.8674 26.4108 23.8673 26.5769C23.8673 26.7328 23.8053 26.8823 23.6951 26.9926C23.5848 27.1028 23.4353 27.1648 23.2794 27.1648C23.1235 27.1648 22.9739 27.1028 22.8637 26.9926C22.7534 26.8823 22.6915 26.7328 22.6915 26.5769V19.5182C22.6999 19.2121 22.595 18.9137 22.397 18.6802C22.199 18.4467 21.9218 18.2944 21.6185 18.2527C21.4528 18.2361 21.2855 18.2545 21.1274 18.3065C20.9692 18.3586 20.8237 18.4432 20.7003 18.5549C20.5769 18.6666 20.4782 18.803 20.4107 18.9552C20.3432 19.1074 20.3083 19.272 20.3083 19.4385V34.7573C20.3085 34.8736 20.274 34.9873 20.2095 35.084C20.1449 35.1808 20.0531 35.2562 19.9456 35.3007C19.8382 35.3452 19.7199 35.3568 19.6059 35.334C19.4918 35.3113 19.3871 35.2552 19.3049 35.1728L15.0865 30.9548C14.8415 30.7086 14.5091 30.5692 14.1617 30.5671C13.8975 30.5644 13.6407 30.6541 13.4357 30.8208C13.3068 30.9262 13.2014 31.0575 13.1264 31.2061C13.0513 31.3548 13.0082 31.5175 12.9999 31.6839C12.9916 31.8502 13.0182 32.0164 13.078 32.1718C13.1379 32.3272 13.2296 32.4684 13.3474 32.5861L19.2065 38.4472C19.4321 38.6741 19.7005 38.854 19.9962 38.9764C20.2918 39.0988 20.6088 39.1614 20.9288 39.1604H30.931C31.5768 39.1597 32.1958 38.9029 32.6524 38.4463C33.109 37.9897 33.3659 37.3706 33.3666 36.7249V31.3163C33.3742 31.0109 33.269 30.7133 33.0711 30.4805C32.8733 30.2477 32.5966 30.0959 32.2939 30.0542C32.1283 30.0376 31.961 30.0559 31.8029 30.108C31.6448 30.16 31.4993 30.2446 31.3758 30.3563C31.2524 30.468 31.1537 30.6043 31.0862 30.7564C31.0187 30.9086 30.9838 31.0732 30.9838 31.2397C30.9838 31.3956 30.9218 31.5451 30.8116 31.6554C30.7013 31.7656 30.5518 31.8276 30.3959 31.8276C30.24 31.8276 30.0904 31.7656 29.9802 31.6554C29.8699 31.5451 29.808 31.3956 29.808 31.2397V29.1327C29.8156 28.8273 29.7104 28.5298 29.5127 28.297C29.3149 28.0642 29.0383 27.9124 28.7357 27.8706C28.57 27.854 28.4028 27.8723 28.2446 27.9244C28.0865 27.9764 27.941 28.061 27.8176 28.1727C27.6942 28.2844 27.5955 28.4207 27.528 28.5729C27.4604 28.725 27.4255 28.8896 27.4255 29.0561C27.4249 29.205 27.3679 29.3482 27.2658 29.4567C27.1638 29.5652 27.0245 29.6309 26.8759 29.6407C26.7273 29.6504 26.5805 29.6035 26.4652 29.5093C26.3498 29.415 26.2745 29.2806 26.2544 29.133C26.2512 29.1075 26.2496 29.0818 26.2497 29.0561V26.6552C26.2573 26.3497 26.1521 26.0522 25.9543 25.8194C25.7564 25.5866 25.4797 25.4348 25.1771 25.393C25.0111 25.376 24.8434 25.3941 24.6848 25.4462Z" fill="#4CAEFF"/>
</g>
<defs>
<clipPath id="clip0_8200_57">
<rect width="43" height="43" fill="white"/>
</clipPath>
<clipPath id="clip1_8200_57">
<rect width="43" height="43" fill="white"/>
</clipPath>
</defs>
</svg>
