<svg width="45" height="45" viewBox="0 0 45 45" fill="none" xmlns="http://www.w3.org/2000/svg">
<g clip-path="url(#clip0_9029_6495)">
<path d="M32.7871 39.4659H5.13624C4.27172 39.4659 3.50672 38.9466 3.18718 38.1432C2.86358 37.3288 3.0581 36.4492 3.69492 35.8478L6.06057 33.6153V19.1215C6.06057 12.0054 11.7365 6.11127 18.7131 5.98219C21.54 5.93729 24.2281 6.76999 26.5008 8.4108C26.7594 8.59765 26.8176 8.95871 26.631 9.21755C26.4439 9.47593 26.0836 9.53483 25.8243 9.34775C23.7558 7.85408 21.3096 7.08095 18.7343 7.1376C12.383 7.25494 7.21597 12.6309 7.21597 19.1215V33.8644C7.21597 34.0235 7.15052 34.1754 7.03476 34.2846L4.48813 36.6879C4.19861 36.9612 4.11353 37.3457 4.26089 37.7163C4.40893 38.0884 4.73614 38.3104 5.13624 38.3104H32.7871C33.1873 38.3104 33.5145 38.0884 33.6625 37.7163C33.8099 37.3457 33.7248 36.9612 33.435 36.6877L30.8886 34.2846C30.7729 34.1754 30.7074 34.0235 30.7074 33.8644V27.403C30.7074 27.0839 30.966 26.8252 31.2851 26.8252C31.6042 26.8252 31.8628 27.0839 31.8628 27.403V33.6153L34.2282 35.8475C34.8653 36.4492 35.0598 37.3288 34.7362 38.1432C34.4167 38.9466 33.6517 39.4659 32.7871 39.4659Z" fill="#1176CA" stroke="#1176CA" stroke-width="0.5"/>
<path d="M31.2859 34.4425H25.3336C25.0145 34.4425 24.7559 34.1839 24.7559 33.8648C24.7559 33.5457 25.0145 33.2871 25.3336 33.2871H31.2859C31.605 33.2871 31.8636 33.5457 31.8636 33.8648C31.8636 34.1839 31.605 34.4425 31.2859 34.4425Z" fill="#1176CA" stroke="#1176CA" stroke-width="0.5"/>
<path d="M21.7767 34.4425H18.9625C18.6434 34.4425 18.3848 34.1839 18.3848 33.8648C18.3848 33.5457 18.6434 33.2871 18.9625 33.2871H21.7767C22.0958 33.2871 22.3544 33.5457 22.3544 33.8648C22.3544 34.1839 22.0958 34.4425 21.7767 34.4425Z" fill="#1176CA" stroke="#1176CA" stroke-width="0.5"/>
<path d="M10.3123 16.5206C10.2484 16.5206 10.1836 16.51 10.12 16.4874C9.81918 16.3813 9.66121 16.0512 9.7675 15.7504C10.8159 12.7791 13.1969 10.457 16.1367 9.53874C16.4406 9.44464 16.7651 9.61343 16.8604 9.91808C16.9554 10.2225 16.7857 10.5466 16.481 10.6418C13.8875 11.4519 11.7849 13.5052 10.857 16.1349C10.7733 16.3721 10.5503 16.5206 10.3123 16.5206Z" fill="#1176CA" stroke="#1176CA" stroke-width="0.5"/>
<path d="M9.76715 20.5997C9.44806 20.5997 9.18945 20.3411 9.18945 20.022V19.123C9.18945 19.044 9.19036 18.9655 9.19216 18.887C9.19871 18.5681 9.46002 18.2989 9.78182 18.3217C10.1009 18.3284 10.3539 18.5925 10.3471 18.9113L10.3449 20.022C10.3449 20.3411 10.0862 20.5997 9.76715 20.5997Z" fill="#1176CA" stroke="#1176CA" stroke-width="0.5"/>
<path d="M19.0705 43.8747H18.8541C16.3584 43.8747 14.3281 41.8444 14.3281 39.3488V38.8902C14.3281 38.5711 14.5867 38.3125 14.9058 38.3125H23.0187C23.3378 38.3125 23.5964 38.5711 23.5964 38.8902V39.3488C23.5964 41.8444 21.5661 43.8747 19.0705 43.8747ZM15.4856 39.4679C15.5487 41.2714 17.0354 42.7193 18.8541 42.7193H19.0705C20.8891 42.7193 22.3758 41.2714 22.439 39.4679H15.4856Z" fill="#1176CA" stroke="#1176CA" stroke-width="0.5"/>
<path d="M11.4554 4.99164C11.427 4.99164 11.3983 4.98961 11.3695 4.98533C11.054 4.93816 10.8362 4.64435 10.8834 4.32864L11.2878 1.61751C11.3349 1.3018 11.6296 1.08426 11.9444 1.13143C12.2599 1.17859 12.4777 1.4724 12.4305 1.78811L12.0261 4.49924C11.9833 4.78584 11.7368 4.99164 11.4554 4.99164Z" fill="#1176CA" stroke="#1176CA" stroke-width="0.5"/>
<path d="M6.22424 6.71894C6.07643 6.71894 5.92862 6.66252 5.81579 6.54969L3.87823 4.61213C3.65257 4.38647 3.65257 4.02066 3.87823 3.79523C4.1039 3.56956 4.46993 3.56956 4.69514 3.79523L6.63269 5.73278C6.85836 5.95822 6.85836 6.32402 6.63269 6.54969C6.52009 6.66252 6.37205 6.71894 6.22424 6.71894Z" fill="#1176CA" stroke="#1176CA" stroke-width="0.5"/>
<path d="M1.78612 12.3536C1.50471 12.3536 1.25829 12.1477 1.21541 11.8612C1.16825 11.5457 1.38579 11.2516 1.70149 11.2045L4.41263 10.7999C4.72923 10.7507 5.02215 10.9705 5.06931 11.2859C5.11647 11.6016 4.89871 11.8955 4.58323 11.9426L1.87209 12.3472C1.84321 12.3515 1.81455 12.3536 1.78612 12.3536Z" fill="#1176CA" stroke="#1176CA" stroke-width="0.5"/>
<path d="M32.7871 39.4659H5.13624C4.27172 39.4659 3.50672 38.9466 3.18718 38.1432C2.86358 37.3288 3.0581 36.4492 3.69492 35.8478L6.06057 33.6153V19.1215C6.06057 12.0054 11.7365 6.11127 18.7131 5.98219C21.54 5.93729 24.2281 6.76999 26.5008 8.4108C26.7594 8.59765 26.8176 8.95871 26.631 9.21755C26.4439 9.47593 26.0836 9.53483 25.8243 9.34775C23.7558 7.85408 21.3096 7.08095 18.7343 7.1376C12.383 7.25494 7.21597 12.6309 7.21597 19.1215V33.8644C7.21597 34.0235 7.15052 34.1754 7.03476 34.2846L4.48813 36.6879C4.19861 36.9612 4.11353 37.3457 4.26089 37.7163C4.40893 38.0884 4.73614 38.3104 5.13624 38.3104H32.7871C33.1873 38.3104 33.5145 38.0884 33.6625 37.7163C33.8099 37.3457 33.7248 36.9612 33.435 36.6877L30.8886 34.2846C30.7729 34.1754 30.7074 34.0235 30.7074 33.8644V27.403C30.7074 27.0839 30.966 26.8252 31.2851 26.8252C31.6042 26.8252 31.8628 27.0839 31.8628 27.403V33.6153L34.2282 35.8475C34.8653 36.4492 35.0598 37.3288 34.7362 38.1432C34.4167 38.9466 33.6517 39.4659 32.7871 39.4659Z" fill="#1176CA" stroke="#1176CA" stroke-width="0.5"/>
<path d="M31.2859 34.4425H25.3336C25.0145 34.4425 24.7559 34.1839 24.7559 33.8648C24.7559 33.5457 25.0145 33.2871 25.3336 33.2871H31.2859C31.605 33.2871 31.8636 33.5457 31.8636 33.8648C31.8636 34.1839 31.605 34.4425 31.2859 34.4425Z" fill="#1176CA" stroke="#1176CA" stroke-width="0.5"/>
<path d="M21.7767 34.4425H18.9625C18.6434 34.4425 18.3848 34.1839 18.3848 33.8648C18.3848 33.5457 18.6434 33.2871 18.9625 33.2871H21.7767C22.0958 33.2871 22.3544 33.5457 22.3544 33.8648C22.3544 34.1839 22.0958 34.4425 21.7767 34.4425Z" fill="#1176CA" stroke="#1176CA" stroke-width="0.5"/>
<path d="M10.3123 16.5206C10.2484 16.5206 10.1836 16.51 10.12 16.4874C9.81918 16.3813 9.66121 16.0512 9.7675 15.7504C10.8159 12.7791 13.1969 10.457 16.1367 9.53874C16.4406 9.44464 16.7651 9.61343 16.8604 9.91808C16.9554 10.2225 16.7857 10.5466 16.481 10.6418C13.8875 11.4519 11.7849 13.5052 10.857 16.1349C10.7733 16.3721 10.5503 16.5206 10.3123 16.5206Z" fill="#1176CA" stroke="#1176CA" stroke-width="0.5"/>
<path d="M9.76715 20.5997C9.44806 20.5997 9.18945 20.3411 9.18945 20.022V19.123C9.18945 19.044 9.19036 18.9655 9.19216 18.887C9.19871 18.5681 9.46002 18.2989 9.78182 18.3217C10.1009 18.3284 10.3539 18.5925 10.3471 18.9113L10.3449 20.022C10.3449 20.3411 10.0862 20.5997 9.76715 20.5997Z" fill="#1176CA" stroke="#1176CA" stroke-width="0.5"/>
<path d="M19.0705 43.8747H18.8541C16.3584 43.8747 14.3281 41.8444 14.3281 39.3488V38.8902C14.3281 38.5711 14.5867 38.3125 14.9058 38.3125H23.0187C23.3378 38.3125 23.5964 38.5711 23.5964 38.8902V39.3488C23.5964 41.8444 21.5661 43.8747 19.0705 43.8747ZM15.4856 39.4679C15.5487 41.2714 17.0354 42.7193 18.8541 42.7193H19.0705C20.8891 42.7193 22.3758 41.2714 22.439 39.4679H15.4856Z" fill="#1176CA" stroke="#1176CA" stroke-width="0.5"/>
<path d="M11.4554 4.99164C11.427 4.99164 11.3983 4.98961 11.3695 4.98533C11.054 4.93816 10.8362 4.64435 10.8834 4.32864L11.2878 1.61751C11.3349 1.3018 11.6296 1.08426 11.9444 1.13143C12.2599 1.17859 12.4777 1.4724 12.4305 1.78811L12.0261 4.49924C11.9833 4.78584 11.7368 4.99164 11.4554 4.99164Z" fill="#1176CA" stroke="#1176CA" stroke-width="0.5"/>
<path d="M6.22424 6.71894C6.07643 6.71894 5.92862 6.66252 5.81579 6.54969L3.87823 4.61213C3.65257 4.38647 3.65257 4.02066 3.87823 3.79523C4.1039 3.56956 4.46993 3.56956 4.69514 3.79523L6.63269 5.73278C6.85836 5.95822 6.85836 6.32402 6.63269 6.54969C6.52009 6.66252 6.37205 6.71894 6.22424 6.71894Z" fill="#1176CA" stroke="#1176CA" stroke-width="0.5"/>
<path d="M1.78612 12.3536C1.50471 12.3536 1.25829 12.1477 1.21541 11.8612C1.16825 11.5457 1.38579 11.2516 1.70149 11.2045L4.41263 10.7999C4.72923 10.7507 5.02215 10.9705 5.06931 11.2859C5.11647 11.6016 4.89871 11.8955 4.58323 11.9426L1.87209 12.3472C1.84321 12.3515 1.81455 12.3536 1.78612 12.3536Z" fill="#1176CA" stroke="#1176CA" stroke-width="0.5"/>
<path d="M32.7405 28.0815C26.6469 28.0815 21.6895 23.1241 21.6895 17.0305C21.6895 10.9369 26.6469 5.97949 32.7405 5.97949C38.8339 5.97949 43.7913 10.9369 43.7913 17.0305C43.7913 23.1241 38.8339 28.0815 32.7405 28.0815ZM32.7405 7.13489C27.2839 7.13489 22.8449 11.5739 22.8449 17.0305C22.8449 22.4871 27.2839 26.9261 32.7405 26.9261C38.1968 26.9261 42.6359 22.4871 42.6359 17.0305C42.6359 11.5739 38.1968 7.13489 32.7405 7.13489Z" fill="#4CAEFF"/>
<path d="M32.7405 28.0815C26.6469 28.0815 21.6895 23.1241 21.6895 17.0305C21.6895 10.9369 26.6469 5.97949 32.7405 5.97949C38.8339 5.97949 43.7913 10.9369 43.7913 17.0305C43.7913 23.1241 38.8339 28.0815 32.7405 28.0815ZM32.7405 7.13489C27.2839 7.13489 22.8449 11.5739 22.8449 17.0305C22.8449 22.4871 27.2839 26.9261 32.7405 26.9261C38.1968 26.9261 42.6359 22.4871 42.6359 17.0305C42.6359 11.5739 38.1968 7.13489 32.7405 7.13489Z" fill="#4CAEFF" stroke="#4CAEFF" stroke-width="0.5"/>
<path d="M31.0067 21.4207C30.8589 21.4207 30.7111 21.3643 30.5982 21.2515L26.4388 17.092C26.2131 16.8663 26.2131 16.5008 26.4388 16.2751C26.6644 16.0494 27.03 16.0494 27.2557 16.2751L31.0067 20.0261L38.2239 12.8089C38.4496 12.5832 38.8151 12.5832 39.0408 12.8089C39.2665 13.0346 39.2665 13.4001 39.0408 13.6258L31.4151 21.2515C31.3023 21.3643 31.1545 21.4207 31.0067 21.4207Z" fill="#4CAEFF" stroke="#4CAEFF" stroke-width="0.5"/>
</g>
<defs>
<clipPath id="clip0_9029_6495">
<rect width="45" height="45" fill="white"/>
</clipPath>
</defs>
</svg>
