<svg width="45" height="45" viewBox="0 0 45 45" fill="none" xmlns="http://www.w3.org/2000/svg">
<path d="M33.306 19.6143V11.4767C33.306 11.2438 33.1983 11.0286 33.0461 10.8583L23.9227 1.27787C23.7524 1.09875 23.5103 1 23.2685 1H8.80351C6.13307 1 4 3.17769 4 5.84846V33.2008C4 35.8716 6.13307 38.0135 8.80351 38.0135H20.2215C22.3811 41.5982 26.3067 44 30.7785 44C37.5718 44 43.1193 38.4793 43.1193 31.6773C43.1285 25.7354 38.8624 20.7704 33.306 19.6143ZM24.1648 4.14581L30.2858 10.5893H26.3156C25.1326 10.5893 24.1648 9.61266 24.1648 8.42966V4.14581ZM8.80351 36.2209C7.12776 36.2209 5.79254 34.8765 5.79254 33.2008V5.84846C5.79254 4.16352 7.12776 2.79254 8.80351 2.79254H22.3722V8.42966C22.3722 10.6074 24.1379 12.3819 26.3156 12.3819H31.5134V19.3811C31.2447 19.3722 31.0295 19.3453 30.7966 19.3453C27.6688 19.3453 24.792 20.5464 22.6232 22.4285H11.2414C10.7483 22.4285 10.3451 22.8317 10.3451 23.3244C10.3451 23.8175 10.7483 24.2207 11.2414 24.2207H20.9563C20.3199 25.117 19.791 26.0132 19.379 26.9991H11.2414C10.7483 26.9991 10.3451 27.4023 10.3451 27.8953C10.3451 28.3881 10.7483 28.7916 11.2414 28.7916H18.7963C18.5723 29.6879 18.4558 30.6826 18.4558 31.6773C18.4558 33.2904 18.7694 34.8857 19.334 36.2301H8.80351V36.2209ZM30.7877 42.2166C24.9803 42.2166 20.2572 37.4935 20.2572 31.6861C20.2572 25.8787 24.9712 21.1556 30.7877 21.1556C36.604 21.1556 41.3179 25.8787 41.3179 31.6861C41.3179 37.4935 36.5951 42.2166 30.7877 42.2166Z" fill="#1176CA" stroke="#F7FAFE" stroke-width="0.3"/>
<path d="M11.242 19.73H20.3205C20.8136 19.73 21.2168 19.3265 21.2168 18.8338C21.2168 18.3407 20.8136 17.9375 20.3205 17.9375H11.242C10.7489 17.9375 10.3457 18.3407 10.3457 18.8338C10.3457 19.3265 10.7489 19.73 11.242 19.73Z" fill="#1176CA" stroke="#F7FBFE" stroke-width="0.3"/>
<path d="M35.3768 31.4977L31.6936 35.4679V25.6814C31.6936 25.1883 31.2901 24.7852 30.7973 24.7852C30.3042 24.7852 29.9011 25.1883 29.9011 25.6814V35.4679L26.1907 31.4977C25.8501 31.1394 25.2767 31.1125 24.9181 31.4531C24.5595 31.7936 24.5326 32.3582 24.8735 32.7168L30.1163 38.3539C30.2865 38.533 30.5195 38.6406 30.7704 38.6406C31.0214 38.6406 31.2543 38.533 31.4246 38.3539L36.6766 32.7168C37.0171 32.3582 36.999 31.7847 36.6405 31.4531C36.273 31.1125 35.7176 31.1394 35.3768 31.4977Z" fill="#4CAEFF" stroke="#F7FAFE" stroke-width="0.3"/>
</svg>
