<svg width="45" height="45" viewBox="0 0 45 45" fill="none" xmlns="http://www.w3.org/2000/svg">
<g clip-path="url(#clip0_9029_7904)">
<path d="M36.5504 9.16719C37.7378 9.16719 38.7004 8.2046 38.7004 7.01719C38.7004 5.82978 37.7378 4.86719 36.5504 4.86719C35.363 4.86719 34.4004 5.82978 34.4004 7.01719C34.4004 8.2046 35.363 9.16719 36.5504 9.16719ZM36.5504 6.30052C36.9462 6.30052 37.2671 6.62138 37.2671 7.01719C37.2671 7.41299 36.9462 7.73385 36.5504 7.73385C36.1546 7.73385 35.8337 7.41299 35.8337 7.01719C35.8337 6.62138 36.1546 6.30052 36.5504 6.30052Z" fill="#1176CA"/>
<path d="M36.5504 24.217C37.7378 24.217 38.7004 23.2544 38.7004 22.067C38.7004 20.8796 37.7378 19.917 36.5504 19.917C35.363 19.917 34.4004 20.8796 34.4004 22.067C34.4004 23.2544 35.363 24.217 36.5504 24.217ZM36.5504 21.3503C36.9462 21.3503 37.2671 21.6712 37.2671 22.067C37.2671 22.4628 36.9462 22.7837 36.5504 22.7837C36.1546 22.7837 35.8337 22.4628 35.8337 22.067C35.8337 21.6712 36.1546 21.3503 36.5504 21.3503Z" fill="#1176CA"/>
<path d="M36.5504 39.2668C37.7378 39.2668 38.7004 38.3042 38.7004 37.1168C38.7004 35.9294 37.7378 34.9668 36.5504 34.9668C35.363 34.9668 34.4004 35.9294 34.4004 37.1168C34.4004 38.3042 35.363 39.2668 36.5504 39.2668ZM36.5504 36.4001C36.9462 36.4001 37.2671 36.721 37.2671 37.1168C37.2671 37.5126 36.9462 37.8335 36.5504 37.8335C36.1546 37.8335 35.8337 37.5126 35.8337 37.1168C35.8337 36.721 36.1546 36.4001 36.5504 36.4001Z" fill="#1176CA"/>
<path fill-rule="evenodd" clip-rule="evenodd" d="M30.1431 9.16682H27.9508C27.555 9.16682 27.2341 9.48768 27.2341 9.88349V22.7835H30.1431C30.5234 19.3819 33.4945 16.8697 36.912 17.0601C40.3295 17.2506 43.0031 20.0774 43.0031 23.5002C43.0031 26.923 40.3295 29.7497 36.912 29.9402C33.4945 30.1306 30.5234 27.6184 30.1431 24.2168H27.2341V37.1168C27.2341 37.5126 27.555 37.8335 27.9508 37.8335H30.1431C30.5234 34.4319 33.4945 31.9197 36.912 32.1101C40.3295 32.3006 43.0031 35.1274 43.0031 38.5502C43.0031 41.973 40.3295 44.7997 36.912 44.9902C33.4945 45.1806 30.5234 42.6684 30.1431 39.2668H27.9508C26.7634 39.2668 25.8008 38.3042 25.8008 37.1168V24.2168V22.7835V9.88349C25.8008 8.69608 26.7634 7.73349 27.9508 7.73349H30.1431C30.5234 4.33188 33.4945 1.8197 36.912 2.01015C40.3295 2.2006 43.0031 5.02735 43.0031 8.45015C43.0031 11.873 40.3295 14.6997 36.912 14.8902C33.4945 15.0806 30.5234 12.5684 30.1431 9.16682ZM36.5508 12.035C35.7851 12.035 35.078 12.4445 34.6968 13.1085C35.8862 13.5882 37.2153 13.5882 38.4048 13.1085C38.0236 12.4445 37.3164 12.035 36.5508 12.035ZM41.292 6.81C40.5943 4.78789 38.6899 3.43164 36.5508 3.43349C34.4117 3.43164 32.5073 4.78789 31.8096 6.81C31.1119 8.83212 31.7747 11.0742 33.4598 12.3918C34.0938 11.2828 35.2733 10.5984 36.5508 10.5984C37.8282 10.5984 39.0078 11.2828 39.6418 12.3918C41.3269 11.0742 41.9897 8.83212 41.292 6.81ZM36.5508 42.135C35.7851 42.135 35.078 42.5445 34.6968 43.2085C35.8862 43.6882 37.2153 43.6882 38.4048 43.2085C38.0236 42.5445 37.3164 42.135 36.5508 42.135ZM41.2926 36.9097C40.5947 34.8875 38.69 33.5313 36.5508 33.5335C34.4116 33.5313 32.5069 34.8875 31.809 36.9097C31.1111 38.9319 31.7739 41.1741 33.4591 42.4918C34.0938 41.3833 35.2734 40.6993 36.5508 40.6993C37.8282 40.6993 39.0078 41.3833 39.6425 42.4918C41.3277 41.1741 41.9905 38.9319 41.2926 36.9097ZM36.5508 27.085C35.7851 27.085 35.078 27.4945 34.6968 28.1585C35.8862 28.6382 37.2153 28.6382 38.4048 28.1585C38.0236 27.4945 37.3164 27.085 36.5508 27.085ZM41.2926 21.8597C40.5947 19.8375 38.69 18.4813 36.5508 18.4835C34.4116 18.4813 32.5069 19.8375 31.809 21.8597C31.1111 23.8819 31.7739 26.1241 33.4591 27.4418C34.0938 26.3333 35.2734 25.6493 36.5508 25.6493C37.8282 25.6493 39.0078 26.3333 39.6425 27.4418C41.3277 26.1241 41.9905 23.8819 41.2926 21.8597Z" fill="#1176CA" stroke="#1176CA" stroke-width="0.2"/>
</g>
<g clip-path="url(#clip1_9029_7904)">
<path fill-rule="evenodd" clip-rule="evenodd" d="M25.7994 24.2163V22.7829H23.6494V13.4663C23.6494 11.8831 22.366 10.5996 20.7827 10.5996C19.1995 10.5996 17.9161 11.8831 17.9161 13.4663V14.4216L9.88941 17.7663H5.73274C2.71891 17.7841 0.23344 20.1324 0.0446279 23.1403C-0.144184 26.1483 2.02814 28.7889 5.01607 29.1835V33.5329C5.01607 35.1162 6.29952 36.3996 7.88274 36.3996C9.46596 36.3996 10.7494 35.1162 10.7494 33.5329V29.5913L17.9161 32.5776V33.5329C17.9161 35.1162 19.1995 36.3996 20.7827 36.3996C22.366 36.3996 23.6494 35.1162 23.6494 33.5329V24.2163H25.7994ZM5.73274 19.1996C3.3589 19.202 1.43511 21.1258 1.43274 23.4996C1.43511 25.8735 3.3589 27.7972 5.73274 27.7996H9.31608V19.1996H5.73274ZM6.44941 33.5329C6.44941 34.3246 7.09113 34.9663 7.88274 34.9663C8.67435 34.9663 9.31608 34.3246 9.31608 33.5329V29.2329H6.44941V33.5329ZM10.7494 18.961V28.0383L17.9161 31.0246V15.9746L10.7494 18.961ZM20.7827 34.9663C21.5743 34.9663 22.2161 34.3246 22.2161 33.5329V13.4663C22.2161 12.6747 21.5743 12.0329 20.7827 12.0329C19.9911 12.0329 19.3494 12.6747 19.3494 13.4663V33.5329C19.3494 34.3246 19.9911 34.9663 20.7827 34.9663Z" fill="#4CAEFF" stroke="#4CAEFF" stroke-width="0.2"/>
</g>
<defs>
<clipPath id="clip0_9029_7904">
<rect width="43" height="43" fill="white" transform="translate(0 2)"/>
</clipPath>
<clipPath id="clip1_9029_7904">
<rect width="43" height="43" fill="white" transform="translate(0 2)"/>
</clipPath>
</defs>
</svg>
