<svg width="130" height="21" viewBox="0 0 130 21" fill="none" xmlns="http://www.w3.org/2000/svg">
<g clip-path="url(#clip0_7944_135)">
<path d="M37.6562 15.4723L34.5661 11.6254C36.5501 11.1762 37.9372 9.92361 37.9372 7.84757V7.81211C37.9372 6.77076 37.5435 5.8443 36.8784 5.20045C36.0284 4.37852 34.6975 3.88672 33.0369 3.88672H28.1347C27.6531 3.88672 27.238 4.28406 27.238 4.77183V16.0816C27.238 16.5695 27.6531 16.9669 28.1347 16.9669C28.6372 16.9669 29.0493 16.5684 29.0493 16.0816V11.9543H32.5612L36.1975 16.5228C36.3972 16.7803 36.6668 16.9669 37.022 16.9669C37.4806 16.9669 37.9372 16.5655 37.9372 16.0989C37.9372 15.8623 37.833 15.6651 37.6562 15.4723ZM36.1072 7.86631L36.1074 7.90239H36.1072C36.1072 9.44235 34.7637 10.3471 32.9055 10.3471H29.0493V5.52996H32.9242C34.9215 5.52996 36.1072 6.39603 36.1072 7.86631Z" fill="black"/>
<path d="M40.5774 15.9913C40.5774 16.4785 40.9924 16.876 41.4741 16.876H49.7069C50.1738 16.876 50.5469 16.5146 50.5469 16.063C50.5469 15.6121 50.174 15.2507 49.7069 15.2507H42.3888V11.1395H48.7715C49.2386 11.1395 49.6121 10.7787 49.6121 10.3271C49.6121 9.89807 49.2386 9.5142 48.7715 9.5142H42.3888V5.51262H49.6136C50.0797 5.51262 50.4542 5.15121 50.4542 4.69967C50.4542 4.24813 50.0797 3.88672 49.6136 3.88672H41.4741C40.9926 3.88672 40.5774 4.28406 40.5774 4.77198V15.9913Z" fill="black"/>
<path d="M58.1622 17.0212L58.2604 17.0209C58.7505 17.0126 59.0559 16.7457 59.2496 16.3284L64.3235 4.99444C64.3686 4.88543 64.3915 4.77642 64.3915 4.64557C64.3915 4.19977 64.0018 3.79639 63.4949 3.79639C63.0931 3.79639 62.7729 4.08967 62.616 4.39178C62.6142 4.39518 62.6126 4.39859 62.611 4.40215L58.2189 14.5764L53.8441 4.43823C53.6882 4.07124 53.3702 3.79639 52.9236 3.79639C52.4183 3.79639 52.0076 4.2202 52.0076 4.66291C52.0076 4.81761 52.0319 4.92755 52.0996 5.05917L57.1479 16.325C57.3239 16.7493 57.6571 17.0212 58.1622 17.0212Z" fill="black"/>
<path d="M66.7883 4.6815V16.0815C66.7883 16.5695 67.2034 16.9668 67.685 16.9668C68.1875 16.9668 68.5996 16.5684 68.5996 16.0815V4.6815C68.5996 4.19466 68.1875 3.79639 67.685 3.79639C67.2034 3.79639 66.7883 4.19357 66.7883 4.6815Z" fill="black"/>
<path d="M80.9724 3.88703L80.9506 3.88672H72.8106C72.3297 3.88672 71.9146 4.28406 71.9146 4.77198V15.9913C71.9146 16.4785 72.3296 16.876 72.8106 16.876C72.8104 16.876 81.0439 16.876 81.0439 16.876C81.5102 16.876 81.8839 16.5146 81.8839 16.063C81.8839 15.6121 81.5102 15.2507 81.0439 15.2507H73.7258V11.1395H80.1079C80.5757 11.1395 80.9485 10.7787 80.9485 10.3271C80.9485 9.89807 80.5757 9.5142 80.1079 9.5142H73.7258V5.51262H80.9506C81.4167 5.51262 81.7912 5.15121 81.7912 4.69967C81.7912 4.25526 81.4282 3.89802 80.9724 3.88703Z" fill="black"/>
<path d="M97.0192 17.0388H97.1729C97.6094 17.0299 97.9233 16.7406 98.0768 16.3154C98.0762 16.3168 102.268 5.06198 102.268 5.06198C102.269 5.06043 102.269 5.05904 102.27 5.05749C102.311 4.93361 102.371 4.78728 102.371 4.6634C102.371 4.21976 101.938 3.79688 101.456 3.79688C101.025 3.79688 100.723 4.07281 100.587 4.46768C100.587 4.46597 97.1193 14.1122 97.1193 14.1122L93.849 4.46799C93.7136 4.07405 93.4135 3.79688 92.9616 3.79688V3.79827L92.8675 3.79688C92.3924 3.79688 92.1149 4.07405 91.9795 4.46799L88.7093 14.1119L85.26 4.50143C85.1263 4.11385 84.7835 3.79688 84.3352 3.79688C83.8329 3.79688 83.4019 4.21775 83.4019 4.68152C83.4019 4.80741 83.4412 4.93315 83.4845 5.05827L87.677 16.3157C87.8312 16.7614 88.1452 17.0305 88.5809 17.0388H88.7346C89.1705 17.0299 89.4851 16.7404 89.6379 16.3151L92.868 7.03196L96.116 16.3154C96.2695 16.7406 96.5842 17.0299 97.0192 17.0388Z" fill="black"/>
<path d="M111.822 13.4215V13.4576C111.822 14.6265 110.716 15.45 109.07 15.45C107.452 15.45 106.25 14.9757 105.05 13.9924L105.047 13.9895C104.928 13.8774 104.719 13.7846 104.486 13.7846C104.002 13.7846 103.607 14.1617 103.607 14.6518C103.607 14.9423 103.748 15.1876 103.955 15.3246C105.444 16.4672 107.067 17.0572 109.014 17.0572C111.719 17.0572 113.652 15.5719 113.652 13.3131V13.2763C113.652 11.2694 112.28 10.1745 109.255 9.53654C109.255 9.53654 109.254 9.53638 109.254 9.53638C106.506 8.96654 105.831 8.37239 105.831 7.23271V7.19663C105.831 6.13252 106.863 5.31322 108.452 5.31322C109.633 5.31322 110.669 5.63066 111.741 6.38616C111.741 6.38647 111.741 6.38662 111.742 6.38693C111.901 6.49781 112.062 6.54364 112.269 6.54364C112.754 6.54364 113.147 6.16457 113.147 5.69461C113.147 5.36401 112.945 5.11982 112.762 4.9868C112.761 4.98618 112.76 4.98541 112.759 4.98479C111.533 4.13297 110.252 3.70605 108.489 3.70605C105.896 3.70605 104.019 5.24958 104.019 7.32361L104.185 7.48496C104.185 7.48496 104.019 7.32469 104.019 7.32469V7.3583L104.185 7.52042L104.019 7.35922C104.019 9.51455 105.428 10.517 108.548 11.1725C108.548 11.1725 108.549 11.1727 108.549 11.1727C111.167 11.707 111.822 12.3018 111.822 13.4215Z" fill="black"/>
<path d="M115.714 15.1862L115.698 15.186C115.346 15.186 115.095 15.4298 115.095 15.7584V15.9609C115.095 16.289 115.346 16.5436 115.698 16.5436C116.037 16.5436 116.29 16.2896 116.29 15.9609C116.29 16.0145 116.245 16.0577 116.189 16.0577C116.189 16.0577 116.29 16.0468 116.29 15.9564V15.7584C116.29 15.4343 116.045 15.1936 115.714 15.1862ZM115.204 16.0563C115.199 16.0574 115.195 16.0577 115.195 16.0577C115.198 16.0577 115.201 16.0577 115.204 16.0574L115.204 16.0563Z" fill="black"/>
<path d="M117.849 11.5079V16.0521C117.849 16.3292 118.071 16.5437 118.356 16.5437C118.644 16.5437 118.855 16.3298 118.855 16.0521V11.5079C118.855 11.2299 118.633 11.0162 118.346 11.0162C118.072 11.0162 117.849 11.2429 117.849 11.5079ZM117.775 9.6556C117.775 9.95275 118.027 10.1672 118.346 10.1672C118.678 10.1672 118.927 9.95213 118.927 9.6556V9.5246C118.927 9.21537 118.678 9.01221 118.346 9.01221C118.027 9.01221 117.775 9.21475 117.775 9.5246L117.775 9.6556Z" fill="black"/>
<path fill-rule="evenodd" clip-rule="evenodd" d="M126.034 13.7874L126.034 13.7654C126.034 12.2346 124.799 10.9556 123.12 10.9556C121.429 10.9556 120.193 12.2557 120.193 13.7854L120.214 13.8055L120.193 13.786V13.8055C120.193 15.3357 121.418 16.6146 123.098 16.6146C124.788 16.6146 126.033 15.3162 126.034 13.7874ZM125.008 13.8055V13.7854C125.008 12.7167 124.184 11.837 123.098 11.837C121.983 11.837 121.22 12.7163 121.22 13.7654V13.7854C121.22 14.854 122.034 15.7224 123.12 15.7224C124.233 15.7224 125.008 14.8545 125.008 13.8055Z" fill="black"/>
<path fill-rule="evenodd" clip-rule="evenodd" d="M18.1302 5.04248L17.2177 5.48511C18.9966 6.87428 19.8662 8.66867 20.0278 10.84C19.8927 15.0311 17.848 17.7248 14.3355 18.88C10.2775 20.0624 7.70604 19.1057 5.21778 16.6539L5.06104 17.5964L6.07269 18.6158C9.59167 22.1623 15.426 22.2787 19.0932 18.8756C22.7604 15.4723 22.8808 9.83022 19.3616 6.28359L18.1302 5.04248Z" fill="#FEEF7C"/>
<path fill-rule="evenodd" clip-rule="evenodd" d="M4.56034 17.0711L5.17169 16.5547C2.63166 13.0737 2.52523 7.97758 6.00135 5.172C8.57807 3.09236 13.6908 2.01442 17.7812 5.49729L18.0865 4.97791L17.0897 3.97322C13.5706 0.426766 7.73642 0.310314 4.06904 3.71361C0.401854 7.11674 0.281618 12.759 3.8006 16.3054L4.56034 17.0711Z" fill="#5CD3CB"/>
<path d="M2.36255 11.3201C2.36255 16.2477 6.49379 20.2429 11.5891 20.2429C16.6853 20.2429 20.8164 16.2477 20.8164 11.3201C20.8164 6.39171 16.6853 2.39648 11.5891 2.39648C6.49379 2.39648 2.36255 6.39171 2.36255 11.3201ZM8.78463 12.934C8.88162 12.6371 8.77373 12.3136 8.51582 12.1272C7.83291 11.634 6.48653 10.6616 5.58185 10.0082C5.45126 9.91392 5.39787 9.74934 5.44927 9.59969C5.50067 9.45004 5.64524 9.34922 5.80834 9.34922H9.31479C9.64117 9.34922 9.93068 9.14688 10.0333 8.84741C10.3097 8.03997 10.8591 6.43527 11.2235 5.37156C11.2747 5.22209 11.4191 5.12092 11.582 5.12074C11.7449 5.12057 11.8899 5.22121 11.9415 5.37051C12.3096 6.43509 12.8656 8.04242 13.1447 8.84951C13.2481 9.14793 13.537 9.34922 13.8625 9.34922C14.692 9.34922 16.2899 9.34922 17.3778 9.34922C17.5404 9.34922 17.685 9.44969 17.7366 9.59899C17.7881 9.74829 17.7355 9.91269 17.6054 10.0074C16.7035 10.6645 15.3564 11.6456 14.6749 12.142C14.4185 12.3287 14.3118 12.6517 14.4086 12.9475C14.6722 13.7523 15.2007 15.3663 15.5578 16.4565C15.6076 16.6088 15.5494 16.775 15.4141 16.8667C15.2788 16.9584 15.0977 16.9547 14.9666 16.8574C14.0605 16.1846 12.7366 15.2019 12.0433 14.6874C11.7707 14.4851 11.3915 14.4856 11.1196 14.689C10.4331 15.2022 9.12717 16.1788 8.22867 16.8507C8.0979 16.9485 7.91646 16.9529 7.78079 16.8612C7.64511 16.7697 7.58663 16.6035 7.63639 16.4511C7.99347 15.3577 8.52127 13.7409 8.78463 12.934Z" fill="black"/>
</g>
<defs>
<clipPath id="clip0_7944_135">
<rect width="130" height="21" fill="white"/>
</clipPath>
</defs>
</svg>
