<svg width="137" height="21" viewBox="0 0 137 21" fill="none" xmlns="http://www.w3.org/2000/svg">
<g clip-path="url(#clip0_7880_465)">
<path d="M55.5688 5.59606L55.7716 5.49561L55.9226 5.64629L55.5688 5.59606Z" fill="#919191"/>
<path d="M58.9044 3.52844C59.7393 0.931528 62.0852 -0.630587 64.6933 0.377784C66.0334 0.906421 66.0085 3.22712 64.1633 2.69716C62.949 2.3443 62.2921 2.99981 61.7366 3.8562C61.282 4.56192 60.9533 5.46986 62.4695 5.36941C63.0767 5.41964 63.355 5.89805 63.38 6.52844C63.3943 6.78124 63.3102 7.02978 63.1452 7.2223C62.9802 7.41482 62.7473 7.53644 62.4944 7.56194C62.088 7.5835 61.7028 7.75119 61.4105 8.03395C61.1181 8.31677 60.9383 8.69551 60.9043 9.10026C60.2973 12.8562 59.7115 16.6333 59.1349 20.3945C58.7551 20.7648 58.2504 20.9807 57.7195 20.9998C57.1907 20.9714 56.6891 20.757 56.304 20.3945C56.5228 17.0028 56.9451 13.6271 57.5684 10.2857C57.644 9.85749 57.4928 8.31918 57.0382 8.09189C56.4564 7.78924 56.1277 8.22406 55.8242 8.59675C55.192 9.4029 54.585 9.37776 53.9528 8.62183C52.6381 8.16854 51.6997 8.87426 51.4758 10.5632C51.299 11.698 51.1727 12.8324 51.0967 13.9663C51.1181 14.2429 51.0734 14.5207 50.9664 14.7767C50.8593 15.0328 50.6929 15.2599 50.4808 15.4394C50.2687 15.6189 50.0169 15.7457 49.7462 15.8094C49.4754 15.8731 49.1934 15.872 48.9231 15.806C47.558 15.6738 47.9371 14.5954 47.9874 13.7892C48.1902 11.5703 48.2154 8.74739 48.6196 6.55357C48.9483 4.86457 49.4029 4.46149 51.0463 4.91479C52.9429 6.37643 53.0185 6.25093 54.0045 5.41964C54.2576 5.19232 54.9402 5.46985 55.42 5.55179C57.5684 5.97998 58.2509 5.55179 58.9083 3.53505L58.9044 3.52844Z" fill="#2D96EE"/>
<path d="M81.8875 5.31902C83.08 5.39435 83.0495 9.93267 81.1794 8.26879C80.5449 7.86176 79.7789 7.71081 79.0373 7.84657C78.2956 7.98227 77.633 8.39455 77.1846 8.99966C76.098 10.2102 75.9454 12.075 77.7918 12.7807C78.8031 13.1838 81.4578 12.1199 82.2157 12.9129C82.4691 13.2155 82.3938 13.719 81.7611 14.9547C81.3569 15.7358 78.6773 16.2909 76.2755 15.2071C70.9412 12.0565 73.8991 4.82079 81.8887 5.32431L81.8875 5.31902Z" fill="#2D96EE"/>
<path d="M32.6896 11.2685C32.2979 11.8053 31.7877 12.2452 31.1986 12.5544C26.4711 14.5712 28.8978 7.235 30.5916 7.41208C31.1749 7.44093 31.7257 7.68842 32.1336 8.10508C32.5416 8.52169 32.7766 9.0767 32.7916 9.65877C32.8169 10.1874 32.7161 10.7425 32.691 11.2724L32.6896 11.2685ZM31.0714 5.36894C29.909 5.5011 29.7818 4.81387 29.6559 3.83061C29.5697 3.48655 29.3618 3.18509 29.0705 2.98165C28.7792 2.77821 28.424 2.68647 28.0703 2.72329C27.7165 2.7601 27.388 2.92301 27.1451 3.18204C26.9021 3.44108 26.7612 3.77886 26.7481 4.13326C26.5465 5.90086 25.7743 7.55532 24.548 8.84737C24.1385 9.27695 23.7899 9.76025 23.5116 10.2839C23.419 10.421 23.3812 10.5876 23.4057 10.751C23.4303 10.9145 23.5153 11.0627 23.6441 11.1668C23.71 11.2154 23.7858 11.249 23.8661 11.2653C23.9465 11.2815 24.0294 11.2799 24.1091 11.2606C24.1887 11.2413 24.2631 11.2047 24.3271 11.1536C24.3911 11.1025 24.4429 11.0379 24.4791 10.9645C24.6567 10.6368 25.212 9.88082 25.6719 10.0064C26.43 10.2588 24.9894 16.9896 24.7866 18.3006C24.483 20.5473 24.5586 20.4945 26.7839 20.4945C29.6413 20.4694 26.2776 15.5531 29.4889 15.5531C30.8121 15.6696 32.1362 15.3405 33.2497 14.6185C34.3632 13.8964 35.202 12.823 35.6319 11.5698C36.3145 8.31737 35.9102 5.3425 31.0806 5.36761L31.0714 5.36894Z" fill="#2D96EE"/>
<path d="M45.1775 6.20155C40.6262 2.99935 34.2818 8.84471 37.8205 14.1429C38.6514 15.0955 39.7847 15.7352 41.0313 15.9555C42.2779 16.1758 43.5626 15.9633 44.6712 15.3535C45.3034 14.9002 46.1887 14.2699 45.7831 13.3619C45.3538 12.3786 44.3425 12.6813 43.6347 13.0341C40.9297 14.8236 38.2499 11.143 40.6766 10.8152C42.0066 10.7312 43.3402 10.7228 44.6712 10.7901C47.6042 10.7148 46.7918 7.33678 45.1775 6.20155ZM41.9661 7.43721C42.3969 7.44018 42.8107 7.60515 43.1247 7.89921C43.4388 8.19321 43.6299 8.59462 43.66 9.02314H40.3227C40.3332 8.59666 40.5113 8.1913 40.8188 7.89458C41.1262 7.59792 41.5383 7.43363 41.9661 7.43721Z" fill="#2D96EE"/>
<path d="M87.9796 15.7316C82.6958 14.5211 86.9938 8.67304 85.2247 7.61445C84.8199 7.36202 83.202 8.19467 83.5308 6.32858C83.6815 5.47086 84.3641 5.42064 84.9463 5.47086C86.6146 5.69817 86.2354 4.63958 86.3867 3.80698C86.4047 3.57599 86.4932 3.356 86.6401 3.17659C87.0692 2.64795 87.8538 2.87394 88.4597 2.82372C89.3446 2.72328 89.3446 3.37879 89.3446 4.03429C88.6821 5.64795 89.8509 5.47086 90.5589 5.49596C91.1661 5.52108 91.4445 5.74839 91.4445 6.35365V6.37879C91.4501 6.61757 91.389 6.85327 91.2682 7.05938C90.762 7.81538 90.181 7.33695 89.524 7.48759C88.791 7.63823 88.4373 8.26867 88.2592 9.05104C87.3239 13.8405 88.7138 13.4625 89.7251 12.8572C90.6611 12.3286 90.9394 12.3788 90.8118 13.7651C90.8062 14.1272 90.7103 14.4822 90.534 14.7986C90.2974 15.074 90.0072 15.2988 89.6815 15.4591C89.3552 15.6195 89.0003 15.7122 88.6372 15.7316C88.4168 15.7573 88.1944 15.7573 87.9746 15.7316H87.9796Z" fill="#2D96EE"/>
<path d="M71.4705 6.20155C66.9196 2.99935 60.5751 8.84471 64.1136 14.1429C64.94 15.0941 66.069 15.7333 67.3113 15.9537C68.5543 16.1741 69.8346 15.9622 70.9393 15.3535C71.6019 14.9002 72.4569 14.2698 72.0764 13.3619C71.6473 12.3786 70.6105 12.6813 69.928 13.0341C67.2229 14.8236 64.5177 11.143 66.97 10.8152C68.2996 10.7311 69.6335 10.7227 70.9642 10.7901C73.8973 10.7148 73.0852 7.33678 71.4705 6.20155ZM68.2597 7.43721C68.6888 7.43678 69.1016 7.60132 69.4124 7.89668C69.7231 8.19204 69.9081 8.59549 69.928 9.02314H66.5908C66.6151 8.59697 66.8007 8.19587 67.1108 7.90137C67.4209 7.60688 67.8313 7.44092 68.2597 7.43721Z" fill="#2D96EE"/>
<path d="M16.7879 12.2028L14.9934 7.31296H14.0577C13.9251 7.31296 13.8549 7.23761 13.8801 7.06053L13.9556 6.17773C13.9808 6.02706 14.0311 5.92529 14.1836 5.92529H17.2147C17.3657 5.92529 17.4426 6.00062 17.4174 6.17773L17.3419 7.06053C17.3419 7.21117 17.2663 7.31296 17.1139 7.31296H16.4314L18.4287 12.557H18.4538L20.6274 7.31296H19.8693C19.7368 7.31296 19.6917 7.23761 19.6917 7.06053L19.7673 6.17773C19.7924 6.02706 19.8428 5.92529 19.9953 5.92529H23.1297C23.2622 5.92529 23.3073 6.00062 23.3073 6.17773L23.2569 7.06053C23.2318 7.21117 23.1814 7.31296 23.0289 7.31296H22.0933L17.8203 19.2072H18.4525C18.585 19.2072 18.6301 19.2825 18.6301 19.4345L18.5797 20.2658C18.5546 20.4429 18.5042 20.5183 18.3518 20.5183H15.3432C15.2107 20.5183 15.1656 20.4429 15.1656 20.2658L15.2412 19.4345C15.2412 19.2839 15.3168 19.2072 15.444 19.2072H16.43C16.9098 17.6213 17.8203 14.8209 17.7952 14.6187C17.7952 14.5936 16.9098 12.5042 16.7839 12.1989L16.7879 12.2028Z" fill="#919191"/>
<path d="M12.7671 15.9333H9.9401C9.80758 15.9333 9.7625 15.8579 9.7625 15.6808V15.5302V15.0253V14.8747C9.7625 14.6976 9.83809 14.6222 9.9401 14.6222H10.6478V10.0086C10.6892 9.4017 10.5486 8.79622 10.2436 8.26937C10.1074 8.07005 9.92154 7.9094 9.70427 7.80329C9.48706 7.69718 9.24588 7.64925 9.00445 7.66407C8.59588 7.68069 8.20107 7.81601 7.86859 8.05338C7.53612 8.2908 7.28043 8.61988 7.13303 9.00023C7.1844 9.25735 7.20969 9.51905 7.20857 9.78124V14.6712H8.04221C8.17473 14.6712 8.21981 14.7464 8.21981 14.9235V15.7548C8.21981 15.9055 8.14428 15.9821 8.04221 15.9821H5.18211C5.04958 15.9821 4.97933 15.9068 4.97933 15.7548V14.9249C4.97933 14.7742 5.05488 14.6725 5.18211 14.6725H5.99057V10.0086C6.02504 9.39904 5.87547 8.79326 5.56117 8.26937C5.4208 8.07425 5.23417 7.91688 5.01792 7.81126C4.80169 7.70564 4.56258 7.65506 4.32196 7.66407C3.98256 7.64073 3.6449 7.72942 3.36108 7.91651C3.18532 8.04053 3.02436 8.18419 2.88131 8.34472C2.77913 8.4546 2.68605 8.57263 2.60298 8.69758C2.47675 8.89473 2.37485 9.1064 2.29948 9.32795V14.6473H3.05758C3.19011 14.6473 3.23517 14.7227 3.23517 14.8997V15.731C3.23517 15.8817 3.18481 15.9583 3.05758 15.9583H0.202778C0.0702436 15.9583 0 15.883 0 15.731V14.8997C0 14.7491 0.0755449 14.6473 0.202778 14.6473H1.03642V7.66407H0.202778C0.0702436 7.66407 0 7.58878 0 7.41164V6.58035C0 6.40327 0.0755449 6.32798 0.202778 6.32798H1.66861C1.73779 6.31797 1.80837 6.32477 1.87436 6.34781C1.94034 6.37078 1.99979 6.40932 2.04766 6.46009C2.13116 6.59573 2.16663 6.75533 2.14839 6.91345L2.12321 7.89668H2.17357C2.35592 7.3962 2.68993 6.96477 3.12927 6.66213C3.56862 6.35948 4.09152 6.20062 4.62546 6.20766C5.12826 6.18493 5.62409 6.33181 6.03289 6.62457C6.44168 6.91734 6.73959 7.33894 6.87858 7.82133C7.08072 7.34524 7.41799 6.9384 7.84885 6.65076C8.27972 6.36318 8.78544 6.20729 9.30392 6.20241C9.67089 6.18425 10.0366 6.25775 10.3678 6.4163C10.699 6.57491 10.9853 6.81345 11.2005 7.11035C11.6903 7.83825 11.9298 8.70506 11.8831 9.58038V14.572H12.7936C12.9261 14.572 12.9712 14.6473 12.9712 14.8245V14.9751V15.48V15.6306C12.9712 15.8077 12.9208 15.883 12.7936 15.883H12.7684L12.7671 15.9333Z" fill="#919191"/>
<path d="M101.605 15.6051H100.669C100.442 15.6051 100.315 15.454 100.291 15.1519L98.9508 7.86591H98.9259L97.5858 15.1519C97.5602 15.4545 97.4083 15.6051 97.1816 15.6051H96.2712C96.0943 15.6051 95.9424 15.4545 95.8919 15.1519L93.8176 6.37781H92.9321C92.8001 6.37781 92.7546 6.30252 92.7546 6.1254V5.19369C92.7546 5.0166 92.8306 4.94126 92.9321 4.94126H95.8907C96.0233 4.94126 96.0682 5.0166 96.0682 5.19369V6.12672C96.0682 6.30382 95.9928 6.37917 95.8907 6.37917H95.1577L96.7258 13.7153H96.7507L98.1412 6.37917H97.5341C97.4014 6.37917 97.3566 6.30382 97.3566 6.12672V5.19369C97.3566 5.0166 97.4319 4.94126 97.5341 4.94126H100.317C100.45 4.94126 100.493 5.0166 100.493 5.19369V6.12672C100.493 6.30382 100.418 6.37917 100.317 6.37917H99.7099L101.1 13.7153H101.126L102.693 6.37917H101.986C101.853 6.37917 101.783 6.30382 101.783 6.12672V5.19369C101.783 5.0166 101.858 4.94126 101.986 4.94126H104.893C105.026 4.94126 105.071 5.0166 105.071 5.19369V6.12672C105.071 6.30382 105.021 6.37917 104.893 6.37917H104.033L101.96 15.1519C101.91 15.4545 101.783 15.6051 101.607 15.6051H101.605ZM112.325 14.2188C112.016 14.6855 111.595 15.0682 111.101 15.3323C110.607 15.5966 110.055 15.7339 109.494 15.732C108.937 15.7335 108.388 15.5958 107.898 15.3315C107.408 15.0672 106.992 14.6846 106.688 14.2188C105.905 13.0333 105.524 11.6281 105.601 10.2104C105.524 8.79695 105.914 7.39718 106.713 6.22717C107.023 5.76898 107.441 5.39366 107.93 5.1342C108.42 4.87472 108.965 4.73903 109.52 4.73903C110.074 4.73903 110.619 4.87472 111.109 5.1342C111.598 5.39366 112.016 5.76898 112.326 6.22717C113.118 7.40033 113.509 8.79775 113.438 10.2104C113.492 11.6291 113.104 13.0296 112.326 14.2188H112.325ZM106.891 10.2355C106.84 11.2566 107.105 12.2687 107.649 13.1351C107.827 13.4698 108.092 13.75 108.417 13.9453C108.743 14.1408 109.115 14.244 109.495 14.244C109.874 14.244 110.247 14.1408 110.572 13.9453C110.897 13.75 111.162 13.4698 111.34 13.1351C111.884 12.2687 112.149 11.2566 112.098 10.2355C112.154 9.22615 111.879 8.22593 111.315 7.38618C111.127 7.0626 110.859 6.79281 110.535 6.60294C110.212 6.41314 109.845 6.30962 109.47 6.30252C109.096 6.31531 108.731 6.42117 108.409 6.61042C108.086 6.79973 107.817 7.06636 107.624 7.38618C107.111 8.24644 106.857 9.23535 106.891 10.2355ZM117.813 15.6051H114.805C114.672 15.6051 114.602 15.5298 114.602 15.3527V14.4197C114.602 14.2426 114.677 14.1673 114.805 14.1673H115.665V6.35273H114.805C114.672 6.35273 114.602 6.27738 114.602 6.1003V5.16725C114.602 4.99016 114.677 4.91483 114.805 4.91483H116.651C116.783 4.91483 116.854 4.99016 116.854 5.16725V7.88975H116.904C116.959 7.55424 117.07 7.23041 117.233 6.93159C117.397 6.5741 117.601 6.23594 117.84 5.9232C118.116 5.61706 118.452 5.36867 118.826 5.19237C119.272 4.96602 119.766 4.8534 120.266 4.86461C120.399 4.86461 120.469 4.93994 120.469 5.14215V6.30116C120.469 6.47824 120.394 6.60381 120.266 6.60381H119.938C119.5 6.59689 119.069 6.70522 118.687 6.91776C118.305 7.13035 117.986 7.43961 117.763 7.8144C117.225 8.61067 116.943 9.55159 116.954 10.5117V14.1673H117.79C117.922 14.1673 117.992 14.2426 117.992 14.4197V15.3527C118.017 15.5034 117.941 15.6051 117.814 15.6051H117.813ZM129.211 15.6051H127.846C127.748 15.6113 127.65 15.5964 127.559 15.5615C127.467 15.5266 127.385 15.4725 127.316 15.4029C127.195 15.1883 127.143 14.9423 127.165 14.6972V13.4615H127.14C126.97 14.0698 126.648 14.6251 126.204 15.0752C125.982 15.2966 125.718 15.4711 125.427 15.5881C125.136 15.705 124.824 15.7621 124.51 15.7558C123.988 15.7504 123.478 15.6076 123.029 15.3419C122.58 15.0761 122.21 14.6969 121.956 14.2426C121.248 13.0377 120.906 11.6542 120.97 10.2594C120.906 8.86446 121.248 7.48093 121.956 6.27608C122.217 5.82226 122.593 5.44408 123.045 5.17875C123.497 4.91343 124.011 4.77009 124.536 4.76285C125.133 4.74682 125.714 4.96397 126.153 5.36814C126.577 5.79431 126.898 6.31209 127.089 6.88138H127.114C127.089 6.57873 127.089 6.35273 127.089 6.15052V1.43642H125.521C125.389 1.43642 125.344 1.36109 125.344 1.184V0.250958C125.344 0.0738653 125.419 -0.00146484 125.521 -0.00146484H128.172C128.305 -0.00146484 128.35 0.0738653 128.35 0.250958V14.1408H129.235C129.367 14.1408 129.413 14.2162 129.413 14.3933V15.3302C129.413 15.5074 129.337 15.6078 129.21 15.6078L129.211 15.6051ZM122.258 10.2104C122.223 11.2203 122.458 12.2215 122.941 13.11C123.105 13.434 123.354 13.7079 123.661 13.903C123.968 14.0981 124.321 14.2072 124.685 14.2188C125.045 14.2041 125.395 14.0966 125.701 13.9066C126.006 13.7167 126.257 13.4509 126.429 13.1351C126.916 12.2397 127.145 11.2276 127.092 10.2104C127.144 9.207 126.907 8.20969 126.409 7.33597C126.241 7.02381 125.993 6.76156 125.691 6.57589C125.388 6.39016 125.042 6.28763 124.686 6.27868C124.329 6.29078 123.981 6.39443 123.676 6.5796C123.37 6.76477 123.118 7.02529 122.942 7.33597C122.444 8.20963 122.208 9.207 122.259 10.2104H122.258ZM134.09 15.7611C133.475 15.7952 132.87 15.597 132.396 15.206C132.048 14.9366 131.778 14.58 131.613 14.1725H131.59C131.615 14.9034 131.615 15.2562 131.615 15.3065C131.615 15.4835 131.54 15.6091 131.387 15.6091H130.857C130.725 15.6091 130.654 15.5087 130.654 15.3065V12.0501C130.654 11.873 130.73 11.7474 130.857 11.7474H131.458C131.61 11.7474 131.686 11.8483 131.686 12.0501V12.4782C131.798 12.9318 132.027 13.3487 132.348 13.6888C132.536 13.9048 132.769 14.0761 133.032 14.1904C133.295 14.3048 133.579 14.3592 133.866 14.3497C134.099 14.387 134.338 14.3696 134.563 14.2988C134.788 14.2279 134.994 14.1056 135.163 13.9415C135.332 13.7775 135.461 13.5762 135.538 13.3539C135.616 13.1315 135.641 12.8941 135.61 12.6606C135.618 12.477 135.578 12.2943 135.494 12.1306C135.41 11.967 135.284 11.8281 135.13 11.7276C134.769 11.4612 134.366 11.2567 133.937 11.1223C133.457 10.9717 133.002 10.7695 132.522 10.5672C132.01 10.3291 131.579 9.94682 131.283 9.46753C130.986 8.98817 130.837 8.43285 130.853 7.86992C130.816 7.05018 131.075 6.2444 131.586 5.60074C131.823 5.33276 132.115 5.11951 132.442 4.97592C132.77 4.83233 133.125 4.76186 133.483 4.76946C133.94 4.74168 134.396 4.84581 134.795 5.06939C135.195 5.29297 135.521 5.62655 135.736 6.03025H135.761C135.736 5.50162 135.736 5.24919 135.736 5.22408C135.736 5.04699 135.811 4.92144 135.939 4.92144H136.445C136.577 4.92144 136.648 5.02188 136.648 5.22408V8.24922C136.648 8.4263 136.572 8.55187 136.445 8.55187H135.831C135.699 8.55187 135.603 8.45138 135.603 8.24922V7.94657C135.595 7.50854 135.413 7.09163 135.097 6.7875C134.946 6.59887 134.754 6.4481 134.534 6.3473C134.314 6.24656 134.074 6.19857 133.833 6.20734C133.606 6.19443 133.379 6.22797 133.166 6.30598C132.953 6.38393 132.758 6.50461 132.594 6.66063C132.441 6.81788 132.322 7.00441 132.244 7.20885C132.166 7.4133 132.13 7.63145 132.139 7.8501C132.132 8.06491 132.173 8.27856 132.26 8.47503C132.348 8.67144 132.479 8.8455 132.644 8.98397C133.005 9.26778 133.417 9.48155 133.858 9.6144C134.338 9.76505 134.794 9.94213 135.273 10.1192C135.759 10.3081 136.181 10.6319 136.488 11.0523C136.847 11.5869 137.025 12.2235 136.993 12.8668C136.996 13.6046 136.737 14.3197 136.26 14.8836C135.991 15.1898 135.655 15.4292 135.278 15.5825C134.9 15.7358 134.492 15.7988 134.086 15.7664L134.09 15.7611Z" fill="#919191"/>
<g opacity="0.2">
<path opacity="0.2" d="M51.4487 10.5633C51.7019 8.87424 52.6111 8.19366 53.9258 8.62187C54.558 9.35267 55.165 9.40288 55.7972 8.59673C56.1007 8.21873 56.4042 7.79058 57.0112 8.09187C57.4658 8.31922 57.6182 9.85618 57.5414 10.2857C57.491 10.7139 57.4088 11.1434 57.3638 11.5967H60.4982L60.8773 9.1016C60.9113 8.69685 61.091 8.31805 61.3834 8.03529C61.6758 7.75247 62.0609 7.58484 62.4676 7.56322C62.7217 7.54167 62.9571 7.4211 63.1228 7.22766C63.289 7.03427 63.3712 6.78351 63.3532 6.52978C63.3276 5.89938 63.0493 5.42096 62.4427 5.37074C60.925 5.47118 61.2285 4.56457 61.7096 3.85753C62.2662 2.97471 62.949 2.34431 64.1366 2.69849C65.9811 3.25356 66.0079 0.909066 64.6665 0.379112C62.0621 -0.629258 59.711 0.934173 58.8773 3.52977C58.2146 5.54651 57.5626 5.9747 55.4394 5.57162C54.9596 5.49629 54.277 5.21876 54.0239 5.43946C53.0378 6.27074 52.9371 6.37252 51.0657 4.93462C49.3971 4.48131 48.9451 4.8844 48.639 6.57338C48.3819 8.24338 48.2217 9.92684 48.1592 11.6152H51.3401C51.3732 11.2438 51.3984 10.9161 51.4487 10.5633Z" fill="#919191"/>
<path opacity="0.2" d="M77.21 8.99412C77.6608 8.39272 78.3228 7.98322 79.0632 7.84771C79.8042 7.71219 80.5689 7.86068 81.2041 8.26332C83.0493 9.9272 83.101 5.38887 81.9122 5.31353C76.2995 4.96067 73.1903 8.41397 73.6448 11.5911H76.5524C76.4073 11.1403 76.3917 10.6578 76.5081 10.1987C76.624 9.73956 76.8675 9.32221 77.21 8.99412Z" fill="#919191"/>
<path opacity="0.2" d="M30.5665 7.4135C31.1497 7.44234 31.7005 7.68983 32.1086 8.1065C32.5166 8.5231 32.7516 9.07812 32.7666 9.66019C32.7793 10.1992 32.754 10.7384 32.6911 11.2739C32.6046 11.3883 32.5117 11.4978 32.4127 11.6016H35.6492C35.6492 11.595 35.6519 11.5886 35.6566 11.5838C35.6613 11.5792 35.6678 11.5765 35.6744 11.5765C36.3371 8.34923 35.9276 5.3492 31.098 5.37431C29.9356 5.50647 29.8084 4.81924 29.6825 3.83599C29.5963 3.49193 29.3884 3.19047 29.097 2.98703C28.8057 2.78359 28.4506 2.69184 28.0968 2.72866C27.7431 2.76547 27.4146 2.92838 27.1717 3.18742C26.9288 3.44646 26.7878 3.78423 26.7747 4.13863C26.5731 5.90623 25.801 7.56068 24.5746 8.85274C24.1652 9.28231 23.8164 9.76562 23.5382 10.2893C23.4456 10.4263 23.4078 10.593 23.4324 10.7564C23.4569 10.9198 23.542 11.0681 23.6707 11.1721C23.7366 11.2205 23.8123 11.254 23.8925 11.27C23.9727 11.2861 24.0555 11.2845 24.1349 11.2652C24.2144 11.2459 24.2887 11.2095 24.3525 11.1585C24.4163 11.1075 24.4682 11.0431 24.5044 10.9699C24.682 10.6422 25.2373 9.88618 25.6972 10.0118C25.9251 10.0871 25.9503 10.7175 25.8748 11.5977H28.4791C28.2657 9.9338 29.5553 7.31307 30.5665 7.4135Z" fill="#919191"/>
<path opacity="0.2" d="M40.6541 10.8166C41.984 10.7326 43.3177 10.7242 44.6487 10.7915C47.6068 10.7161 46.7692 7.33817 45.155 6.22807C41.338 3.53069 36.2553 7.23644 36.8118 11.6228H39.7197C39.7435 11.2196 40.0219 10.8919 40.6541 10.8166ZM41.9688 7.4386C42.3996 7.44156 42.8133 7.60654 43.1274 7.9006C43.4414 8.1946 43.6326 8.59601 43.6626 9.02453H40.3254C40.3358 8.59798 40.514 8.19268 40.8214 7.89597C41.1288 7.59931 41.541 7.43502 41.9688 7.4386Z" fill="#919191"/>
<path opacity="0.2" d="M88.259 9.05216C88.2826 8.69337 88.4165 8.35052 88.6432 8.0706C88.8692 7.79074 89.1769 7.58748 89.5237 7.48871C90.1863 7.33807 90.7878 7.8165 91.268 7.06056C91.3857 6.85309 91.4461 6.61833 91.4442 6.37991V6.35484C91.4187 5.74953 91.1659 5.52354 90.5587 5.49711C89.8762 5.472 88.7123 5.62926 89.345 4.03543C89.345 3.40504 89.345 2.72442 88.4595 2.82486C87.8523 2.9002 87.0689 2.64777 86.6399 3.17772C86.4973 3.3598 86.4095 3.57837 86.3864 3.80813C86.2357 4.6394 86.6143 5.69931 84.9461 5.472C84.3638 5.42178 83.6813 5.47199 83.5306 6.3297C83.2018 8.1958 84.8203 7.36321 85.2244 7.61564C86.1093 8.14422 85.5028 9.86233 85.2998 11.5988H87.9507C87.9669 10.7418 88.0709 9.88852 88.259 9.05216Z" fill="#919191"/>
<path opacity="0.2" d="M66.974 10.8166C68.3035 10.7325 69.6374 10.7241 70.9682 10.7915C73.9012 10.7161 73.0892 7.33817 71.4744 6.22807C67.6577 3.53069 62.5763 7.23644 63.1318 11.6228H66.0144C66.0636 11.2196 66.3413 10.8919 66.974 10.8166ZM68.2637 7.4386C68.6927 7.43817 69.1056 7.60271 69.4163 7.89807C69.7271 8.19342 69.912 8.59687 69.9319 9.02453H66.5948C66.619 8.59835 66.8046 8.19725 67.1147 7.90276C67.4248 7.6082 67.8352 7.4423 68.2637 7.4386Z" fill="#919191"/>
<path opacity="0.2" d="M22.0478 7.28755H22.9835C23.116 7.28755 23.1863 7.21226 23.2115 7.03512L23.2618 6.15232C23.287 6.00166 23.2115 5.8999 23.0842 5.8999H19.9498C19.8172 5.8999 19.747 5.97523 19.7218 6.15232L19.6462 7.03512C19.6462 7.18582 19.6966 7.28755 19.8238 7.28755H20.582L18.7861 11.5735H20.4547L22.0478 7.28755Z" fill="#919191"/>
<path opacity="0.2" d="M16.4094 7.28743H17.0919C17.1245 7.28897 17.157 7.28329 17.1871 7.27075C17.2172 7.25828 17.2441 7.23925 17.2659 7.2151C17.2877 7.19095 17.3039 7.16223 17.3132 7.1311C17.3226 7.09997 17.3248 7.06711 17.3199 7.035L17.3954 6.15218C17.4054 6.12152 17.4074 6.08886 17.4015 6.05719C17.3955 6.02553 17.3817 5.99585 17.3612 5.97088C17.3408 5.94592 17.3145 5.92645 17.2845 5.91425C17.2546 5.90206 17.2221 5.89753 17.19 5.90108H14.1589C14.0264 5.90108 13.9562 5.97641 13.9309 6.1535L13.8554 7.03629C13.8302 7.187 13.9058 7.28873 14.033 7.28873H14.9687L16.5592 11.5746H18.025L16.4094 7.28743Z" fill="#919191"/>
<path opacity="0.2" d="M2.27971 9.3017C2.35501 9.08015 2.45692 8.86848 2.58321 8.67133C2.65342 8.53761 2.74777 8.41803 2.86153 8.31846C3.00439 8.15942 3.1649 8.01711 3.33998 7.89426C3.6238 7.70718 3.96146 7.61849 4.30086 7.64183C4.54148 7.63281 4.78059 7.6834 4.99683 7.78902C5.21306 7.89463 5.3997 8.05201 5.54006 8.24713C5.85437 8.77101 6.00395 9.3768 5.96948 9.9863V11.5722H7.20867V9.73127C7.20979 9.46902 7.18451 9.20738 7.13313 8.95019C7.28053 8.56985 7.53622 8.24076 7.8687 8.0034C8.20117 7.76598 8.59598 7.63071 9.00455 7.61404C9.24598 7.59921 9.48717 7.64721 9.70437 7.75332C9.92164 7.85943 10.1075 8.02002 10.2437 8.21933C10.5487 8.74618 10.6893 9.35166 10.6479 9.95856V11.5444H11.9123V9.55413C11.9431 8.68059 11.7049 7.8186 11.2298 7.0841C11.0143 6.78682 10.7276 6.54804 10.3959 6.38943C10.0642 6.23088 9.69796 6.15756 9.33055 6.17617C8.81244 6.18042 8.30685 6.33532 7.87573 6.62197C7.44468 6.90862 7.10691 7.31448 6.90384 7.78982C6.76491 7.30744 6.467 6.88583 6.05818 6.59307C5.64938 6.30024 5.15355 6.1534 4.65075 6.17617C4.11682 6.16913 3.59391 6.32797 3.15456 6.63056C2.71522 6.93321 2.38121 7.36469 2.19886 7.86517H2.14717L2.17235 6.88188C2.19487 6.72364 2.15909 6.56256 2.07162 6.42859C1.96754 6.33668 1.83141 6.28925 1.69258 6.29647H0.229389C0.0968545 6.29647 0.0266113 6.37176 0.0266113 6.54884V7.38013C0.0266113 7.53078 0.102156 7.63257 0.229389 7.63257H1.03785V11.5405H2.30223L2.27705 9.29379L2.27971 9.3017Z" fill="#919191"/>
<path opacity="0.2" d="M106.892 10.2346C106.836 9.22517 107.111 8.22501 107.676 7.38526C107.866 7.06346 108.135 6.79522 108.458 6.60566C108.781 6.41611 109.147 6.31148 109.522 6.30153C109.897 6.30845 110.264 6.41184 110.587 6.60165C110.911 6.79151 111.18 7.06142 111.368 7.38526C111.915 8.2331 112.188 9.22739 112.151 10.2346C112.157 10.6928 112.106 11.1499 112 11.5958H113.34C113.413 11.1459 113.447 10.6904 113.441 10.2346C113.511 8.8219 113.121 7.42448 112.329 6.25132C112.019 5.79314 111.601 5.41782 111.112 5.15835C110.622 4.89888 110.077 4.76318 109.523 4.76318C108.968 4.76318 108.422 4.89888 107.933 5.15835C107.444 5.41782 107.026 5.79314 106.716 6.25132C105.924 7.42454 105.533 8.82197 105.604 10.2346C105.598 10.6904 105.632 11.1459 105.705 11.5958H107.07C106.958 11.1505 106.898 10.6937 106.892 10.2346Z" fill="#919191"/>
<path opacity="0.2" d="M98.9257 7.86614H98.9513L99.6338 11.597H100.694L99.7079 6.3529H100.315C100.448 6.3529 100.493 6.27761 100.493 6.1005V5.16747C100.493 4.99037 100.417 4.91504 100.315 4.91504H97.5315C97.3994 4.91504 97.3552 4.99037 97.3552 5.16747V6.10579C97.3552 6.28286 97.4312 6.35821 97.5315 6.35821H98.1386L97.1528 11.6023H98.2127L98.9257 7.86614Z" fill="#919191"/>
<path opacity="0.2" d="M136.497 11.0181C136.183 10.6047 135.764 10.2826 135.283 10.0851C134.802 9.90799 134.347 9.73221 133.868 9.58027C133.429 9.44204 133.018 9.2287 132.653 8.94983C132.488 8.81136 132.357 8.6373 132.27 8.44089C132.182 8.24442 132.141 8.03071 132.148 7.81589C132.139 7.59731 132.175 7.37916 132.253 7.17472C132.331 6.97027 132.45 6.78374 132.603 6.62649C132.767 6.47047 132.962 6.34979 133.176 6.27178C133.389 6.19383 133.615 6.16027 133.842 6.17319C134.084 6.16455 134.324 6.21254 134.544 6.31328C134.763 6.41408 134.956 6.56479 135.107 6.75336C135.418 7.06045 135.599 7.47563 135.612 7.91237V8.21502C135.612 8.39216 135.687 8.51767 135.84 8.51767H136.446C136.579 8.51767 136.649 8.41724 136.649 8.21502V5.19389C136.649 5.0168 136.574 4.89125 136.446 4.89125H135.94C135.807 4.89125 135.738 4.99169 135.738 5.19389C135.738 5.219 135.738 5.47142 135.763 6.00006H135.738C135.523 5.59635 135.196 5.26278 134.797 5.03919C134.397 4.81561 133.942 4.71149 133.485 4.73926C133.127 4.73736 132.774 4.8104 132.447 4.95362C132.121 5.09684 131.827 5.30704 131.588 5.57054C131.073 6.21217 130.812 7.01944 130.855 7.83974C130.839 8.40266 130.988 8.95799 131.284 9.43734C131.581 9.91664 132.012 10.2989 132.524 10.5371C132.985 10.7481 133.457 10.9334 133.939 11.0921C134.299 11.209 134.64 11.3792 134.95 11.597H136.77C136.715 11.389 136.622 11.1928 136.497 11.0181Z" fill="#919191"/>
<path opacity="0.2" d="M116.951 10.4895C116.939 9.52934 117.221 8.58842 117.759 7.79215C117.983 7.41736 118.302 7.10804 118.683 6.89551C119.066 6.68298 119.497 6.57464 119.934 6.58156H120.263C120.395 6.58156 120.466 6.48113 120.466 6.27891V5.14499C120.466 4.9679 120.39 4.86746 120.263 4.86746C119.763 4.85625 119.268 4.96886 118.822 5.19521C118.443 5.36276 118.106 5.61243 117.836 5.92605C117.588 6.23265 117.384 6.57199 117.229 6.93442C117.078 7.23818 116.968 7.56029 116.901 7.89258H116.853V5.1701C116.853 4.99301 116.777 4.91768 116.65 4.91768H114.804C114.671 4.91768 114.601 4.99301 114.601 5.1701V6.10314C114.601 6.28021 114.677 6.35556 114.804 6.35556H115.66V11.5996H116.975V10.4908L116.951 10.4895Z" fill="#919191"/>
<path opacity="0.2" d="M95.1868 6.3529H95.9197C96.0524 6.3529 96.0972 6.27761 96.0972 6.1005V5.16747C96.0972 4.99037 96.0219 4.91504 95.9197 4.91504H92.9612C92.8285 4.91504 92.7837 4.99037 92.7837 5.16747V6.10579C92.7837 6.28286 92.859 6.35821 92.9612 6.35821H93.8467L95.0859 11.6023H96.3251L95.1868 6.3529Z" fill="#919191"/>
<path opacity="0.2" d="M104.059 6.3529H104.919C105.052 6.3529 105.096 6.27761 105.096 6.1005V5.16747C105.096 4.99037 105.045 4.91504 104.919 4.91504H102.012C101.879 4.91504 101.809 4.99037 101.809 5.16747V6.10579C101.809 6.28286 101.884 6.35821 102.012 6.35821H102.719L101.582 11.6023H102.822L104.059 6.3529Z" fill="#919191"/>
<path opacity="0.2" d="M122.264 10.2115C122.219 9.20559 122.464 8.20802 122.971 7.33708C123.144 7.02443 123.396 6.7623 123.702 6.57682C124.008 6.39134 124.357 6.28893 124.715 6.27985C125.071 6.28615 125.418 6.38763 125.722 6.57361C126.025 6.75958 126.272 7.02325 126.438 7.33708C126.936 8.2108 127.173 9.20812 127.121 10.2115C127.118 10.6766 127.074 11.1406 126.988 11.5979H128.379V0.2534C128.379 0.0763066 128.303 0.000976562 128.201 0.000976562H125.55C125.418 0.000976562 125.373 0.0763066 125.373 0.2534V1.1904C125.373 1.3675 125.448 1.44282 125.55 1.44282H127.118V6.15692C127.118 6.33402 127.118 6.58509 127.143 6.88774H127.118C126.943 6.31117 126.62 5.78981 126.182 5.37454C125.743 4.97038 125.162 4.75323 124.564 4.76926C124.038 4.77116 123.523 4.91226 123.069 5.17813C122.616 5.444 122.242 5.8251 121.985 6.28245C121.277 7.48735 120.935 8.87088 120.999 10.2657C120.993 10.7215 121.026 11.177 121.1 11.6269H122.44C122.315 11.1656 122.256 10.6892 122.264 10.2115Z" fill="#919191"/>
</g>
</g>
<defs>
<clipPath id="clip0_7880_465">
<rect width="137" height="21" fill="white"/>
</clipPath>
</defs>
</svg>
