<svg width="65" height="65" viewBox="0 0 65 65" fill="none" xmlns="http://www.w3.org/2000/svg">
<path d="M38.1163 18.6449L38.1055 23.0117" stroke="#1176CA" stroke-width="2" stroke-miterlimit="10" stroke-linecap="round" stroke-linejoin="round"/>
<mask id="mask0_9040_10169" style="mask-type:luminance" maskUnits="userSpaceOnUse" x="0" y="0" width="65" height="65">
<path d="M0 7.62939e-06H65V65H0V7.62939e-06Z" fill="white"/>
</mask>
<g mask="url(#mask0_9040_10169)">
<path d="M41.3141 41.0264C43.4445 40.6663 45.0818 38.8016 45.0818 36.5696C45.0818 34.0855 43.0487 32.0515 40.6017 32.0515H35.6608C33.1777 32.0515 31.1445 30.0174 31.1445 27.5297C31.1445 25.0458 33.1777 23.0118 35.6608 23.0118H45.0818" stroke="#1176CA" stroke-width="2" stroke-miterlimit="10" stroke-linecap="round" stroke-linejoin="round"/>
<path d="M11.3203 55.6536L21.2417 60.1033C23.5952 60.9672 27.0822 61.0141 35.4453 61.0572C42.1963 61.0645 43.078 61.0645 44.3591 61.0645C47.4862 61.0645 48.7133 60.7728 50.1852 59.3185C54.3056 55.5096 58.426 51.7045 62.5501 47.8956C64.1227 46.4448 64.1227 44.0652 62.5501 42.6144C60.9775 41.1599 58.4009 41.1599 56.8282 42.6144L48.1664 50.6135C47.4503 51.276 45.9821 51.4631 44.3734 51.4596C40.4043 51.4488 34.0167 51.438 30.0474 51.4307C28.3526 51.4307 26.967 50.1528 26.967 48.5867C26.967 47.0208 28.3526 45.7391 30.0474 45.7391H38.2558C40.1667 45.7391 41.725 44.2992 41.725 42.5351C41.725 40.7747 40.1667 39.3311 38.2558 39.3311H18.1001C15.322 39.3311 12.8497 40.6164 11.3203 42.5783" stroke="#1176CA" stroke-width="2" stroke-miterlimit="10" stroke-linecap="round" stroke-linejoin="round"/>
<path d="M11.3204 57.6586V40.5764C11.3204 38.9133 9.84864 37.5488 8.04578 37.5488H4.54429C2.7413 37.5488 1.26953 38.9133 1.26953 40.5764V57.6586C1.26953 59.3219 2.7413 60.6826 4.54429 60.6826H8.04578C9.84864 60.6826 11.3204 59.3219 11.3204 57.6586Z" stroke="#1176CA" stroke-width="2" stroke-miterlimit="10" stroke-linecap="round" stroke-linejoin="round"/>
<path d="M52.0137 14.8402L52.0172 14.8438" stroke="#1176CA" stroke-width="2" stroke-miterlimit="10" stroke-linecap="round" stroke-linejoin="round"/>
<path d="M17.2395 39.3745C16.4371 37.0814 15.998 34.6188 15.998 32.052C15.998 29.6255 16.3867 27.2928 17.1099 25.1111M55.9497 18.9659C58.6415 22.6307 60.2284 27.1559 60.2284 32.052C60.2284 35.5872 59.3971 38.9317 57.9217 41.8945M29.7554 11.5642C32.3321 10.5094 35.1569 9.92621 38.1151 9.92621C41.3069 9.92621 44.3441 10.603 47.0863 11.8234" stroke="#1176CA" stroke-width="2" stroke-miterlimit="10" stroke-linecap="round" stroke-linejoin="round"/>
<path d="M17.3516 15.1169L19.5324 17.1582L24.0521 12.5214" stroke="#4CAEFF" stroke-width="2" stroke-miterlimit="10" stroke-linecap="round" stroke-linejoin="round"/>
<path d="M18.9528 26.4612C16.4409 24.96 14.397 22.422 12.8207 19.4843C11.2338 16.5251 10.3737 13.4002 10.399 10.4519C10.4098 9.14515 10.7048 9.00105 11.788 8.41783L20.0935 3.93575L28.3992 8.41783C29.4823 9.00105 29.7738 9.14515 29.7846 10.4519C29.8134 13.4002 28.9497 16.5251 27.3627 19.4843C25.7866 22.422 23.7461 24.96 21.2343 26.4612C20.2267 27.0624 19.9568 27.0624 18.9528 26.4612Z" stroke="#4CAEFF" stroke-width="2" stroke-miterlimit="10" stroke-linecap="round" stroke-linejoin="round"/>
</g>
</svg>
