<svg width="97" height="15" viewBox="0 0 97 15" fill="none" xmlns="http://www.w3.org/2000/svg">
<path d="M8.26845 0.290556C8.18083 0.112639 8.00001 0 7.80202 0C7.60404 0 7.42322 0.112639 7.3356 0.290556L5.2063 4.61418L0.445401 5.30701C0.249463 5.33552 0.0866716 5.47304 0.0254797 5.66174C-0.0357122 5.85044 0.0153087 6.05758 0.157088 6.19608L3.60221 9.56136L2.7887 14.3137C2.75523 14.5093 2.83545 14.7069 2.99562 14.8235C3.1558 14.9402 3.36816 14.9555 3.5434 14.8632L7.80202 12.6194L12.0606 14.8632C12.2359 14.9555 12.4483 14.9402 12.6084 14.8235C12.7686 14.7069 12.8488 14.5093 12.8153 14.3137L12.0018 9.56136L15.447 6.19608C15.5887 6.05758 15.6398 5.85044 15.5786 5.66174C15.5174 5.47304 15.3546 5.33552 15.1586 5.30701L10.3978 4.61418L8.26845 0.290556Z" fill="#FD8C04"/>
<path d="M28.6176 0.290556C28.5299 0.112639 28.3491 0 28.1511 0C27.9532 0 27.7723 0.112639 27.6847 0.290556L25.5554 4.61418L20.7945 5.30701C20.5986 5.33552 20.4358 5.47304 20.3746 5.66174C20.3134 5.85044 20.3644 6.05758 20.5062 6.19608L23.9513 9.56136L23.1378 14.3137C23.1044 14.5093 23.1846 14.7069 23.3447 14.8235C23.5049 14.9402 23.7173 14.9555 23.8925 14.8632L28.1511 12.6194L32.4098 14.8632C32.585 14.9555 32.7974 14.9402 32.9575 14.8235C33.1177 14.7069 33.1979 14.5093 33.1645 14.3137L32.351 9.56136L35.7961 6.19608C35.9379 6.05758 35.9889 5.85044 35.9277 5.66174C35.8665 5.47304 35.7037 5.33552 35.5078 5.30701L30.7469 4.61418L28.6176 0.290556Z" fill="#FD8C04"/>
<path d="M48.9662 0.290556C48.8786 0.112639 48.6978 0 48.4998 0C48.3018 0 48.121 0.112639 48.0334 0.290556L45.904 4.61418L41.1432 5.30701C40.9472 5.33552 40.7844 5.47304 40.7232 5.66174C40.662 5.85044 40.7131 6.05758 40.8548 6.19608L44.3 9.56136L43.4865 14.3137C43.453 14.5093 43.5332 14.7069 43.6934 14.8235C43.8536 14.9402 44.0659 14.9555 44.2412 14.8632L48.4998 12.6194L52.7584 14.8632C52.9336 14.9555 53.146 14.9402 53.3062 14.8235C53.4664 14.7069 53.5466 14.5093 53.5131 14.3137L52.6996 9.56136L56.1447 6.19608C56.2865 6.05758 56.3375 5.85044 56.2763 5.66174C56.2151 5.47304 56.0523 5.33552 55.8564 5.30701L51.0955 4.61418L48.9662 0.290556Z" fill="#FD8C04"/>
<path d="M69.3124 0.290556C69.2248 0.112639 69.044 0 68.846 0C68.648 0 68.4672 0.112639 68.3795 0.290556L66.2502 4.61418L61.4893 5.30701C61.2934 5.33552 61.1306 5.47304 61.0694 5.66174C61.0082 5.85044 61.0593 6.05758 61.201 6.19608L64.6462 9.56136L63.8326 14.3137C63.7992 14.5093 63.8794 14.7069 64.0396 14.8235C64.1997 14.9402 64.4121 14.9555 64.5873 14.8632L68.846 12.6194L73.1046 14.8632C73.2798 14.9555 73.4922 14.9402 73.6524 14.8235C73.8126 14.7069 73.8928 14.5093 73.8593 14.3137L73.0458 9.56136L76.4909 6.19608C76.6327 6.05758 76.6837 5.85044 76.6225 5.66174C76.5613 5.47304 76.3985 5.33552 76.2026 5.30701L71.4417 4.61418L69.3124 0.290556Z" fill="#FD8C04"/>
<path d="M89.6644 0.290556C89.5768 0.112639 89.396 0 89.198 0C89 0 88.8192 0.112639 88.7316 0.290556L86.6023 4.61418L81.8414 5.30701C81.6455 5.33552 81.4827 5.47304 81.4215 5.66174C81.3603 5.85044 81.4113 6.05758 81.5531 6.19608L84.9982 9.56136L84.1847 14.3137C84.1512 14.5093 84.2314 14.7069 84.3916 14.8235C84.5518 14.9402 84.7642 14.9555 84.9394 14.8632L89.198 12.6194L93.4566 14.8632C93.6319 14.9555 93.8442 14.9402 94.0044 14.8235C94.1646 14.7069 94.2448 14.5093 94.2113 14.3137L93.3978 9.56136L96.843 6.19608C96.9847 6.05758 97.0358 5.85044 96.9746 5.66174C96.9134 5.47304 96.7506 5.33552 96.5546 5.30701L91.7937 4.61418L89.6644 0.290556Z" fill="#FD8C04"/>
</svg>
