<svg width="120" height="21" viewBox="0 0 120 21" fill="none" xmlns="http://www.w3.org/2000/svg">
<g clip-path="url(#clip0_7880_567)">
<path d="M21.8385 8.96512C21.8385 7.21144 23.6696 5.71684 25.8157 5.71684C27.8437 5.71684 29.9307 6.65346 30.0292 9.1644H27.3318C27.2924 8.34735 26.4851 8.04843 25.8748 8.04843C25.1659 8.04843 24.4965 8.3075 24.4965 9.12455C24.4965 9.56297 25.0084 9.88182 25.6385 10.0412L27.4499 10.4797C29.9504 11.1373 30.2851 12.891 30.2851 13.7479C30.2851 15.9599 28.0996 17.1157 25.8748 17.1157C23.7483 17.1157 21.5628 15.8005 21.5234 13.429H24.1618C24.2209 14.2062 25.1069 14.8639 26.1504 14.824C26.938 14.8041 27.568 14.3457 27.568 13.7279C27.5877 13.17 27.1742 12.871 26.3867 12.6917L24.91 12.313C22.0944 11.5359 21.8385 10.2405 21.8385 8.96512ZM32.9235 -0.0224609C33.908 -0.0224609 34.7152 0.734803 34.7152 1.69135C34.7152 2.68776 33.908 3.4251 32.9235 3.4251C31.9193 3.4251 31.0924 2.66783 31.0924 1.69135C31.0924 0.714875 31.939 -0.0224609 32.9235 -0.0224609ZM34.3017 16.8766H31.5059V5.93605H34.3017V16.8766ZM40.1691 5.93605H42.4531V8.22778H40.1691V16.8766H37.3733V8.22778H35.4043V5.93605H37.3733V1.77107H40.1691V5.93605ZM53.5578 12.3529H45.308C45.4852 13.8077 46.6863 14.7044 48.3008 14.7044C49.3837 14.7044 50.4863 14.2262 50.9982 13.3095C51.6676 13.6881 52.4552 14.1066 53.1443 14.4653C52.1599 16.3385 50.0728 17.1157 48.0842 17.1157C45.0127 17.1157 42.4925 14.824 42.4925 11.3764C42.4925 7.92886 45.0127 5.71684 48.0842 5.71684C51.1557 5.71684 53.5775 7.92886 53.5775 11.3764C53.6169 11.6554 53.5775 12.1138 53.5578 12.3529ZM50.8604 10.3999C50.6635 8.90534 49.5412 8.08828 48.163 8.08828C46.6863 8.08828 45.5246 8.94519 45.308 10.3999H50.8604ZM52.1008 19.7263H53.479C54.8573 19.7263 55.0936 18.6103 55.0739 17.6737V5.95598H57.9288V17.6339C57.9288 20.4637 56.905 22.3768 53.8925 22.3768H52.1008V19.7263ZM56.4915 -0.0224609C57.5153 -0.0224609 58.3029 0.734803 58.3029 1.69135C58.3029 2.68776 57.5153 3.4251 56.4915 3.4251C55.507 3.4251 54.6801 2.66783 54.6801 1.69135C54.6604 0.734803 55.507 -0.0224609 56.4915 -0.0224609ZM68.0491 15.4816C67.3403 16.5976 65.7651 17.0958 64.6822 17.0958C61.8273 17.0958 59.1692 14.8838 59.1692 11.3964C59.1692 7.889 61.8273 5.69691 64.6822 5.69691C65.6667 5.69691 67.2418 6.07554 68.0491 7.29116V5.93605H70.8843V16.8766H68.0491V15.4816ZM65.076 14.3656C66.5921 14.3656 68.0491 13.2895 68.0491 11.4163C68.0491 9.50318 66.5724 8.46692 65.076 8.46692C63.5205 8.46692 62.0832 9.62275 62.0832 11.4163C62.0832 13.17 63.5205 14.3656 65.076 14.3656ZM72.3216 16.8766V-0.00253767H75.1569V7.3908C75.7279 6.29475 77.1061 5.69691 78.5237 5.69691C81.3787 5.69691 83.8201 7.90893 83.8201 11.4163C83.8201 14.8838 81.3393 17.1157 78.5237 17.1157C77.1061 17.1157 75.7279 16.498 75.1569 15.4019V16.8766H72.3216ZM78.0512 14.3656C79.6263 14.3656 80.9061 13.17 80.9061 11.3565C80.9061 9.58289 79.6263 8.40714 78.0512 8.40714C76.5942 8.40714 75.1766 9.48325 75.1766 11.3565C75.1963 13.2098 76.5351 14.3656 78.0512 14.3656ZM85.0015 16.8766V-0.00253767H87.8367V7.3908C88.4077 6.29475 89.786 5.69691 91.2036 5.69691C94.0585 5.69691 96.5 7.90893 96.5 11.4163C96.5 14.8838 94.0191 17.1157 91.2036 17.1157C89.786 17.1157 88.4077 16.498 87.8367 15.4019V16.8766H85.0015ZM90.731 14.3656C92.3062 14.3656 93.586 13.17 93.586 11.3565C93.586 9.58289 92.3062 8.40714 90.731 8.40714C89.274 8.40714 87.8564 9.48325 87.8564 11.3565C87.8564 13.2098 89.215 14.3656 90.731 14.3656ZM108.629 12.3529H100.379C100.556 13.8077 101.757 14.7044 103.372 14.7044C104.454 14.7044 105.557 14.2262 106.069 13.3095C106.738 13.6881 107.526 14.1066 108.215 14.4653C107.231 16.3385 105.144 17.1157 103.155 17.1157C100.083 17.1157 97.5632 14.824 97.5632 11.3764C97.5632 7.92886 100.083 5.71684 103.155 5.71684C106.226 5.71684 108.648 7.92886 108.648 11.3764C108.688 11.6554 108.668 12.1138 108.629 12.3529ZM105.931 10.3999C105.734 8.90534 104.612 8.08828 103.234 8.08828C101.757 8.08828 100.595 8.94519 100.379 10.3999H105.931ZM112.842 16.8766H110.007V5.93605H112.842V8.5267C113.393 6.53389 114.673 5.71684 115.914 5.71684C116.681 5.71684 117.252 5.87626 117.705 6.1154L117.233 8.70606C116.563 8.40714 115.854 8.40714 115.579 8.40714C113.649 8.40714 112.881 10.1409 112.881 13.0504L112.842 16.8766Z" fill="#3C3C3B"/>
<path d="M14.8287 13.6277C15.8919 12.2128 16.5023 10.4392 16.5023 8.52613C16.5023 3.80316 12.722 -0.0429688 8.03595 -0.0429688C3.3696 -0.0429688 -0.43042 3.78323 -0.43042 8.52613C-0.43042 13.2491 3.34991 17.0753 8.03595 17.0753H8.05563H18.235L14.8287 13.6277Z" fill="#EF6A23"/>
<path d="M12.919 7.32959L12.407 7.8278C11.8557 8.38579 11.3044 8.90391 10.7334 9.4619C10.7531 9.52169 10.7531 9.58147 10.7728 9.64126L11.2454 12.5308C11.2454 12.6703 11.1863 12.7899 11.0682 12.8696C10.95 12.9294 10.8319 12.9294 10.7334 12.8895C10.5956 12.8098 10.4381 12.7301 10.3003 12.6504L8.90235 11.8931C8.60701 11.7337 8.33136 11.5743 8.03602 11.4149C7.76037 11.5743 7.46504 11.7337 7.18939 11.8732L5.79145 12.6305C5.65363 12.7102 5.49611 12.7899 5.35829 12.8696C5.31891 12.9095 5.24015 12.9095 5.20077 12.9095C5.14171 12.9095 5.08264 12.8895 5.02357 12.8696C4.90544 12.8098 4.84637 12.6903 4.84637 12.5308V12.491L5.31891 9.62133C5.3386 9.56154 5.3386 9.50176 5.35829 9.44198C4.80699 8.88399 4.25569 8.36586 3.68471 7.80787L3.17279 7.30966C3.05465 7.1901 3.03496 7.07053 3.07434 6.93103C3.11372 6.81146 3.23185 6.71182 3.36968 6.69189C3.58626 6.65204 3.78315 6.63211 3.99973 6.59225L6.10648 6.2734C6.20493 6.25347 6.28368 6.23355 6.36244 6.23355C6.40182 6.17376 6.42151 6.11398 6.46089 6.05419C6.50026 5.97448 6.53964 5.9147 6.57902 5.83498L6.87436 5.21721C6.99249 4.998 7.09094 4.77879 7.18939 4.55958C7.36659 4.20088 7.54379 3.84217 7.721 3.48346C7.78006 3.36389 7.8982 3.28418 8.05571 3.28418C8.17385 3.28418 8.31167 3.36389 8.37074 3.48346C8.54794 3.84217 8.72515 4.20088 8.90235 4.55958C9.02048 4.77879 9.11893 4.998 9.21738 5.21721L9.51271 5.83498C9.55209 5.9147 9.59147 5.97448 9.63085 6.05419C9.67023 6.11398 9.68992 6.17376 9.7293 6.23355C9.82774 6.25347 9.9065 6.2734 9.98526 6.2734L12.092 6.59225C12.3086 6.63211 12.5055 6.65204 12.7221 6.69189C12.8599 6.71182 12.978 6.81146 13.0174 6.93103C13.0568 7.09046 13.0174 7.21003 12.919 7.32959Z" fill="white"/>
</g>
<defs>
<clipPath id="clip0_7880_567">
<rect width="120" height="21" fill="white"/>
</clipPath>
</defs>
</svg>
