<svg width="65" height="65" viewBox="0 0 65 65" fill="none" xmlns="http://www.w3.org/2000/svg">
<path d="M46.4785 64.3652H7.7303C5.12154 64.3652 3 61.8818 3 58.8379V31.6623C3 31.4741 3.07476 31.2937 3.20782 31.1606C3.34089 31.0275 3.52136 30.9528 3.70954 30.9528C3.89773 30.9528 4.0782 31.0275 4.21127 31.1606C4.34433 31.2937 4.41909 31.4741 4.41909 31.6623V58.8379C4.41909 61.1025 5.9044 62.9461 7.7303 62.9461H40.0418C37.3927 61.7159 35.15 59.7548 33.5776 57.2935C32.0051 54.8321 31.1682 51.9729 31.1654 49.0521C31.1654 40.6073 38.0349 33.7377 46.4785 33.7377C48.1363 33.7353 49.7833 34.0042 51.3543 34.5336V22.3945H38.8261C37.8734 22.3917 36.9606 22.0116 36.2875 21.3374C35.6145 20.6632 35.2359 19.7498 35.2346 18.7971V6.41909H7.7303C6.85211 6.41909 6.00989 6.76795 5.38892 7.38892C4.76795 8.00989 4.41909 8.85211 4.41909 9.7303V26.1279C4.41909 26.3161 4.34433 26.4965 4.21127 26.6296C4.0782 26.7627 3.89773 26.8374 3.70954 26.8374C3.52136 26.8374 3.34089 26.7627 3.20782 26.6296C3.07476 26.4965 3 26.3161 3 26.1279V9.7303C3 8.47574 3.49837 7.27258 4.38547 6.38547C5.27258 5.49837 6.47574 5 7.7303 5H35.9442C36.1323 5 36.3128 5.07476 36.4459 5.20782C36.5789 5.34089 36.6537 5.52136 36.6537 5.70954V18.7971C36.6543 19.3746 36.884 19.9283 37.2924 20.3367C37.7008 20.7451 38.2545 20.9748 38.832 20.9754H52.0035C52.1016 20.967 52.2004 20.9792 52.2936 21.0111C52.3868 21.043 52.4723 21.0939 52.5447 21.1606C52.6171 21.2274 52.6748 21.3085 52.7142 21.3987C52.7536 21.489 52.7737 21.5865 52.7734 21.6849V35.5577C52.7733 35.6744 52.7445 35.7893 52.6895 35.8922C52.6344 35.9952 52.5548 36.0829 52.4577 36.1477C52.3607 36.2125 52.2491 36.2523 52.133 36.2637C52.0168 36.2751 51.8996 36.2576 51.7918 36.2129C50.1082 35.512 48.3022 35.1527 46.4785 35.1556C42.7933 35.1556 39.259 36.6196 36.6531 39.2255C34.0472 41.8313 32.5833 45.3656 32.5833 49.0509C32.5833 52.7361 34.0472 56.2705 36.6531 58.8763C39.259 61.4822 42.7933 62.9461 46.4785 62.9461C46.6667 62.9461 46.8472 63.0209 46.9803 63.154C47.1133 63.287 47.1881 63.4675 47.1881 63.6557C47.1881 63.8439 47.1133 64.0243 46.9803 64.1574C46.8472 64.2905 46.6667 64.3652 46.4785 64.3652Z" fill="#1176CA" stroke="#1176CA" stroke-width="0.4"/>
<path d="M3.70954 30.1367C3.52136 30.1367 3.34089 30.062 3.20782 29.9289C3.07476 29.7958 3 29.6154 3 29.4272V28.3629C3 28.1747 3.07476 27.9942 3.20782 27.8611C3.34089 27.7281 3.52136 27.6533 3.70954 27.6533C3.89773 27.6533 4.0782 27.7281 4.21127 27.8611C4.34433 27.9942 4.41909 28.1747 4.41909 28.3629V29.4272C4.41909 29.6154 4.34433 29.7958 4.21127 29.9289C4.0782 30.062 3.89773 30.1367 3.70954 30.1367Z" fill="#1176CA" stroke="#1176CA" stroke-width="0.4"/>
<path d="M46.4768 58.4933C45.0779 58.4963 43.6961 58.1851 42.4336 57.5827C42.331 57.5338 42.2417 57.461 42.1732 57.3705C42.1046 57.28 42.0588 57.1743 42.0395 57.0623C42.0203 56.9504 42.0282 56.8355 42.0626 56.7272C42.097 56.619 42.1569 56.5206 42.2373 56.4403L51.5607 47.1157C51.66 47.0165 51.7864 46.949 51.9241 46.9217C52.0618 46.8945 52.2044 46.9086 52.3341 46.9624C52.4637 47.0162 52.5745 47.1072 52.6523 47.224C52.7302 47.3407 52.7717 47.478 52.7716 47.6183V55.7591C52.7714 55.863 52.7485 55.9655 52.7043 56.0595C52.6602 56.1535 52.596 56.2367 52.5162 56.3031C50.821 57.7168 48.684 58.4917 46.4768 58.4933ZM44.0005 56.678C44.8 56.9389 45.6358 57.071 46.4768 57.0694C48.2397 57.0678 49.9531 56.486 51.3525 55.4138V49.3307L44.0005 56.678Z" fill="#1176CA" stroke="#1176CA" stroke-width="0.4"/>
<path d="M38.5883 53.4999C38.5486 53.4998 38.509 53.4962 38.47 53.4893C38.358 53.4699 38.2522 53.424 38.1617 53.3552C38.0711 53.2865 37.9984 53.197 37.9497 53.0943C37.3472 51.8322 37.036 50.4508 37.0391 49.0523C37.0419 46.5489 38.0375 44.1489 39.8075 42.3787C41.5775 40.6084 43.9774 39.6125 46.4808 39.6094C47.88 39.6064 49.2622 39.9176 50.5252 40.52C50.6277 40.5688 50.717 40.6416 50.7855 40.7322C50.8541 40.8227 50.8999 40.9284 50.9192 41.0403C50.9384 41.1523 50.9305 41.2672 50.8961 41.3754C50.8617 41.4837 50.8018 41.5821 50.7215 41.6623L39.0897 53.2918C38.9567 53.4249 38.7764 53.4997 38.5883 53.4999ZM46.4784 41.0285C45.2127 41.0292 43.9651 41.3292 42.8374 41.9041C41.7098 42.4789 40.734 43.3122 39.9898 44.336C39.2456 45.3598 38.7541 46.5451 38.5553 47.7951C38.3565 49.0451 38.4562 50.3244 38.8461 51.5286L48.9523 41.4235C48.1537 41.1622 47.3187 41.0289 46.4784 41.0285Z" fill="#1176CA" stroke="#1176CA" stroke-width="0.4"/>
<path d="M52.0269 22.3937H38.8247C37.8722 22.3912 36.9596 22.0113 36.2866 21.3372C35.6137 20.6632 35.2353 19.7499 35.2344 18.7975V5.70991C35.2345 5.56995 35.276 5.43315 35.3537 5.31672C35.4314 5.2003 35.5417 5.10944 35.6709 5.0556C35.8001 5.00175 35.9423 4.98731 36.0797 5.01409C36.2171 5.04088 36.3435 5.1077 36.443 5.20613L52.5626 21.1792C52.6597 21.2753 52.7269 21.3973 52.7563 21.5307C52.7857 21.6641 52.776 21.8032 52.7283 21.9311C52.6806 22.0591 52.5969 22.1706 52.4874 22.2523C52.3779 22.3339 52.2472 22.3822 52.1109 22.3913C52.0825 22.3937 52.0506 22.3937 52.0269 22.3937ZM36.6535 7.41164V18.7975C36.6541 19.3747 36.8837 19.9281 37.2918 20.3362C37.7 20.7444 38.2534 20.974 38.8306 20.9746H50.3453L36.6535 7.41164Z" fill="#1176CA" stroke="#1176CA" stroke-width="0.4"/>
<path d="M46.4792 64.365C38.0356 64.365 31.166 57.4954 31.166 49.0507C31.1704 44.9906 32.7851 41.0981 35.6559 38.2271C38.5267 35.356 42.4191 33.741 46.4792 33.7363C54.9239 33.7363 61.7935 40.6059 61.7935 49.0495C61.7894 53.11 60.1747 57.003 57.3036 59.8743C54.4325 62.7456 50.5396 64.3606 46.4792 64.365ZM46.4792 35.1554C43.731 35.1554 41.0444 35.9704 38.7594 37.4972C36.4743 39.024 34.6933 41.1942 33.6416 43.7332C32.5899 46.2722 32.3148 49.0661 32.8509 51.7615C33.3871 54.4569 34.7105 56.9328 36.6537 58.8761C38.597 60.8194 41.0729 62.1428 43.7683 62.6789C46.4638 63.2151 49.2576 62.9399 51.7967 61.8882C54.3357 60.8365 56.5058 59.0555 58.0326 56.7705C59.5595 54.4854 60.3744 51.7989 60.3744 49.0507C60.3704 45.3667 58.9051 41.8347 56.3001 39.2297C53.6951 36.6248 50.1632 35.1595 46.4792 35.1554ZM46.4792 58.4923C45.0801 58.4955 43.6983 58.1839 42.436 57.5806C42.3334 57.5317 42.2441 57.4589 42.1756 57.3684C42.107 57.2779 42.0612 57.1722 42.0419 57.0602C42.0227 56.9483 42.0306 56.8334 42.065 56.7251C42.0994 56.6169 42.1593 56.5185 42.2396 56.4382L53.8679 44.81C53.9482 44.7296 54.0466 44.6697 54.1548 44.6353C54.2631 44.6009 54.378 44.593 54.4899 44.6123C54.6019 44.6315 54.7075 44.6773 54.7981 44.7459C54.8886 44.8144 54.9614 44.9037 55.0103 45.0063C55.6135 46.2686 55.9252 47.6504 55.922 49.0495C55.9195 51.5532 54.9239 53.9537 53.1536 55.7242C51.3833 57.4948 48.9829 58.4907 46.4792 58.4935V58.4923ZM44.0029 56.6783C44.8023 56.9391 45.6382 57.0713 46.4792 57.0697C48.6065 57.0675 50.6461 56.2214 52.1504 54.7172C53.6547 53.2129 54.5007 51.1733 54.5029 49.0459C54.5045 48.205 54.3724 47.3691 54.1115 46.5696L44.0029 56.6783ZM38.589 53.4948C38.5494 53.4946 38.5098 53.4911 38.4708 53.4841C38.3589 53.4649 38.2532 53.4191 38.1627 53.3506C38.0721 53.2821 37.9993 53.1928 37.9504 53.0903C37.3481 51.8273 37.0369 50.4452 37.0399 49.0459C37.043 46.5428 38.0387 44.1431 39.8087 42.3731C41.5787 40.6031 43.9784 39.6074 46.4815 39.6043C47.8808 39.6013 49.2629 39.9125 50.5259 40.5148C50.6285 40.5637 50.7178 40.6365 50.7863 40.727C50.8549 40.8176 50.9007 40.9233 50.92 41.0352C50.9392 41.1471 50.9313 41.262 50.8969 41.3703C50.8625 41.4785 50.8026 41.5769 50.7222 41.6572L39.0904 53.2914C38.9575 53.4245 38.7772 53.4993 38.589 53.4995V53.4948ZM46.4792 41.0234C45.2135 41.0241 43.9659 41.3241 42.8382 41.8989C41.7106 42.4737 40.7348 43.3071 39.9906 44.3309C39.2464 45.3547 38.7549 46.54 38.5561 47.79C38.3573 49.04 38.4569 50.3193 38.8468 51.5234L48.9531 41.4231C48.1544 41.1618 47.3195 41.0285 46.4792 41.0281V41.0234Z" fill="#4CAEFF" stroke="#4CAEFF" stroke-width="0.4"/>
<path d="M17.8122 28.4328H13.3775C13.1893 28.4328 13.0089 28.358 12.8758 28.2249C12.7427 28.0919 12.668 27.9114 12.668 27.7232C12.668 27.535 12.7427 27.3546 12.8758 27.2215C13.0089 27.0884 13.1893 27.0137 13.3775 27.0137H17.8122C18.0003 27.0137 18.1808 27.0884 18.3139 27.2215C18.447 27.3546 18.5217 27.535 18.5217 27.7232C18.5217 27.9114 18.447 28.0919 18.3139 28.2249C18.1808 28.358 18.0003 28.4328 17.8122 28.4328Z" fill="#1176CA" stroke="#1176CA" stroke-width="0.4"/>
<path d="M33.1885 28.4328H22.7818C22.5936 28.4328 22.4132 28.358 22.2801 28.2249C22.147 28.0919 22.0723 27.9114 22.0723 27.7232C22.0723 27.535 22.147 27.3546 22.2801 27.2215C22.4132 27.0884 22.5936 27.0137 22.7818 27.0137H33.1885C33.3766 27.0137 33.5571 27.0884 33.6902 27.2215C33.8233 27.3546 33.898 27.535 33.898 27.7232C33.898 27.9114 33.8233 28.0919 33.6902 28.2249C33.5571 28.358 33.3766 28.4328 33.1885 28.4328Z" fill="#1176CA" stroke="#1176CA" stroke-width="0.4"/>
<path d="M42.3953 28.4328H37.7916C37.6034 28.4328 37.4229 28.358 37.2899 28.2249C37.1568 28.0919 37.082 27.9114 37.082 27.7232C37.082 27.535 37.1568 27.3546 37.2899 27.2215C37.4229 27.0884 37.6034 27.0137 37.7916 27.0137H42.3953C42.5835 27.0137 42.764 27.0884 42.8971 27.2215C43.0301 27.3546 43.1049 27.535 43.1049 27.7232C43.1049 27.9114 43.0301 28.0919 42.8971 28.2249C42.764 28.358 42.5835 28.4328 42.3953 28.4328Z" fill="#1176CA" stroke="#1176CA" stroke-width="0.4"/>
<path d="M16.4049 35.3917H13.3775C13.1893 35.3917 13.0089 35.317 12.8758 35.1839C12.7427 35.0509 12.668 34.8704 12.668 34.6822C12.668 34.494 12.7427 34.3135 12.8758 34.1805C13.0089 34.0474 13.1893 33.9727 13.3775 33.9727H16.4049C16.5931 33.9727 16.7736 34.0474 16.9066 34.1805C17.0397 34.3135 17.1144 34.494 17.1144 34.6822C17.1144 34.8704 17.0397 35.0509 16.9066 35.1839C16.7736 35.317 16.5931 35.3917 16.4049 35.3917Z" fill="#1176CA" stroke="#1176CA" stroke-width="0.4"/>
<path d="M24.5092 35.3917H19.7955C19.6073 35.3917 19.4268 35.317 19.2938 35.1839C19.1607 35.0509 19.0859 34.8704 19.0859 34.6822C19.0859 34.494 19.1607 34.3135 19.2938 34.1805C19.4268 34.0474 19.6073 33.9727 19.7955 33.9727H24.5092C24.6974 33.9727 24.8779 34.0474 25.0109 34.1805C25.144 34.3135 25.2188 34.494 25.2188 34.6822C25.2188 34.8704 25.144 35.0509 25.0109 35.1839C24.8779 35.317 24.6974 35.3917 24.5092 35.3917Z" fill="#1176CA" stroke="#1176CA" stroke-width="0.4"/>
<path d="M33.1885 35.3917H28.7799C28.5917 35.3917 28.4112 35.317 28.2781 35.1839C28.1451 35.0509 28.0703 34.8704 28.0703 34.6822C28.0703 34.494 28.1451 34.3135 28.2781 34.1805C28.4112 34.0474 28.5917 33.9727 28.7799 33.9727H33.1885C33.3767 33.9727 33.5572 34.0474 33.6902 34.1805C33.8233 34.3135 33.898 34.494 33.898 34.6822C33.898 34.8704 33.8233 35.0509 33.6902 35.1839C33.5572 35.317 33.3767 35.3917 33.1885 35.3917Z" fill="#1176CA" stroke="#1176CA" stroke-width="0.4"/>
<path d="M21.1293 42.3507H13.3775C13.1893 42.3507 13.0089 42.276 12.8758 42.1429C12.7427 42.0098 12.668 41.8294 12.668 41.6412C12.668 41.453 12.7427 41.2725 12.8758 41.1395C13.0089 41.0064 13.1893 40.9316 13.3775 40.9316H21.1293C21.3175 40.9316 21.4979 41.0064 21.631 41.1395C21.7641 41.2725 21.8388 41.453 21.8388 41.6412C21.8388 41.8294 21.7641 42.0098 21.631 42.1429C21.4979 42.276 21.3175 42.3507 21.1293 42.3507Z" fill="#1176CA" stroke="#1176CA" stroke-width="0.4"/>
<path d="M28.883 42.3507H23.9635C23.7753 42.3507 23.5948 42.276 23.4617 42.1429C23.3287 42.0098 23.2539 41.8294 23.2539 41.6412C23.2539 41.453 23.3287 41.2725 23.4617 41.1395C23.5948 41.0064 23.7753 40.9316 23.9635 40.9316H28.883C29.0711 40.9316 29.2516 41.0064 29.3847 41.1395C29.5177 41.2725 29.5925 41.453 29.5925 41.6412C29.5925 41.8294 29.5177 42.0098 29.3847 42.1429C29.2516 42.276 29.0711 42.3507 28.883 42.3507Z" fill="#1176CA" stroke="#1176CA" stroke-width="0.4"/>
</svg>
