<svg width="65" height="65" viewBox="0 0 65 65" fill="none" xmlns="http://www.w3.org/2000/svg">
<g clip-path="url(#clip0_9040_10063)">
<path d="M47.6855 23.5498H53.627L48.8794 34.3498" stroke="#4CAEFF" stroke-width="2" stroke-miterlimit="10" stroke-linecap="round" stroke-linejoin="round"/>
<path d="M36.5534 31.1622H29.7715C29.7715 31.1622 33.3622 24.6536 33.9548 23.9265C34.5541 23.1914 35.1214 23.6499 35.1755 24.2984C35.2296 24.9469 35.1485 34.3498 35.1485 34.3498" stroke="#4CAEFF" stroke-width="2" stroke-miterlimit="10" stroke-linecap="round" stroke-linejoin="round"/>
<path d="M28.0149 34.4307C28.0149 34.4307 22.7603 34.4968 22.5114 34.4139C22.2626 34.3308 22.9104 33.8926 26.3555 28.9702C26.9989 28.051 27.3531 27.2754 27.5037 26.6257L27.5571 26.2079C27.5571 24.6816 26.3199 23.4443 24.7936 23.4443C23.4506 23.4443 22.3314 24.4023 22.082 25.6722" stroke="#4CAEFF" stroke-width="2" stroke-miterlimit="10" stroke-linecap="round" stroke-linejoin="round"/>
<path d="M43.9898 23.5498L39.6523 34.4555" stroke="#4CAEFF" stroke-width="2" stroke-miterlimit="10" stroke-linecap="round" stroke-linejoin="round"/>
<path d="M3.09124 35.4097C1.61858 32.0969 0.700966 28.6079 1.01149 25.3261C1.08881 24.5097 1.46675 23.7511 2.04654 23.1714L6.83026 18.3877C8.19907 17.0189 10.4639 17.1837 11.6201 18.7363L17.0235 25.9192C17.6008 26.6869 17.5163 27.7643 16.8259 28.4323L13.3258 31.8196C12.8961 32.2354 12.8148 32.8946 13.1307 33.4024V33.4026C17.7891 40.892 24.1073 47.2102 31.5968 51.8687C32.1045 52.1844 32.7637 52.1031 33.1796 51.6735L36.5667 48.1734C37.2348 47.4832 38.3124 47.3985 39.08 47.9759L46.2629 53.3793C47.8156 54.5354 47.9803 56.8003 46.6115 58.1691L41.8278 62.9528C41.2272 63.5533 40.4337 63.9212 39.5877 63.9957C28.0592 65.011 14.0238 50.9757 14.0238 50.9757C14.0238 50.9757 8.91864 45.8705 5.08885 39.289" stroke="#1176CA" stroke-width="2" stroke-miterlimit="10" stroke-linecap="round" stroke-linejoin="round"/>
<path d="M20.2207 11.2603C29.5403 2.90605 43.8759 3.20756 52.8333 12.165C62.1029 21.4346 62.1029 36.4634 52.8333 45.7331C50.2494 48.3169 47.2182 50.1805 43.9887 51.3238" stroke="#1176CA" stroke-width="2" stroke-miterlimit="10" stroke-linecap="round" stroke-linejoin="round"/>
<path d="M13.6465 21.0908C14.4902 18.6801 15.7345 16.3783 17.3794 14.2891" stroke="#1176CA" stroke-width="2" stroke-miterlimit="10" stroke-linecap="round" stroke-linejoin="round"/>
<path d="M57.1197 10.5117C66.7627 21.5092 66.3384 38.2555 55.8469 48.747C53.3623 51.2316 50.5268 53.1516 47.5 54.5069" stroke="#1176CA" stroke-width="2" stroke-miterlimit="10" stroke-linecap="round" stroke-linejoin="round"/>
<path d="M10.5117 17.4579C11.8661 14.4467 13.7799 11.6257 16.2532 9.15237C26.6246 -1.21907 43.1088 -1.7524 54.1089 7.55263" stroke="#1176CA" stroke-width="2" stroke-miterlimit="10" stroke-linecap="round" stroke-linejoin="round"/>
</g>
<defs>
<clipPath id="clip0_9040_10063">
<rect width="65" height="65" fill="white"/>
</clipPath>
</defs>
</svg>
