<svg width="35" height="35" viewBox="0 0 35 35" fill="none" xmlns="http://www.w3.org/2000/svg">
<path d="M6.85409 25.8122C5.39575 24.208 4.52075 22.458 4.52075 19.5413C4.52075 14.4372 8.16659 9.91634 13.2708 7.58301L14.5833 9.47884C9.77075 12.1038 8.74992 15.458 8.45825 17.6455C9.18742 17.208 10.2083 17.0622 11.2291 17.208C13.8541 17.4997 15.8958 19.5413 15.8958 22.3122C15.8958 23.6247 15.3124 24.9372 14.4374 25.958C13.4166 26.9788 12.2499 27.4163 10.7916 27.4163C9.18742 27.4163 7.72909 26.6872 6.85409 25.8122ZM20.7374 25.8122C19.2791 24.208 18.4041 22.458 18.4041 19.5413C18.4041 14.4372 22.0499 9.91634 27.1541 7.58301L28.4666 9.47884C23.6541 12.1038 22.6333 15.458 22.3416 17.6455C23.0708 17.208 24.0916 17.0622 25.1124 17.208C27.7374 17.4997 29.7791 19.5413 29.7791 22.3122C29.7791 23.6247 29.1958 24.9372 28.3208 25.958C27.4458 26.9788 26.1333 27.4163 24.6749 27.4163C23.0708 27.4163 21.6124 26.6872 20.7374 25.8122Z" fill="#1176CA"/>
</svg>
