<svg width="946" height="330" viewBox="0 0 946 330" fill="none" xmlns="http://www.w3.org/2000/svg">
<g opacity="0.3" clip-path="url(#clip0_8166_334)">
<path d="M504.707 304.464C504.438 304.115 503.934 304.05 503.583 304.323L502.166 305.421L501.738 304.873L503.23 303.717C503.232 303.713 503.238 303.711 503.241 303.707C503.249 303.7 503.259 303.69 503.268 303.684C503.522 303.457 503.818 303.188 504.051 302.835C504.749 301.786 504.907 300.392 504.474 299.099C504.062 297.869 503.037 296.783 501.81 296.266C501.552 296.159 501.263 296.074 500.949 296.018C500.451 295.93 499.915 295.938 499.361 296.048C498.965 296.125 498.377 296.303 497.841 296.695C497.839 296.699 497.833 296.702 497.831 296.706C497.829 296.71 497.822 296.712 497.822 296.712L492.528 300.82C492.505 300.835 492.482 300.85 492.457 300.869C492.433 300.884 492.412 300.905 492.392 300.926L478.684 311.555C478.478 311.716 478.31 311.927 478.201 312.168L478.199 312.172L476.12 316.756C475.92 317.204 475.882 317.696 475.998 318.153L475.195 318.765C474.842 319.033 474.776 319.537 475.043 319.89C475.12 319.991 475.217 320.07 475.322 320.123C475.589 320.254 475.915 320.232 476.168 320.041L476.947 319.443C477.004 319.477 477.057 319.508 477.116 319.538C477.514 319.734 477.967 319.806 478.418 319.724L483.382 318.856C483.485 318.839 483.591 318.807 483.687 318.77C483.706 318.764 483.721 318.756 483.74 318.749C483.866 318.696 483.986 318.624 484.096 318.541L500.47 305.85L500.899 306.398L493.603 312.052C493.255 312.321 493.189 312.825 493.463 313.176C493.539 313.277 493.634 313.351 493.74 313.403C494.006 313.535 494.337 313.514 494.587 313.317L502.42 307.246C502.456 307.227 502.494 307.204 502.528 307.178C502.561 307.153 502.584 307.127 502.614 307.1L504.568 305.584C504.915 305.319 504.976 304.813 504.707 304.464ZM478.136 318.148C477.959 318.176 477.783 318.116 477.663 317.988C477.648 317.965 477.633 317.942 477.614 317.916C477.603 317.906 477.597 317.898 477.586 317.887C477.505 317.742 477.496 317.569 477.565 317.419L478.917 314.432C479.502 315.642 480.333 316.716 481.353 317.589L478.136 318.148ZM483.371 317.072C481.726 316.048 480.501 314.463 479.924 312.61L492.795 302.63L496.256 307.084L483.371 317.072ZM502.712 301.946C502.589 302.132 502.404 302.304 502.225 302.463L497.532 306.1L494.066 301.645L498.778 297.99C499.02 297.821 499.334 297.686 499.671 297.622C500.021 297.553 500.362 297.543 500.658 297.594C500.856 297.629 501.035 297.681 501.179 297.742C501.984 298.082 502.678 298.815 502.947 299.611C503.221 300.42 503.129 301.316 502.712 301.946Z" fill="white"/>
<path d="M473.066 317.402C472.886 317.308 472.673 317.207 472.453 317.099C471.298 316.543 469.145 315.504 468.839 314.4C468.785 314.21 468.75 313.898 469.048 313.435C469.892 312.133 471.389 311.064 472.707 310.123L472.928 309.964C473.359 309.656 473.8 309.349 474.233 309.047C475.474 308.188 476.756 307.297 477.931 306.274C478.798 305.52 479.461 304.733 479.899 303.945C480.485 302.888 480.681 301.812 480.482 300.746C480.247 299.467 479.567 298.278 478.411 297.107C477.452 296.132 476.279 295.294 475.247 294.551C474.781 294.216 474.337 293.902 473.94 293.589C473.591 293.316 473.085 293.382 472.816 293.733C472.544 294.082 472.609 294.588 472.96 294.856C473.385 295.188 473.84 295.512 474.318 295.854C476.278 297.261 478.505 298.852 478.908 301.035C479.148 302.326 478.466 303.683 476.878 305.064C475.768 306.03 474.526 306.893 473.319 307.727C472.886 308.028 472.436 308.342 471.997 308.656L471.778 308.811C470.34 309.835 468.713 310.997 467.705 312.555C467.221 313.3 467.085 314.063 467.297 314.826C467.744 316.42 469.655 317.502 471.18 318.257C471.379 318.355 471.573 318.452 471.757 318.537C471.973 318.644 472.173 318.738 472.34 318.826C472.344 318.828 472.344 318.828 472.349 318.83C472.742 319.024 473.22 318.866 473.418 318.475C473.615 318.089 473.461 317.603 473.066 317.402Z" fill="white"/>
</g>
<g opacity="0.3" clip-path="url(#clip1_8166_334)">
<path fill-rule="evenodd" clip-rule="evenodd" d="M48.0782 41.2493L46.2563 37.5675L48.7695 34.923C49.252 34.4302 48.8976 33.5926 48.2004 33.5824L38.5478 33.5946C42.5372 29.6199 46.8684 25.9834 51.4815 22.7733C56.7266 19.0827 40.9883 4.06239 37.546 10.0824C30.4687 22.5872 20.4928 33.5572 8.69632 41.7683C3.5851 45.3562 19.1575 60.533 22.6319 54.4591C25.4018 49.5696 28.6065 44.9169 32.1906 40.5699L33.0834 50.1815C33.1548 50.8763 34.0206 51.1361 34.4762 50.6274L36.8687 47.8855L40.7166 49.3435C41.3804 49.5999 42.0276 48.9099 41.7147 48.2537L37.1902 38.7011L47.1231 42.3282C47.8681 42.4908 48.3966 41.927 48.0782 41.2493ZM23.524 31.2791L31.6754 38.7039C28.355 42.632 25.345 46.8102 22.6946 51.1988C21.1814 47.635 15.9632 42.3302 12.1221 41.2589C16.1667 38.239 19.9877 34.8965 23.524 31.2791ZM32.7105 37.4904L24.626 30.1309C25.5857 29.124 26.5206 28.0913 27.4383 27.0448L35.5228 34.4043C34.5706 35.423 33.6379 36.446 32.7105 37.4904ZM38.9036 10.8753C40.931 7.34425 53.6276 19.3491 50.5581 21.477C45.5518 24.9561 40.8846 28.9248 36.6206 33.2754L28.4692 25.8506C32.4065 21.1855 35.9225 16.1749 38.9036 10.8753ZM9.58434 43.0872C12.7716 40.8837 22.974 50.6617 21.2271 53.6965C19.088 57.5073 6.77636 45.039 9.58434 43.0872ZM36.9074 46.2215C36.5987 46.1034 36.2456 46.1885 36.0275 46.445L34.4874 48.2072L33.6225 38.8855C33.6246 38.8758 34.7166 37.6342 34.8353 37.5081C35.4765 39.1685 38.5075 45.2529 39.4258 47.1764L36.9074 46.2215ZM35.7071 36.5326C35.905 36.3224 36.826 35.307 36.9641 35.1851L46.3234 35.1697L44.7068 36.8645C44.4811 37.1092 44.4244 37.4618 44.5727 37.7577L45.7603 40.1657C43.0463 39.1782 38.3332 37.3185 35.7071 36.5326Z" fill="white"/>
</g>
<g opacity="0.3" clip-path="url(#clip2_8166_334)">
<path d="M66.1385 206.263C61.6279 208.02 57.7577 211.421 55.5012 216.087C50.9876 225.42 54.4498 236.67 63.4285 241.852C72.4069 247.034 83.8801 244.404 89.7032 235.827C95.5262 227.25 93.7382 215.617 85.6091 209.184C85.5367 209.123 85.4529 209.077 85.3625 209.049C85.2721 209.021 85.177 209.011 85.0829 209.021C84.9888 209.03 84.8976 209.059 84.8145 209.104C84.7315 209.149 84.6585 209.211 84.5997 209.285C84.5409 209.359 84.4976 209.444 84.4723 209.535C84.447 209.626 84.4403 209.722 84.4525 209.816C84.4647 209.909 84.4956 210 84.5433 210.081C84.5911 210.163 84.6548 210.234 84.7306 210.291C92.289 216.273 93.9472 227.06 88.5329 235.034C83.1185 243.008 72.4836 245.446 64.1354 240.628C55.787 235.81 52.5792 225.381 56.7757 216.704C60.972 208.026 71.1369 204.066 80.0974 207.618C80.1837 207.653 80.2759 207.669 80.3689 207.668C80.4618 207.667 80.5535 207.647 80.6389 207.61C80.7242 207.574 80.8015 207.52 80.8662 207.454C80.931 207.387 80.982 207.308 81.0163 207.222C81.0506 207.136 81.0676 207.043 81.0662 206.95C81.0649 206.857 81.0453 206.766 81.0085 206.68C80.9717 206.595 80.9184 206.518 80.8517 206.453C80.7851 206.388 80.7063 206.337 80.62 206.303C75.8014 204.393 70.6493 204.506 66.1385 206.263Z" fill="white"/>
<path fill-rule="evenodd" clip-rule="evenodd" d="M67.7014 206.451L68.7994 210.548L70.1653 210.182L69.0674 206.085L67.7014 206.451Z" fill="white"/>
<path fill-rule="evenodd" clip-rule="evenodd" d="M76.4849 239.231L77.5828 243.329L78.9488 242.963L77.8508 238.865L76.4849 239.231Z" fill="white"/>
<path fill-rule="evenodd" clip-rule="evenodd" d="M87.4839 220.181L87.8499 221.547L91.9474 220.449L91.5815 219.083L87.4839 220.181Z" fill="white"/>
<path fill-rule="evenodd" clip-rule="evenodd" d="M54.7029 228.965L55.0689 230.331L59.1664 229.233L58.8005 227.867L54.7029 228.965Z" fill="white"/>
<path fill-rule="evenodd" clip-rule="evenodd" d="M69.8972 214.646L72.7179 225.173L82.0638 230.568L82.7708 229.344L73.9323 224.241L71.2632 214.28L69.8972 214.646Z" fill="white"/>
<path d="M82.0257 208.525C81.9247 208.147 82.1487 207.76 82.5257 207.659C82.9028 207.558 83.2907 207.781 83.3917 208.159C83.4928 208.536 83.2688 208.923 82.8917 209.025C82.5147 209.126 82.1268 208.902 82.0257 208.525Z" fill="white"/>
</g>
<g opacity="0.3" clip-path="url(#clip3_8166_334)">
<path d="M936.621 189.853L930.29 178.888C930.19 178.715 930.026 178.589 929.834 178.538L916.862 175.062C914.078 174.316 911.205 175.974 910.459 178.759L902.349 209.026C901.603 211.811 903.261 214.683 906.046 215.429L914.91 217.804C915.311 217.912 915.723 217.674 915.831 217.272C915.938 216.871 915.7 216.459 915.299 216.351L906.435 213.976C904.451 213.445 903.27 211.399 903.802 209.415L911.912 179.148C912.443 177.165 914.489 175.983 916.473 176.515L929.144 179.91L935.162 190.335L930.609 207.33C930.501 207.731 930.739 208.143 931.141 208.251C931.542 208.358 931.954 208.12 932.062 207.719L936.696 190.423C936.748 190.231 936.72 190.026 936.621 189.853Z" fill="white"/>
<path d="M936.164 189.503L931.84 188.344C929.857 187.813 928.676 185.766 929.207 183.783L930.366 179.459C930.473 179.058 930.235 178.645 929.834 178.538C929.433 178.43 929.02 178.668 928.913 179.07L927.754 183.393C927.008 186.178 928.666 189.051 931.451 189.797L935.775 190.955C936.176 191.063 936.588 190.825 936.696 190.423C936.804 190.022 936.565 189.61 936.164 189.503Z" fill="white"/>
<path d="M912.134 210.869L907.594 209.653C907.193 209.545 906.781 209.783 906.673 210.184C906.566 210.586 906.804 210.998 907.205 211.105L911.745 212.322C912.146 212.429 912.558 212.191 912.666 211.79C912.773 211.389 912.535 210.977 912.134 210.869Z" fill="white"/>
<path d="M931.045 211.53C930.837 211.17 930.377 211.047 930.017 211.255L921.52 216.161C921.16 216.368 921.037 216.828 921.244 217.188C921.348 217.368 921.515 217.489 921.701 217.538C921.887 217.588 922.092 217.567 922.272 217.463L930.769 212.557C931.129 212.349 931.252 211.89 931.045 211.53Z" fill="white"/>
<path d="M929.739 197.05L912.228 192.357C911.827 192.25 911.414 192.488 911.307 192.889C911.199 193.29 911.437 193.703 911.839 193.81L929.35 198.502C929.751 198.61 930.164 198.372 930.271 197.971C930.379 197.569 930.14 197.157 929.739 197.05Z" fill="white"/>
<path d="M928.604 201.287L911.093 196.595C910.691 196.487 910.279 196.725 910.172 197.127C910.064 197.528 910.302 197.94 910.703 198.048L928.215 202.74C928.616 202.847 929.028 202.609 929.136 202.208C929.243 201.807 929.005 201.394 928.604 201.287Z" fill="white"/>
</g>
<g opacity="0.3" clip-path="url(#clip4_8166_334)">
<path d="M244.776 293.261L244.777 293.263C244.813 293.397 244.823 293.536 244.806 293.674C244.788 293.811 244.744 293.943 244.676 294.064C244.676 294.064 244.675 294.064 244.675 294.064L238.515 304.735C238.367 304.975 238.135 305.15 237.865 305.228L221.027 309.739C220.013 310.011 218.933 309.869 218.023 309.344C217.114 308.819 216.451 307.954 216.179 306.94L207.906 276.066C207.635 275.052 207.777 273.971 208.302 273.062C208.827 272.153 209.691 271.489 210.705 271.218L233.159 265.201C234.173 264.93 235.254 265.072 236.163 265.597C237.072 266.122 237.736 266.986 238.008 268L244.776 293.261ZM242.083 292.893L242.47 292.789L242.366 292.403L235.974 268.545C235.846 268.071 235.536 267.666 235.11 267.42C234.685 267.175 234.179 267.108 233.704 267.235L211.25 273.252C210.776 273.379 210.371 273.689 210.125 274.115C209.88 274.541 209.813 275.046 209.94 275.521L218.213 306.395C218.34 306.87 218.651 307.274 219.076 307.52L219.276 307.174L219.076 307.52C219.502 307.766 220.008 307.832 220.482 307.705L235.919 303.569L236.306 303.465L236.202 303.079L235.074 298.869C234.802 297.855 234.945 296.774 235.469 295.865C235.994 294.956 236.859 294.292 237.873 294.021L242.083 292.893ZM241.099 296.043L241.582 295.207L240.65 295.457L238.418 296.055C237.944 296.182 237.539 296.492 237.293 296.918C237.047 297.343 236.981 297.849 237.108 298.324L237.706 300.555L237.956 301.488L238.439 300.652L241.099 296.043Z" fill="white" stroke="#1176CA" stroke-width="0.8"/>
<path d="M228.831 293.563C229.003 293.799 229.243 293.978 229.519 294.076C229.795 294.174 230.094 294.186 230.377 294.111C230.55 294.066 230.713 293.987 230.856 293.877L228.831 293.563ZM228.831 293.563L226.652 290.597L228.831 293.563ZM228.052 288.28L228.053 288.281L230.847 292.088C230.847 292.088 230.847 292.088 230.847 292.089C231.011 292.314 231.078 292.594 231.036 292.869C230.993 293.144 230.843 293.39 230.619 293.555L230.619 293.555L230.612 293.56C230.512 293.637 230.398 293.692 230.277 293.724L230.274 293.724C230.069 293.779 229.853 293.77 229.653 293.699C229.453 293.628 229.279 293.498 229.154 293.327L229.153 293.326L226.975 290.36L226.813 290.14L226.549 290.21L221.918 291.451L221.655 291.522L221.624 291.792L221.209 295.408L221.207 295.424L221.207 295.44C221.202 295.585 221.167 295.727 221.105 295.858L221.466 296.03L221.105 295.858C221.043 295.989 220.954 296.105 220.845 296.2C220.735 296.295 220.607 296.366 220.469 296.41C220.331 296.453 220.185 296.467 220.041 296.452L219.998 296.849L220.041 296.452C219.897 296.436 219.758 296.391 219.632 296.319C219.507 296.247 219.397 296.15 219.31 296.034C219.224 295.918 219.162 295.786 219.129 295.644C219.096 295.503 219.093 295.357 219.119 295.215L219.121 295.2L219.123 295.186L220.65 281.242C220.65 281.241 220.65 281.241 220.65 281.241C220.675 281.031 220.761 280.834 220.899 280.674L220.602 280.418L220.899 280.674C221.037 280.514 221.22 280.4 221.424 280.345C221.628 280.29 221.843 280.298 222.043 280.368C222.242 280.437 222.415 280.565 222.541 280.734C222.541 280.734 222.542 280.734 222.542 280.735L228.052 288.28ZM221.966 288.694L221.903 289.275L222.467 289.124L224.909 288.47L225.474 288.318L225.128 287.847L223.065 285.03L222.457 284.2L222.345 285.223L221.966 288.694Z" fill="white" stroke="#1176CA" stroke-width="0.8"/>
<path d="M230.186 280.625L230.082 280.239L229.696 280.342L228.292 280.718C228.023 280.791 227.735 280.753 227.493 280.613C227.251 280.473 227.075 280.243 227.003 279.974C226.93 279.704 226.968 279.417 227.108 279.175C227.248 278.933 227.478 278.757 227.747 278.684L229.151 278.308L229.537 278.205L229.433 277.818L229.057 276.415C228.985 276.145 229.023 275.858 229.163 275.616C229.302 275.374 229.532 275.198 229.802 275.125C230.072 275.053 230.359 275.091 230.601 275.231C230.843 275.37 231.019 275.6 231.091 275.87L231.467 277.273L231.571 277.66L231.957 277.556L233.361 277.18C233.63 277.108 233.918 277.146 234.16 277.285C234.401 277.425 234.578 277.655 234.65 277.925C234.722 278.194 234.685 278.482 234.545 278.724C234.405 278.965 234.175 279.142 233.906 279.214L232.502 279.59L232.116 279.694L232.219 280.08L232.596 281.483C232.668 281.753 232.63 282.041 232.49 282.282C232.351 282.524 232.121 282.701 231.851 282.773C231.581 282.845 231.294 282.807 231.052 282.668C230.81 282.528 230.634 282.298 230.562 282.028L230.186 280.625Z" fill="white" stroke="#1176CA" stroke-width="0.8"/>
</g>
<g opacity="0.3">
<path fill-rule="evenodd" clip-rule="evenodd" d="M740.583 278.256C740.385 278.181 740.241 277.993 740.232 277.768C740.221 277.468 740.455 277.216 740.755 277.205L748.754 276.903L731.83 260.675L708.399 261.558L714.176 267.099C714.393 267.306 714.4 267.65 714.192 267.866C713.985 268.083 713.64 268.091 713.424 267.883L706.722 261.456C706.564 261.305 706.512 261.074 706.59 260.87C706.667 260.667 706.858 260.529 707.077 260.522L732.02 259.58C732.166 259.575 732.309 259.629 732.415 259.73L750.431 277.006C750.588 277.157 750.64 277.387 750.563 277.591C750.486 277.795 750.293 277.932 750.075 277.94L740.796 278.291C740.721 278.294 740.648 278.281 740.583 278.256Z" fill="white"/>
<path fill-rule="evenodd" clip-rule="evenodd" d="M714.154 268.091L711.041 276.278C720.993 277.762 728.576 280.645 737 286.149L740.113 277.961C731.697 272.432 724.116 269.549 714.154 268.091ZM736.912 287.37C736.861 287.35 736.812 287.326 736.766 287.295C728.216 281.65 720.594 278.751 710.453 277.289C710.23 277.258 710.037 277.128 709.923 276.934C709.809 276.741 709.79 276.51 709.87 276.299L713.293 267.298C713.383 267.061 713.625 266.917 713.876 266.953C724.368 268.437 732.249 271.433 741.075 277.295C741.287 277.435 741.373 277.704 741.283 277.941L737.86 286.942C737.78 287.152 737.613 287.313 737.399 287.382C737.236 287.433 737.066 287.428 736.912 287.37Z" fill="white"/>
<path fill-rule="evenodd" clip-rule="evenodd" d="M744.884 290.998C744.604 290.891 744.462 290.578 744.569 290.297L749.548 277.204C749.654 276.924 749.968 276.783 750.248 276.89C750.529 276.996 750.67 277.31 750.563 277.59L745.585 290.683C745.478 290.964 745.164 291.104 744.884 290.998Z" fill="white"/>
<path fill-rule="evenodd" clip-rule="evenodd" d="M740.062 297.562L744.125 299.107L746.142 293.802C746.568 292.682 746.004 291.424 744.884 290.998C743.764 290.572 742.505 291.137 742.079 292.257L740.062 297.562ZM744.247 300.316L739.168 298.385C738.888 298.278 738.747 297.964 738.854 297.684L741.064 291.871C741.703 290.191 743.589 289.344 745.27 289.983C746.95 290.622 747.797 292.508 747.158 294.188L744.948 300.001C744.841 300.281 744.527 300.422 744.247 300.316Z" fill="white"/>
</g>
<g opacity="0.3" clip-path="url(#clip5_8166_334)">
<path d="M776.574 7.85995C776.196 7.75858 775.809 7.99486 775.713 8.37473L774.977 11.1192C774.864 11.5025 775.088 11.9038 775.474 12.0071C775.86 12.1105 776.255 11.8753 776.349 11.4866L777.084 8.74213C777.193 8.35685 776.962 7.95757 776.574 7.85995ZM762.57 9.71031C761.954 9.54537 761.45 10.2129 761.776 10.7604L763.196 13.2213C763.393 13.5585 763.825 13.6733 764.163 13.4805C764.501 13.2851 764.619 12.8527 764.425 12.5134L763.006 10.0531C762.882 9.89217 762.731 9.7599 762.569 9.71366L762.57 9.71031ZM787.251 16.546L784.791 17.9669C784.454 18.1639 784.339 18.5969 784.534 18.9356C784.73 19.274 785.162 19.3911 785.502 19.1948L787.961 17.7735C788.526 17.4573 788.408 16.612 787.779 16.4626C787.601 16.4148 787.409 16.4522 787.251 16.546ZM771.273 46.8883L772.342 42.8962L776.041 37.5907C779.591 36.1917 782.283 33.203 783.279 29.5091C785.003 23.0755 781.177 16.445 774.747 14.7221C768.317 12.9992 761.688 16.828 759.964 23.2614C758.984 26.9374 759.804 30.8515 762.149 33.8338L762.741 40.3256L761.673 44.3164C761.647 44.4149 761.642 44.5193 761.665 44.6547L762.297 47.7591C762.351 48.0236 762.549 48.2339 762.809 48.3035L768.295 49.7735C768.555 49.8431 768.832 49.7589 769.01 49.5578L771.079 47.221C771.183 47.107 771.242 47.0032 771.273 46.8883ZM781.908 29.1407C781.01 32.4711 778.558 35.1599 775.325 36.3586C775.189 36.4084 775.072 36.4993 774.989 36.618L771.392 41.7785L764.122 39.8306L763.545 33.5131C763.533 33.3708 763.478 33.2365 763.388 33.1273C761.216 30.4756 760.452 26.942 761.336 23.629C762.861 17.9374 768.691 14.5702 774.38 16.094C780.068 17.6183 783.433 23.4491 781.908 29.1407ZM753.974 20.9334C753.589 20.8304 753.193 21.0472 753.089 21.4318C752.986 21.8165 753.219 22.2108 753.606 22.3055L756.348 23.0403C756.733 23.1433 757.129 22.9266 757.232 22.5419C757.336 22.1573 757.102 21.7632 756.716 21.6682L753.974 20.9334ZM786.889 29.753C786.504 29.65 786.108 29.8668 786.005 30.2514C785.902 30.6361 786.135 31.0304 786.521 31.1251L789.264 31.8601C789.648 31.9631 790.045 31.7464 790.148 31.3617C790.251 30.977 790.018 30.5829 789.632 30.488L786.889 29.753ZM763.962 41.2573L770.819 43.0947L770.086 45.835L763.228 43.9975L763.962 41.2573ZM763.281 45.4828L769.296 47.0945L768.239 48.2872L763.6 47.0443L763.281 45.4828Z" fill="white"/>
</g>
<g opacity="0.3" clip-path="url(#clip6_8166_334)">
<path d="M488.596 36.9248L468.911 48.29C467.103 49.3341 464.78 48.7118 463.736 46.9033L449.34 21.9688C448.296 20.1604 448.918 17.8379 450.727 16.7938L470.412 5.42857C472.22 4.38448 474.543 5.00681 475.587 6.81522L489.983 31.7497C491.027 33.5581 490.405 35.8807 488.596 36.9248ZM451.484 18.1061C450.399 18.7327 450.026 20.1259 450.652 21.2112L465.048 46.1457C465.675 47.231 467.068 47.6043 468.153 46.9777L487.838 35.6124C488.924 34.9858 489.297 33.5927 488.67 32.5074L474.275 7.5729C473.648 6.48759 472.255 6.11431 471.169 6.74091L451.484 18.1061Z" fill="white"/>
<path d="M473.849 17.4426L459.413 25.7771C458.328 26.4037 456.935 26.0304 456.308 24.9451L454.793 22.3204C454.166 21.2351 454.539 19.842 455.625 19.2154L470.061 10.8809C471.146 10.2543 472.539 10.6276 473.166 11.7129L474.681 14.3376C475.308 15.4229 474.934 16.816 473.849 17.4426ZM456.382 20.5277C456.02 20.7369 455.896 21.2006 456.105 21.5628L457.62 24.1874C457.83 24.5497 458.293 24.6739 458.655 24.4648L473.091 16.1303C473.453 15.9212 473.578 15.4575 473.369 15.0953L471.853 12.4706C471.644 12.1084 471.18 11.9841 470.818 12.1933L456.382 20.5277Z" fill="white"/>
<path d="M465.928 32.5147C465.565 32.7238 465.102 32.5996 464.893 32.2374L462.62 28.3003C462.41 27.9381 462.535 27.4744 462.897 27.2653C463.259 27.0562 463.723 27.1804 463.932 27.5427L466.205 31.4797C466.414 31.8419 466.29 32.3056 465.928 32.5147Z" fill="white"/>
<path d="M466.76 29.4097L462.823 31.6828C462.46 31.8919 461.997 31.7676 461.788 31.4054C461.578 31.0432 461.703 30.5795 462.065 30.3704L466.002 28.0974C466.364 27.8883 466.828 28.0125 467.037 28.3747C467.246 28.7369 467.122 29.2006 466.76 29.4097Z" fill="white"/>
<path d="M477.258 23.3482L473.321 25.6212C472.959 25.8304 472.495 25.7061 472.286 25.3439C472.077 24.9817 472.201 24.518 472.563 24.3089L476.5 22.0359C476.863 21.8267 477.326 21.951 477.535 22.3132C477.745 22.6754 477.62 23.1391 477.258 23.3482Z" fill="white"/>
<path d="M480.668 29.2537L476.731 31.5268C476.369 31.7359 475.905 31.6116 475.696 31.2494C475.487 30.8872 475.611 30.4235 475.973 30.2144L479.91 27.9414C480.272 27.7323 480.736 27.8565 480.945 28.2187C481.154 28.5809 481.03 29.0446 480.668 29.2537Z" fill="white"/>
<path d="M482.941 33.1907L479.004 35.4638C478.641 35.6729 478.178 35.5487 477.969 35.1864C477.76 34.8242 477.884 34.3606 478.246 34.1514L482.183 31.8784C482.545 31.6693 483.009 31.7935 483.218 32.1557C483.427 32.5179 483.303 32.9816 482.941 33.1907Z" fill="white"/>
<path d="M468.505 41.5252C468.337 41.6222 468.132 41.6549 467.93 41.6019C467.526 41.4937 467.286 41.0777 467.394 40.674L469.058 34.464C469.166 34.0603 469.582 33.8201 469.986 33.9283C470.39 34.0364 470.63 34.4525 470.522 34.8561L468.858 41.0662C468.804 41.267 468.673 41.4283 468.505 41.5252Z" fill="white"/>
<path d="M472.442 39.2522C472.274 39.3492 472.069 39.3819 471.867 39.3288L465.657 37.6648C465.253 37.5567 465.013 37.1407 465.121 36.737C465.229 36.3333 465.645 36.0932 466.049 36.2013L472.259 37.8653C472.663 37.9735 472.903 38.3895 472.795 38.7931C472.741 38.9939 472.61 39.1552 472.442 39.2522Z" fill="white"/>
</g>
<defs>
<clipPath id="clip0_8166_334">
<rect width="33.8112" height="33.8112" fill="white" transform="translate(477.614 284) rotate(26.3283)"/>
</clipPath>
<clipPath id="clip1_8166_334">
<rect width="50.7055" height="50.7055" fill="white" transform="translate(10.8103 2.11963) rotate(12.3099)"/>
</clipPath>
<clipPath id="clip2_8166_334">
<rect width="45.2434" height="45.2434" fill="white" transform="translate(45.6182 208.71) rotate(-15)"/>
</clipPath>
<clipPath id="clip3_8166_334">
<rect width="41.7911" height="41.7911" fill="white" transform="translate(905.435 172) rotate(15)"/>
</clipPath>
<clipPath id="clip4_8166_334">
<rect width="46.4918" height="46.4918" fill="white" transform="translate(198.623 271.033) rotate(-15)"/>
</clipPath>
<clipPath id="clip5_8166_334">
<rect width="45.4709" height="45.4709" fill="white" transform="translate(754.992 0.605469) rotate(15)"/>
</clipPath>
<clipPath id="clip6_8166_334">
<rect width="36.3687" height="36.3687" fill="white" transform="translate(444.821 20.2034) rotate(-30)"/>
</clipPath>
</defs>
</svg>
