<svg width="68" height="41" viewBox="0 0 68 41" fill="none" xmlns="http://www.w3.org/2000/svg">
<rect width="67.6046" height="40.9976" rx="5" fill="white"/>
<path d="M24.1036 28.8501C23.6389 28.8501 23.213 28.712 22.8258 28.436C22.4386 28.1599 22.1731 27.7728 22.0293 27.2748L22.7014 27.0069C22.7954 27.3533 22.9696 27.6375 23.2241 27.8594C23.4785 28.0814 23.7772 28.1924 24.1202 28.1924C24.4631 28.1924 24.7535 28.103 24.9913 27.9244C25.2292 27.7404 25.3481 27.4913 25.3481 27.1774C25.3481 26.9067 25.2458 26.6848 25.0411 26.5115C24.842 26.3329 24.5129 26.1678 24.0538 26.0162L23.6804 25.8863C23.26 25.7401 22.9171 25.548 22.6516 25.3098C22.3861 25.0716 22.2533 24.7414 22.2533 24.3192C22.2533 24.0431 22.3308 23.7887 22.4856 23.5559C22.6405 23.3177 22.8562 23.1282 23.1328 22.9875C23.4094 22.8467 23.7191 22.7764 24.0621 22.7764C24.405 22.7764 24.7037 22.8386 24.9582 22.9631C25.2126 23.0876 25.4145 23.2392 25.5638 23.4178C25.7187 23.5965 25.8266 23.7724 25.8874 23.9456L25.2237 24.2217C25.1684 24.0214 25.0411 23.8401 24.842 23.6777C24.6484 23.5153 24.3912 23.4341 24.0704 23.4341C23.7661 23.4341 23.5062 23.518 23.2905 23.6858C23.0747 23.8536 22.9669 24.0647 22.9669 24.3192C22.9669 24.5465 23.0581 24.7333 23.2407 24.8794C23.4232 25.0202 23.6998 25.1528 24.0704 25.2773L24.4603 25.4072C24.9637 25.5859 25.3564 25.8105 25.6385 26.0812C25.9206 26.3464 26.0617 26.7091 26.0617 27.1693C26.0617 27.5428 25.9621 27.8567 25.763 28.1112C25.5694 28.3656 25.3232 28.5524 25.0245 28.6714C24.7258 28.7905 24.4189 28.8501 24.1036 28.8501Z" fill="black"/>
<path d="M29.5842 22.9063H33.0191V23.564H30.2811V25.4884H32.7536V26.138H30.2811V28.0624H33.0191V28.7202H29.5842V22.9063Z" fill="black"/>
<path d="M39.2689 28.8501C38.6936 28.8501 38.1709 28.7175 37.7008 28.4522C37.2306 28.187 36.86 27.8243 36.589 27.3641C36.3235 26.8986 36.1907 26.3816 36.1907 25.8132C36.1907 25.2448 36.3235 24.7306 36.589 24.2704C36.86 23.8049 37.2306 23.4395 37.7008 23.1742C38.1709 22.909 38.6936 22.7764 39.2689 22.7764C39.7114 22.7764 40.1152 22.8603 40.4803 23.0281C40.8509 23.1905 41.1717 23.4233 41.4427 23.7264L40.9366 24.2055C40.7098 23.9402 40.4609 23.7453 40.1899 23.6208C39.9244 23.4963 39.6174 23.4341 39.2689 23.4341C38.8375 23.4341 38.442 23.5342 38.0824 23.7345C37.7229 23.9294 37.4353 24.2082 37.2195 24.5709C37.0093 24.9282 36.9042 25.3423 36.9042 25.8132C36.9042 26.2842 37.0093 26.701 37.2195 27.0637C37.4353 27.421 37.7229 27.6998 38.0824 27.9C38.442 28.0949 38.8375 28.1924 39.2689 28.1924C39.988 28.1924 40.5992 27.9028 41.1026 27.3235L41.617 27.8107C41.3404 28.1301 41.0002 28.3845 40.5964 28.574C40.1926 28.7581 39.7501 28.8501 39.2689 28.8501Z" fill="black"/>
<path d="M47.1944 28.8501C46.7684 28.8501 46.3895 28.7553 46.0577 28.5659C45.7258 28.371 45.4686 28.103 45.286 27.762C45.1035 27.4156 45.0122 27.0177 45.0122 26.5684V22.9063H45.7175V26.6009C45.7175 27.0718 45.8447 27.4562 46.0991 27.7539C46.3536 28.0462 46.7187 28.1924 47.1944 28.1924C47.6701 28.1924 48.0351 28.0462 48.2896 27.7539C48.5495 27.4562 48.6795 27.0718 48.6795 26.6009V22.9063H49.3765V26.5684C49.3765 27.0177 49.288 27.4156 49.111 27.762C48.9395 28.1085 48.6878 28.3764 48.3559 28.5659C48.0296 28.7553 47.6424 28.8501 47.1944 28.8501Z" fill="black"/>
<path d="M53.0217 22.9063H55.0296C55.356 22.9063 55.6602 22.9794 55.9423 23.1255C56.2244 23.2717 56.4484 23.4774 56.6144 23.7426C56.7859 24.0025 56.8716 24.2975 56.8716 24.6277C56.8716 24.8984 56.808 25.1501 56.6808 25.3829C56.5591 25.6156 56.3876 25.8105 56.1663 25.9675C55.9506 26.1245 55.71 26.23 55.4445 26.2842L55.4279 26.3085L57.1039 28.6877V28.7202H56.2742L54.6563 26.3491H53.7187V28.7202H53.0217V22.9063ZM54.9882 25.7077C55.1928 25.7077 55.3836 25.6617 55.5606 25.5696C55.7432 25.4776 55.887 25.3504 55.9921 25.188C56.1027 25.0202 56.158 24.8334 56.158 24.6277C56.158 24.4491 56.111 24.2786 56.017 24.1162C55.923 23.9538 55.7902 23.8211 55.6187 23.7183C55.4528 23.6154 55.2592 23.564 55.0379 23.564H53.7187V25.7077H54.9882Z" fill="black"/>
<path d="M60.3724 22.9063H63.8074V23.564H61.0694V25.4884H63.5419V26.138H61.0694V28.0624H63.8074V28.7202H60.3724V22.9063Z" fill="black"/>
<rect x="3.79834" y="3.79492" width="60.0086" height="6.83293" fill="#EDEDED"/>
<path d="M0 31.8896H67.6046V36.0002C67.6046 38.7616 65.366 41.0002 62.6046 41.0002H5C2.23858 41.0002 0 38.7616 0 36.0002V31.8896Z" fill="#CD443E"/>
<path d="M51.9655 20.1877C52.2095 19.7555 52.3303 19.2725 52.3303 18.7424C52.3303 18.2186 52.2094 17.7391 51.9657 17.3074C51.7285 16.8754 51.3928 16.5365 50.9612 16.2928C50.5284 16.0418 50.0414 15.9176 49.5042 15.9176C48.9608 15.9176 48.4705 16.0416 48.0373 16.2928C47.6058 16.5364 47.2671 16.8751 47.0234 17.3066L47.0234 17.3066L47.0225 17.3082C46.7856 17.7399 46.6682 18.219 46.6682 18.7424C46.6682 19.2719 46.7855 19.7544 47.0225 20.1864L47.0225 20.1864L47.0239 20.1889C47.2677 20.6136 47.6061 20.9515 48.0366 21.2014L48.0366 21.2014L48.0381 21.2023C48.4712 21.4466 48.9612 21.5671 49.5042 21.5671C50.041 21.5671 50.5276 21.4464 50.9604 21.2023L50.9604 21.2023L50.962 21.2014C51.3927 20.9514 51.7281 20.6131 51.9655 20.1877ZM51.9655 20.1877C51.9654 20.1878 51.9653 20.1879 51.9653 20.188L51.8347 20.1143M51.9655 20.1877C51.9655 20.1876 51.9656 20.1874 51.9657 20.1873L51.8347 20.1143M51.8347 20.1143C51.6108 20.5156 51.2948 20.8347 50.8867 21.0716M51.8347 20.1143C52.0651 19.7063 52.1803 19.249 52.1803 18.7424C52.1803 18.2423 52.0651 17.7883 51.8347 17.3803C51.6108 16.9724 51.2948 16.6532 50.8867 16.423V21.0716M50.8867 21.0716C50.4785 21.3019 50.0177 21.4171 49.5042 21.4171C48.9841 21.4171 48.52 21.3019 48.1119 21.0716C47.7037 20.8347 47.3844 20.5156 47.154 20.1143C46.9302 19.7063 46.8182 19.249 46.8182 18.7424C46.8182 18.2423 46.9302 17.7883 47.154 17.3803C47.3844 16.9724 47.7037 16.6532 48.1119 16.423L50.8867 21.0716ZM41.9204 14.0424H41.7704V14.1924V21.2592V21.4092H41.9204H46.2456H46.3956V21.2592V19.9958V19.8458H46.2456H43.4035V14.1924V14.0424H43.2535H41.9204ZM54.1027 21.2116L54.1027 21.2116L54.1043 21.2125C54.5304 21.4499 55.0103 21.5671 55.54 21.5671C56.1155 21.5671 56.6207 21.4402 57.0497 21.1802C57.4768 20.9212 57.8054 20.557 58.0347 20.0917L58.1041 19.9508L57.9602 19.888L56.7851 19.3747L56.656 19.3184L56.5916 19.4436C56.4806 19.6596 56.3389 19.8146 56.1689 19.9165C55.9988 20.0186 55.7912 20.0728 55.54 20.0728C55.1837 20.0728 54.8982 19.953 54.6717 19.7154C54.453 19.4792 54.3372 19.1601 54.3372 18.7424C54.3372 18.3318 54.4527 18.0158 54.6717 17.7792C54.8982 17.5415 55.1837 17.4218 55.54 17.4218C55.7892 17.4218 55.99 17.4733 56.1495 17.5684C56.3082 17.663 56.4357 17.8064 56.5301 18.0068L56.5911 18.1365L56.7234 18.0814L57.9084 17.5879L58.0453 17.5309L57.9899 17.3933C57.8001 16.9228 57.489 16.5581 57.0588 16.3041C56.6298 16.0442 56.1214 15.9176 55.54 15.9176C55.0095 15.9176 54.5291 16.0384 54.1027 16.283C53.6774 16.5268 53.3422 16.8656 53.0987 17.2967L53.0983 17.2974C52.8606 17.7236 52.7436 18.2066 52.7436 18.7424C52.7436 19.2782 52.8606 19.764 53.0978 20.1963L53.0978 20.1963L53.0987 20.1979C53.3422 20.629 53.6774 20.9677 54.1027 21.2116ZM58.8307 14.0424H58.6807V14.1924V21.2592V21.4092H58.8307H60.1243H60.2743V21.2592V19.7626L60.7479 19.2964L62.0214 21.3385L62.0655 21.4092H62.1487H63.6793H63.8293V21.2592V21.1802V21.135L63.8043 21.0973L61.8781 18.1904L63.6953 16.4117L63.7404 16.3676V16.3045V16.2256V16.0756H63.5904H62.0006H61.9382L61.8942 16.1198L60.2743 17.7477V14.1924V14.0424H60.1243H58.8307ZM50.1219 19.9144C49.9345 20.0198 49.7296 20.0728 49.5042 20.0728C49.2788 20.0728 49.0739 20.0198 48.8865 19.9144C48.7013 19.8103 48.5491 19.6596 48.4301 19.4581C48.3192 19.253 48.2619 19.0157 48.2619 18.7424C48.2619 18.4685 48.3194 18.2351 48.4296 18.0373C48.5487 17.8354 48.7011 17.6844 48.8865 17.5802C49.0739 17.4748 49.2788 17.4218 49.5042 17.4218C49.7296 17.4218 49.9345 17.4748 50.1219 17.5802C50.307 17.6842 50.4557 17.8347 50.5681 18.0358C50.6789 18.2339 50.7367 18.4679 50.7367 18.7424C50.7367 19.0241 50.6786 19.2611 50.5681 19.4587C50.4557 19.6599 50.307 19.8103 50.1219 19.9144Z" fill="#CB2F33" stroke="#CB2F33" stroke-width="0.3"/>
<path d="M40.1201 17.254C39.9162 16.8399 39.6131 16.5126 39.2135 16.2744C38.8109 16.0344 38.3356 15.9177 37.7937 15.9177C37.2802 15.9177 36.8116 16.0464 36.3918 16.3052C35.9742 16.5626 35.6466 16.911 35.4105 17.3481C35.1743 17.7788 35.0565 18.2477 35.0565 18.7522C35.0565 19.2818 35.1737 19.7643 35.4107 20.1963L35.4107 20.1963L35.4122 20.1988C35.6558 20.6233 35.991 20.9582 36.4156 21.2018C36.8417 21.4461 37.3188 21.5671 37.8431 21.5671C38.9426 21.5671 39.7728 21.0918 40.3135 20.1495L40.3932 20.0106L40.2495 19.9401L39.2027 19.4269L39.0767 19.3651L39.0067 19.4867C38.8946 19.6814 38.7417 19.8374 38.5461 19.956C38.3631 20.0644 38.1375 20.1222 37.8628 20.1222C37.539 20.1222 37.267 20.0303 37.0394 19.8501C36.8588 19.6975 36.7286 19.4835 36.6549 19.1983H40.2525H40.3826L40.401 19.0696C40.4219 18.9238 40.4322 18.7719 40.4322 18.6141C40.4322 18.1191 40.3289 17.6648 40.1201 17.254ZM40.1201 17.254C40.1199 17.2537 40.1198 17.2534 40.1196 17.2531L39.9859 17.3211L40.1205 17.2549C40.1204 17.2546 40.1202 17.2543 40.1201 17.254ZM22.6526 19.2739L22.5243 19.3244L22.5638 19.4565C22.7628 20.1216 23.1123 20.6443 23.616 21.0148C24.1171 21.3835 24.6951 21.5671 25.3441 21.5671C25.7596 21.5671 26.1613 21.4839 26.5482 21.3183C26.947 21.1504 27.2745 20.8973 27.5279 20.5596L27.5288 20.5584C27.7875 20.2065 27.9134 19.7826 27.9134 19.2951C27.9134 18.705 27.7389 18.2149 27.3788 17.84C27.0345 17.4682 26.5432 17.1778 25.9162 16.9621L25.9162 16.9621L25.9149 16.9617L25.4712 16.8139C25.4711 16.8138 25.471 16.8138 25.4709 16.8138C25.0687 16.6776 24.7969 16.5434 24.6402 16.4163C24.4927 16.2902 24.4276 16.1497 24.4276 15.9887C24.4276 15.8224 24.4944 15.6926 24.6413 15.5877L24.6413 15.5877L24.6421 15.5871C24.802 15.4714 25.0095 15.4083 25.275 15.4083C25.5303 15.4083 25.7238 15.476 25.869 15.5996L25.8689 15.5997L25.8736 15.6033C26.0354 15.7304 26.1461 15.8871 26.209 16.0756L26.2602 16.2291L26.4094 16.1665L27.5845 15.673L27.714 15.6186L27.6683 15.4858C27.5198 15.055 27.2484 14.6837 26.8606 14.372C26.4573 14.0412 25.9164 13.8845 25.2552 13.8845C24.7939 13.8845 24.3755 13.9775 24.0032 14.1668C23.632 14.349 23.3405 14.6037 23.1336 14.9316C22.9271 15.2589 22.8241 15.6224 22.8241 16.0183C22.8241 16.548 22.9987 16.9979 23.3509 17.3571L23.3509 17.3571L23.352 17.3581C23.6912 17.6972 24.099 17.9489 24.573 18.1139L25.0055 18.2711C25.0056 18.2711 25.0058 18.2712 25.006 18.2712C25.5167 18.4611 25.8502 18.6344 26.026 18.7867L26.0259 18.7867L26.0301 18.7901C26.1987 18.926 26.2803 19.0968 26.2803 19.3148C26.2803 19.53 26.198 19.6913 26.0281 19.8139C25.8465 19.9383 25.6242 20.0038 25.354 20.0038C25.033 20.0038 24.7747 19.904 24.5682 19.7091C24.3552 19.508 24.1997 19.235 24.1067 18.8818L24.0637 18.7187L23.9067 18.7805L22.6526 19.2739ZM28.9273 16.0756H28.7773V16.2256V21.2592V21.4092H28.9273H30.221H30.371V21.2592V16.2256V16.0756H30.221H28.9273ZM32.9775 21.37L32.9775 21.3701L32.9814 21.3714C33.2096 21.4498 33.4567 21.4881 33.7214 21.4881C34.0556 21.4881 34.3739 21.4289 34.6752 21.3098L34.77 21.2724V21.1703V19.907V19.6422L34.5429 19.7784C34.4144 19.8554 34.3143 19.9064 34.2403 19.9348L34.2403 19.9347L34.2365 19.9363C34.1822 19.959 34.1017 19.9741 33.988 19.9741C33.782 19.9741 33.6773 19.925 33.6269 19.8674L33.6272 19.8672L33.6201 19.8601C33.5495 19.7896 33.4962 19.654 33.4962 19.4135V17.481H34.5805H34.7305V17.331V16.2256V16.0756H34.5805H33.4962V14.8043V14.6543H33.3462H32.0526H31.9026V14.8043V16.0756H31.1737H31.0237V16.2256V17.331V17.481H31.1737H31.9026V19.6504C31.9026 20.2249 32.066 20.6894 32.4118 21.021C32.5613 21.17 32.7515 21.2853 32.9775 21.37ZM38.733 17.7461L38.7329 17.7462L38.7371 17.7523C38.7908 17.8294 38.8295 17.9054 38.8546 17.9805H36.748C36.8361 17.7885 36.9536 17.6349 37.0987 17.5162L37.0991 17.5159C37.2941 17.3553 37.5264 17.2737 37.8036 17.2737C38.0251 17.2737 38.2084 17.3214 38.3591 17.4107L38.3591 17.4108L38.3648 17.4139C38.5289 17.5018 38.6498 17.613 38.733 17.7461ZM28.8806 15.5322C29.073 15.7245 29.3085 15.8229 29.5791 15.8229C29.8493 15.8229 30.0824 15.7247 30.2688 15.5311C30.4605 15.339 30.5586 15.104 30.5586 14.8339C30.5586 14.5643 30.4607 14.3317 30.2678 14.1455C30.0815 13.9527 29.8488 13.8549 29.5791 13.8549C29.309 13.8549 29.0738 13.9529 28.8816 14.1445C28.688 14.3308 28.5897 14.5638 28.5897 14.8339C28.5897 15.1045 28.6882 15.3399 28.8806 15.5322Z" fill="black" stroke="black" stroke-width="0.3"/>
<path d="M8.09717 18.7207H17.7316V26.0721H8.09717V18.7207Z" stroke="black"/>
<path d="M8.35596 18.982C8.35596 16.4662 10.3965 14.4268 12.9136 14.4268C15.4307 14.4268 17.4712 16.4662 17.4712 18.982" stroke="black"/>
<path d="M10.8174 22.3337L12.2267 23.7944L14.7635 21.165" stroke="#CA2F32" stroke-linecap="round"/>
<rect x="0.5" y="0.5" width="66.6046" height="39.9976" rx="4.5" fill="url(#paint0_linear_962_225)" style="mix-blend-mode:multiply"/>
<rect x="0.5" y="0.5" width="66.6046" height="39.9976" rx="4.5" stroke="#E4E4E4"/>
<path d="M5.40918 33.6113H6.94054C7.21602 33.6113 7.4672 33.67 7.69406 33.7875C7.92093 33.9008 8.09918 34.0628 8.22882 34.2734C8.35846 34.4799 8.42328 34.7167 8.42328 34.984C8.42328 35.2512 8.35846 35.4901 8.22882 35.7007C8.09918 35.9112 7.92093 36.0752 7.69406 36.1927C7.4672 36.306 7.21602 36.3627 6.94054 36.3627H6.22955V37.9601H5.40918V33.6113ZM6.96485 35.5853C7.16741 35.5853 7.3254 35.5266 7.43884 35.4091C7.55632 35.2917 7.61506 35.15 7.61506 34.984C7.61506 34.818 7.55632 34.6783 7.43884 34.5649C7.3254 34.4475 7.16741 34.3888 6.96485 34.3888H6.22955V35.5853H6.96485Z" fill="#A8D033"/>
<path d="M9.83809 38.0573C9.50994 38.0573 9.24053 37.9621 9.02987 37.7718C8.81921 37.5775 8.71388 37.3244 8.71388 37.0126C8.71388 36.8061 8.76857 36.6239 8.87795 36.466C8.98733 36.3081 9.13723 36.1866 9.32763 36.1016C9.51804 36.0165 9.7287 35.974 9.95962 35.974C10.2797 35.974 10.5531 36.0206 10.78 36.1137V35.9801C10.78 35.81 10.7152 35.6723 10.5855 35.5671C10.4599 35.4618 10.2898 35.4091 10.0751 35.4091C9.92924 35.4091 9.78745 35.4436 9.64971 35.5124C9.51602 35.5772 9.40461 35.6642 9.31548 35.7736L8.80503 35.3727C8.95492 35.1783 9.1433 35.0285 9.37017 34.9233C9.59704 34.818 9.84416 34.7653 10.1115 34.7653C10.5855 34.7653 10.9461 34.8747 11.1932 35.0933C11.4403 35.312 11.5639 35.6319 11.5639 36.053V37.9601H10.78V37.6443H10.7314C10.6382 37.7657 10.5146 37.865 10.3607 37.9419C10.2108 38.0188 10.0366 38.0573 9.83809 38.0573ZM10.0265 37.4378C10.2574 37.4378 10.4397 37.3649 10.5734 37.2191C10.7111 37.0693 10.78 36.8952 10.78 36.6968C10.5734 36.5996 10.3566 36.551 10.1298 36.551C9.71655 36.551 9.50994 36.7049 9.50994 37.0126C9.50994 37.1381 9.5545 37.2414 9.64363 37.3224C9.73276 37.3993 9.86037 37.4378 10.0265 37.4378Z" fill="#A8D033"/>
<path d="M13.4457 38.0573C13.0689 38.0573 12.763 37.9804 12.5281 37.8265C12.2972 37.6726 12.1351 37.4722 12.0419 37.2252L12.7529 36.9154C12.8177 37.0612 12.9089 37.1725 13.0264 37.2495C13.1479 37.3224 13.2877 37.3588 13.4457 37.3588C13.5915 37.3588 13.7131 37.3365 13.8103 37.292C13.9075 37.2434 13.9561 37.1665 13.9561 37.0612C13.9561 36.96 13.9116 36.8851 13.8224 36.8365C13.7333 36.7838 13.5996 36.7373 13.4214 36.6968L13.0568 36.6178C12.8056 36.5571 12.5969 36.4478 12.4308 36.2898C12.2647 36.1279 12.1817 35.9274 12.1817 35.6885C12.1817 35.5104 12.2344 35.3504 12.3397 35.2087C12.4491 35.067 12.5949 34.9577 12.7772 34.8807C12.9636 34.8038 13.1682 34.7653 13.391 34.7653C14.0311 34.7653 14.4585 34.9901 14.6732 35.4395L13.9926 35.7371C13.8711 35.5185 13.6766 35.4091 13.4092 35.4091C13.2715 35.4091 13.1621 35.4355 13.0811 35.4881C13 35.5367 12.9595 35.5995 12.9595 35.6764C12.9595 35.8222 13.0973 35.9315 13.3728 36.0044L13.8285 36.1137C14.1364 36.1906 14.3673 36.3081 14.5213 36.466C14.6793 36.6239 14.7583 36.8182 14.7583 37.0491C14.7583 37.2475 14.6995 37.4236 14.582 37.5775C14.4686 37.7273 14.3106 37.8447 14.108 37.9297C13.9095 38.0148 13.6887 38.0573 13.4457 38.0573Z" fill="#A8D033"/>
<path d="M16.5138 38.0573C16.137 38.0573 15.8311 37.9804 15.5962 37.8265C15.3652 37.6726 15.2032 37.4722 15.11 37.2252L15.821 36.9154C15.8858 37.0612 15.977 37.1725 16.0945 37.2495C16.216 37.3224 16.3558 37.3588 16.5138 37.3588C16.6596 37.3588 16.7811 37.3365 16.8784 37.292C16.9756 37.2434 17.0242 37.1665 17.0242 37.0612C17.0242 36.96 16.9796 36.8851 16.8905 36.8365C16.8014 36.7838 16.6677 36.7373 16.4894 36.6968L16.1248 36.6178C15.8737 36.5571 15.665 36.4478 15.4989 36.2898C15.3328 36.1279 15.2498 35.9274 15.2498 35.6885C15.2498 35.5104 15.3024 35.3504 15.4078 35.2087C15.5172 35.067 15.663 34.9577 15.8453 34.8807C16.0317 34.8038 16.2362 34.7653 16.4591 34.7653C17.0992 34.7653 17.5266 34.9901 17.7413 35.4395L17.0607 35.7371C16.9391 35.5185 16.7447 35.4091 16.4773 35.4091C16.3396 35.4091 16.2302 35.4355 16.1491 35.4881C16.0681 35.5367 16.0276 35.5995 16.0276 35.6764C16.0276 35.8222 16.1654 35.9315 16.4408 36.0044L16.8966 36.1137C17.2045 36.1906 17.4354 36.3081 17.5894 36.466C17.7473 36.6239 17.8263 36.8182 17.8263 37.0491C17.8263 37.2475 17.7676 37.4236 17.6501 37.5775C17.5367 37.7273 17.3787 37.8447 17.1761 37.9297C16.9776 38.0148 16.7568 38.0573 16.5138 38.0573Z" fill="#A8D033"/>
<path d="M19.885 38.0573C19.5771 38.0573 19.2996 37.9864 19.0524 37.8447C18.8053 37.703 18.6109 37.5086 18.4691 37.2616C18.3313 37.0106 18.2625 36.7292 18.2625 36.4174C18.2625 36.1218 18.3313 35.8485 18.4691 35.5974C18.6068 35.3423 18.7972 35.1399 19.0403 34.9901C19.2834 34.8402 19.5548 34.7653 19.8546 34.7653C20.1746 34.7653 20.4501 34.8342 20.681 34.9718C20.9119 35.1095 21.0861 35.2978 21.2036 35.5367C21.3252 35.7756 21.3859 36.0408 21.3859 36.3324C21.3859 36.4255 21.3799 36.5146 21.3677 36.5996H19.0403C19.0808 36.8466 19.178 37.0349 19.332 37.1645C19.49 37.29 19.6784 37.3527 19.8971 37.3527C20.0794 37.3527 20.2354 37.3143 20.365 37.2373C20.4987 37.1564 20.6041 37.0491 20.681 36.9154L21.3252 37.2313C21.0092 37.7819 20.5291 38.0573 19.885 38.0573ZM20.6203 36.0347C20.6122 35.9376 20.5757 35.8424 20.5109 35.7493C20.4501 35.6521 20.363 35.5731 20.2496 35.5124C20.1402 35.4476 20.0106 35.4152 19.8607 35.4152C19.6703 35.4152 19.5062 35.4719 19.3684 35.5853C19.2347 35.6946 19.1375 35.8444 19.0767 36.0347H20.6203Z" fill="#A8D033"/>
<path d="M23.3597 38.0573C23.0801 38.0573 22.8249 37.9885 22.594 37.8508C22.3671 37.7091 22.1868 37.5147 22.0532 37.2677C21.9235 37.0167 21.8587 36.7312 21.8587 36.4113C21.8587 36.0955 21.9235 35.812 22.0532 35.561C22.1868 35.3099 22.3671 35.1156 22.594 34.9779C22.8249 34.8362 23.0801 34.7653 23.3597 34.7653C23.5703 34.7653 23.7567 34.8119 23.9187 34.905C24.0808 34.9941 24.2043 35.1055 24.2894 35.2391H24.338L24.2894 34.8018V33.6113H25.0794V37.9601H24.338V37.5896H24.2894C24.2084 37.7232 24.0848 37.8346 23.9187 37.9237C23.7567 38.0127 23.5703 38.0573 23.3597 38.0573ZM23.4934 37.3224C23.6433 37.3224 23.783 37.2839 23.9127 37.207C24.0423 37.13 24.1456 37.0227 24.2226 36.8851C24.2996 36.7474 24.338 36.5895 24.338 36.4113C24.338 36.2331 24.2996 36.0752 24.2226 35.9376C24.1456 35.7999 24.0423 35.6946 23.9127 35.6217C23.783 35.5448 23.6433 35.5063 23.4934 35.5063C23.3475 35.5063 23.2098 35.5448 23.0801 35.6217C22.9505 35.6946 22.8472 35.7999 22.7702 35.9376C22.6932 36.0752 22.6548 36.2331 22.6548 36.4113C22.6548 36.5895 22.6932 36.7474 22.7702 36.8851C22.8472 37.0227 22.9505 37.13 23.0801 37.207C23.2098 37.2839 23.3475 37.3224 23.4934 37.3224Z" fill="#A8D033"/>
<defs>
<linearGradient id="paint0_linear_962_225" x1="33.8023" y1="0" x2="33.8023" y2="40.9976" gradientUnits="userSpaceOnUse">
<stop offset="0.788808" stop-opacity="0"/>
<stop offset="1" stop-opacity="0.36"/>
</linearGradient>
</defs>
</svg>
