<svg width="27" height="27" viewBox="0 0 27 27" fill="none" xmlns="http://www.w3.org/2000/svg">
<g clip-path="url(#clip0_9349_22019)">
<path d="M21.8334 7.89275L17.3758 7.24502L15.3823 3.20578C14.6123 1.64552 12.3858 1.646 11.6161 3.20572L9.62257 7.24497L5.16499 7.89275C3.44305 8.14293 2.75571 10.2605 4.00119 11.4746L7.22674 14.6188L6.46531 19.0582C6.17121 20.7732 7.97257 22.0812 9.51225 21.272L13.4992 19.1758L17.4863 21.272C19.0238 22.0803 20.8273 20.7729 20.5332 19.0582L19.7718 14.6187L22.9974 11.4746C24.2431 10.26 23.5546 8.14287 21.8334 7.89275ZM21.7408 10.1857L18.1764 13.66C17.9643 13.8668 17.8675 14.1647 17.9176 14.4567L18.759 19.3626C18.8013 19.609 18.5449 19.795 18.3237 19.6788L13.9179 17.3626C13.6558 17.2248 13.3425 17.2248 13.0804 17.3626L8.67457 19.6788C8.45329 19.7951 8.19706 19.6089 8.2393 19.3626L9.08073 14.4567C9.13077 14.1647 9.034 13.8668 8.82191 13.66L5.25754 10.1857C5.0785 10.0112 5.17643 9.70998 5.42381 9.67396L10.3496 8.9582C10.6427 8.91559 10.8962 8.73155 11.0273 8.46592L13.2302 4.00233C13.3408 3.77831 13.6575 3.77816 13.7682 4.00238L15.9711 8.46592C16.1022 8.73155 16.3556 8.91564 16.6487 8.9582L21.5746 9.67396C21.8219 9.70998 21.9198 10.0113 21.7408 10.1857Z" fill="#117BD4"/>
<path d="M7.10488 2.48653L6.02851 1.00506C5.73626 0.603017 5.17348 0.513791 4.77143 0.806045C4.36933 1.09819 4.28016 1.66103 4.57236 2.06313L5.64872 3.54454C5.94108 3.9468 6.50386 4.03566 6.9058 3.74356C7.3079 3.45146 7.39708 2.88863 7.10488 2.48653Z" fill="#117BD4"/>
<path d="M3.53308 15.7627C3.37957 15.29 2.87184 15.0311 2.39903 15.1849L0.62209 15.7623C0.149379 15.9159 -0.109283 16.4235 0.0442792 16.8963C0.198105 17.3698 0.706676 17.6276 1.17833 17.4741L2.95527 16.8967C3.42803 16.7431 3.68669 16.2354 3.53308 15.7627Z" fill="#117BD4"/>
<path d="M22.2281 0.806098C21.826 0.51395 21.2632 0.603018 20.971 1.00512L19.8946 2.48653C19.6024 2.88863 19.6916 3.45152 20.0937 3.74361C20.496 4.03587 21.0587 3.94654 21.3508 3.54459L22.4271 2.06318C22.7193 1.66108 22.6302 1.09819 22.2281 0.806098Z" fill="#117BD4"/>
<path d="M26.3772 15.7623L24.6002 15.1849C24.1275 15.031 23.6198 15.29 23.4662 15.7627C23.3126 16.2354 23.5712 16.7432 24.044 16.8967L25.8209 17.4741C26.2926 17.6275 26.8012 17.3698 26.955 16.8963C27.1086 16.4236 26.8499 15.9159 26.3772 15.7623Z" fill="#117BD4"/>
<path d="M13.4996 22.7393C13.0026 22.7393 12.5996 23.1423 12.5996 23.6393V25.4659C12.5996 25.9629 13.0026 26.3659 13.4996 26.3659C13.9966 26.3659 14.3995 25.9629 14.3995 25.4659V23.6393C14.3996 23.1422 13.9966 22.7393 13.4996 22.7393Z" fill="#117BD4"/>
</g>
<defs>
<clipPath id="clip0_9349_22019">
<rect width="27" height="27" fill="white"/>
</clipPath>
</defs>
</svg>
