<svg width="132" height="40" viewBox="0 0 132 40" fill="none" xmlns="http://www.w3.org/2000/svg">
<path d="M127.111 39.1744H4.8889C2.20003 39.1744 0 36.9708 0 34.2776V4.89682C0 2.20355 2.19999 0 4.8889 0H127.111C129.8 0 132 2.20355 132 4.89682V34.2775C132 36.9708 129.8 39.1744 127.111 39.1744" fill="white"/>
<path d="M127.111 0H4.8889C2.20003 0 0 2.20355 0 4.89682V34.2775C0 36.9708 2.19999 39.1744 4.8889 39.1744H127.111C129.8 39.1744 132 36.9708 132 34.2776V4.89682C132 2.20355 129.8 0 127.111 0M127.111 0.783463C129.376 0.783463 131.218 2.629 131.218 4.89682V34.2775C131.218 36.5458 129.376 38.3913 127.111 38.3913H4.8889C2.62478 38.3913 0.78223 36.5458 0.78223 34.2776V4.89682C0.78223 2.629 2.62473 0.783507 4.8889 0.783507H127.111" fill="#A6A6A6"/>
<path d="M46.3647 10.032C46.3647 10.8525 46.1221 11.5059 45.6363 11.9933C45.0844 12.5729 44.3651 12.8629 43.4809 12.8629C42.6341 12.8629 41.9142 12.5691 41.3222 11.9807C40.7291 11.3927 40.4331 10.6635 40.4331 9.7936C40.4331 8.92325 40.7291 8.19454 41.3222 7.60606C41.9142 7.01812 42.6341 6.72388 43.4809 6.72388C43.9011 6.72388 44.3033 6.80618 44.6852 6.97032C45.0672 7.13484 45.3735 7.35324 45.6027 7.62675L45.087 8.14357C44.6986 7.67878 44.1639 7.44655 43.4809 7.44655C42.8634 7.44655 42.3294 7.6639 41.8787 8.09885C41.428 8.53425 41.2027 9.09887 41.2027 9.7936C41.2027 10.4884 41.428 11.0529 41.8787 11.4884C42.3294 11.9233 42.8633 12.1406 43.4809 12.1406C44.136 12.1406 44.6822 11.9222 45.1195 11.4846C45.4033 11.1995 45.5675 10.8032 45.6114 10.2944H43.4809V9.58853H46.3238C46.3512 9.74201 46.3646 9.88929 46.3646 10.032" fill="black"/>
<path d="M46.3647 10.032H46.2669C46.2661 10.8338 46.0323 11.4566 45.5671 11.9241L45.5661 11.9249L45.5656 11.9257C45.0313 12.4853 44.3444 12.7638 43.4809 12.765C42.6567 12.7638 41.9669 12.4822 41.3909 11.9114C40.8161 11.3395 40.5319 10.6413 40.5308 9.79359C40.5319 8.94547 40.8161 8.24766 41.3909 7.67612C41.9669 7.10494 42.6567 6.82299 43.4809 6.8218C43.8884 6.8218 44.2765 6.90146 44.6466 7.06018C45.0171 7.22013 45.3097 7.42973 45.5278 7.68994L45.6026 7.62674L45.5335 7.5575L45.0179 8.07468L45.087 8.14356L45.1623 8.08088C44.7558 7.59307 44.1853 7.34716 43.4809 7.34861C42.8404 7.34782 42.2771 7.57705 41.811 8.02851C41.3405 8.48142 41.1041 9.07782 41.1049 9.79359C41.1041 10.5094 41.3405 11.1058 41.811 11.5587C42.2771 12.0102 42.8404 12.2394 43.4809 12.2386C44.1577 12.2398 44.7345 12.0098 45.1886 11.5538C45.4918 11.2492 45.6638 10.8273 45.7088 10.3027L45.718 10.1964H43.5787V9.68645H46.3238V9.58852L46.2275 9.60573C46.2542 9.75424 46.2669 9.89535 46.2669 10.032H46.4624C46.4624 9.88311 46.4486 9.73012 46.42 9.571L46.4055 9.49059H43.3831V10.3923H45.6114V10.2943L45.514 10.2859C45.4709 10.7787 45.3142 11.1498 45.0503 11.4154C44.6302 11.8346 44.1146 12.0415 43.4809 12.0427C42.8863 12.0419 42.3817 11.8368 41.9467 11.418C41.5159 11.0006 41.3016 10.4677 41.3005 9.79359C41.3016 9.1195 41.5159 8.58661 41.9467 8.16922C42.3817 7.75033 42.8862 7.54527 43.4809 7.54448C44.1421 7.54606 44.6414 7.76486 45.0122 8.20672L45.081 8.28859L45.6718 7.69602L45.7352 7.63255L45.6775 7.56397C45.4373 7.27713 45.1172 7.04944 44.7238 6.88043C44.3296 6.71088 43.9137 6.62593 43.4809 6.62593C42.6117 6.62518 41.8615 6.93122 41.2531 7.53686C40.6423 8.14132 40.3345 8.9011 40.3353 9.79359C40.3345 10.6857 40.6423 11.4459 41.2534 12.0507C41.8615 12.656 42.6117 12.9616 43.4809 12.9608C44.3862 12.9616 45.1371 12.6605 45.707 12.061L45.6362 11.9933L45.7054 12.0626C46.2118 11.5557 46.4631 10.8709 46.4625 10.032H46.3647M50.8716 7.5774H48.1999V9.44054H50.6092V10.1466H48.1999V12.0098H50.8716V12.7317H47.4467V6.85551H50.8716V7.5774" fill="black"/>
<path d="M50.8716 7.57742V7.47948H48.1021V9.5385H50.5114V10.0485L48.1021 10.0487V12.1077H50.7738V12.6337H47.5445V6.95346H50.7738V7.57742H50.8716V7.47948V7.57742H50.9693V6.7576H47.3489V12.8296H50.9693V11.9119H48.2976V10.2446H50.707V9.34263H48.2976V7.67535H50.9693V7.57742H50.8716M54.0505 12.7317H53.2962V7.57737H51.6576V6.85549H55.6891V7.57737H54.0505V12.7316" fill="black"/>
<path d="M54.0505 12.7317V12.6337H53.3939V7.47949H51.7554V6.95351H55.5913V7.47949H53.9527V12.7317H54.0505V12.6337V12.7317H54.1483V7.67535H55.7868V6.7576H51.5598V7.67531H53.1983V12.8296H54.1483V12.7316H54.0505M58.606 12.7317V6.85549H59.3595V12.7316H58.606" fill="black"/>
<path d="M58.606 12.7317H58.7038V6.95346H59.2617V12.6337H58.606V12.7317H58.7038H58.606V12.8296H59.4573V6.7576H58.5082V12.8296H58.606V12.7317M62.7034 12.7317H61.9491V7.57737H60.3106V6.85549H64.342V7.57737H62.7034V12.7316" fill="black"/>
<path d="M62.7034 12.7317V12.6337H62.0469V7.47948H60.4084V6.9535H64.2442V7.47948H62.6057V12.7317H62.7034V12.6337V12.7317H62.8012V7.67534H64.4398V6.75759H60.2129V7.6753H61.8513V12.8296H62.8012V12.7316H62.7034M68.2287 11.4804C68.6629 11.9207 69.1942 12.1406 69.8226 12.1406C70.4509 12.1406 70.9825 11.9207 71.416 11.4804C71.8507 11.0401 72.0684 10.4772 72.0684 9.7936C72.0684 9.11005 71.8507 8.54719 71.416 8.10686C70.9825 7.66654 70.4509 7.44655 69.8226 7.44655C69.1942 7.44655 68.6629 7.66654 68.2287 8.10686C67.7951 8.54719 67.5775 9.11 67.5775 9.7936C67.5775 10.4772 67.7951 11.0401 68.2287 11.4804ZM71.9736 11.9723C71.3969 12.5664 70.6796 12.8629 69.8226 12.8629C68.9647 12.8629 68.2477 12.5664 67.6722 11.9723C67.0951 11.3789 66.8079 10.6525 66.8079 9.7936C66.8079 8.93469 67.0951 8.20819 67.6722 7.61491C68.2478 7.02071 68.9647 6.72388 69.8226 6.72388C70.6751 6.72388 71.3904 7.0223 71.9699 7.61874C72.5485 8.21514 72.838 8.94006 72.838 9.7936C72.838 10.6525 72.5492 11.3789 71.9736 11.9723Z" fill="black"/>
<path d="M68.2287 11.4804L68.1591 11.5492C68.6095 12.0071 69.1713 12.2398 69.8225 12.2386C70.4733 12.2398 71.0359 12.0071 71.4856 11.5492C71.9389 11.0908 72.1669 10.4979 72.1662 9.79359C72.1668 9.08935 71.9389 8.49634 71.4856 8.03797C71.0359 7.58004 70.4733 7.34747 69.8225 7.34861C69.1713 7.34747 68.6095 7.58004 68.1591 8.03797C67.7069 8.49634 67.4785 9.08935 67.4797 9.79359C67.4785 10.4978 67.7069 11.0908 68.1591 11.5492L68.2287 11.4804L68.2982 11.4115C67.8834 10.9887 67.676 10.4569 67.6752 9.79359C67.676 9.13029 67.8834 8.5985 68.2982 8.17569C68.7168 7.75302 69.2167 7.54567 69.8225 7.54452C70.4279 7.54567 70.929 7.75302 71.3465 8.17569C71.7621 8.5985 71.9694 9.13029 71.9702 9.79359C71.9694 10.4569 71.7621 10.9887 71.3465 11.4115C70.929 11.8342 70.4279 12.0415 69.8225 12.0427C69.2167 12.0415 68.7168 11.8342 68.2982 11.4115L68.2287 11.4804ZM71.9736 11.9723L71.9037 11.9042C71.3431 12.4796 70.6575 12.7638 69.8225 12.765C68.9872 12.7638 68.3016 12.4796 67.742 11.9042L67.7394 11.9011L67.742 11.9042C67.1825 11.3269 66.9064 10.6307 66.9056 9.79359C66.9064 8.95652 67.1825 8.26029 67.742 7.68299C68.3016 7.10759 68.9872 6.82299 69.8225 6.82184C70.6521 6.82299 71.3361 7.10878 71.8999 7.68717C72.4614 8.26716 72.7391 8.96228 72.7402 9.79359C72.7391 10.6307 72.4622 11.3269 71.9037 11.9042L71.9736 11.9723L72.044 12.0403C72.6367 11.4306 72.9365 10.6742 72.9358 9.79359C72.9365 8.91796 72.6355 8.16315 72.0401 7.55068C71.4443 6.9358 70.698 6.62488 69.8225 6.62593C68.9426 6.62488 68.194 6.93435 67.6019 7.54685V7.54641C67.008 8.15659 66.7093 8.91294 66.7101 9.79359C66.7093 10.6742 67.008 11.4306 67.6019 12.0407L67.6046 12.0435L67.6019 12.0403C68.194 12.6528 68.9426 12.9616 69.8225 12.9608C70.7021 12.9616 71.4507 12.6528 72.044 12.0403L71.9736 11.9723V11.9723ZM73.8959 12.7317V6.85547H74.8134L77.6646 11.4267H77.6971L77.6646 10.2943V6.85547H78.419V12.7316H77.6321L74.6492 7.93885H74.6167L74.6492 9.07166V12.7316H73.896" fill="black"/>
<path d="M73.896 12.7317H73.9938V6.95346H74.7592L77.6104 11.5247H77.7975L77.7624 10.2929V6.95351H78.3212V12.6337H77.6864L74.7034 7.84098H74.5163L74.5514 9.0733V12.6337H73.896V12.7317H73.9938H73.896V12.8296H74.7469V9.07018L74.7145 7.93627L74.6167 7.93891V8.03684H74.6492V7.93891L74.5663 7.99098L77.5779 12.8296H78.5168V6.7576H77.5669V10.2955L77.5993 11.4294L77.6971 11.4268V11.3288H77.6646V11.4268L77.7475 11.3748L74.8676 6.7576H73.7982V12.8296H73.896V12.7317M104.56 29.3808H106.384V17.1376H104.56L104.56 29.3808ZM120.993 21.5479L118.902 26.8559H118.839L116.668 21.5479H114.703L117.958 28.9668L116.102 33.0936H118.006L123.022 21.5479L120.993 21.5479ZM110.646 27.9902C110.048 27.9902 109.215 27.691 109.215 26.9504C109.215 26.0054 110.253 25.6432 111.149 25.6432C111.952 25.6432 112.328 25.8164 112.816 26.053C112.674 27.1868 111.699 27.9902 110.646 27.9902V27.9902ZM110.866 21.2801C109.545 21.2801 108.177 21.863 107.611 23.1546L109.231 23.8318C109.577 23.1546 110.221 22.9339 110.898 22.9339C111.841 22.9339 112.8 23.5012 112.816 24.5093V24.6352C112.486 24.4461 111.779 24.1627 110.913 24.1627C109.168 24.1627 107.39 25.1232 107.39 26.919C107.39 28.5572 108.822 29.6126 110.425 29.6126C111.653 29.6126 112.328 29.0613 112.753 28.4156H112.816V29.3605H114.577V24.6665C114.577 22.4932 112.958 21.2801 110.866 21.2801V21.2801ZM99.5906 23.0383H96.9956V18.8416H99.5906C100.955 18.8416 101.729 19.9728 101.729 20.9399C101.729 21.8887 100.955 23.0383 99.5906 23.0383ZM99.5437 17.1376H95.172V29.3808H96.9956V24.7423H99.5437C101.566 24.7423 103.554 23.2759 103.554 20.9399C103.554 18.604 101.566 17.1376 99.5437 17.1376V17.1376ZM75.7045 27.9925C74.444 27.9925 73.3887 26.9355 73.3887 25.4836C73.3887 24.0166 74.444 22.9435 75.7045 22.9435C76.9489 22.9435 77.9255 24.0165 77.9255 25.4836C77.9255 26.9355 76.9489 27.9925 75.7045 27.9925H75.7045ZM77.7994 22.2335H77.7364C77.327 21.7444 76.539 21.3027 75.5468 21.3027C73.4674 21.3027 71.5615 23.1328 71.5615 25.4836C71.5615 27.8188 73.4674 29.6333 75.5468 29.6333C76.539 29.6333 77.327 29.1914 77.7364 28.6868H77.7994V29.2863C77.7994 30.8801 76.9489 31.7321 75.5785 31.7321C74.46 31.7321 73.7669 30.9271 73.483 30.2488L71.8924 30.9114C72.3491 32.0159 73.5621 33.3729 75.5785 33.3729C77.7207 33.3729 79.5323 32.1104 79.5323 29.0338V21.5551H77.7994V22.2335ZM80.7924 29.3808H82.6196V17.1372H80.7924V29.3808ZM85.3134 25.3417C85.2661 23.7322 86.5578 22.912 87.4871 22.912C88.2122 22.912 88.8262 23.2747 89.0306 23.7958L85.3134 25.3417ZM90.9842 23.9534C90.6381 23.0222 89.5821 21.3027 87.424 21.3027C85.2817 21.3027 83.5019 22.9909 83.5019 25.468C83.5019 27.8032 85.2661 29.6333 87.6288 29.6333C89.5351 29.6333 90.6381 28.4657 91.0947 27.7874L89.6769 26.8405C89.2046 27.5349 88.5584 27.9925 87.6288 27.9925C86.6995 27.9925 86.038 27.5663 85.6125 26.7304L91.1729 24.4266L90.9842 23.9534ZM46.6829 22.5807V24.3478H50.9044C50.7784 25.3417 50.4476 26.0674 49.9434 26.5724C49.3293 27.1879 48.3684 27.8662 46.6828 27.8662C44.0836 27.8662 42.0517 25.7678 42.0517 23.1645C42.0517 20.5612 44.0836 18.4625 46.6829 18.4625C48.0849 18.4625 49.1085 19.0149 49.8647 19.7249L51.1092 18.4786C50.0539 17.4685 48.6517 16.6955 46.6829 16.6955C43.1227 16.6955 40.1298 19.5987 40.1298 23.1645C40.1298 26.7304 43.1227 29.6333 46.6829 29.6333C48.6048 29.6333 50.0539 29.0025 51.1879 27.8188C52.3536 26.6512 52.716 25.0104 52.716 23.6852C52.716 23.2747 52.6847 22.8964 52.6213 22.5807H46.6829ZM57.5155 27.9925C56.2551 27.9925 55.1681 26.9511 55.1681 25.468C55.1681 23.969 56.2551 22.9435 57.5155 22.9435C58.7755 22.9435 59.8625 23.969 59.8625 25.468C59.8625 26.9511 58.7755 27.9925 57.5155 27.9925ZM57.5155 21.3027C55.2154 21.3027 53.3408 23.0539 53.3408 25.468C53.3408 27.8662 55.2154 29.6333 57.5155 29.6333C59.8152 29.6333 61.6898 27.8662 61.6898 25.468C61.6898 23.0539 59.8152 21.3027 57.5155 21.3027ZM66.6218 27.9925C65.3618 27.9925 64.2747 26.9511 64.2747 25.468C64.2747 23.969 65.3618 22.9435 66.6218 22.9435C67.8819 22.9435 68.9688 23.969 68.9688 25.468C68.9688 26.9511 67.8819 27.9925 66.6218 27.9925H66.6218ZM66.6218 21.3027C64.3218 21.3027 62.4476 23.0539 62.4476 25.468C62.4476 27.8662 64.3218 29.6333 66.6218 29.6333C68.9215 29.6333 70.7962 27.8662 70.7962 25.468C70.7962 23.0539 68.9215 21.3027 66.6218 21.3027H66.6218Z" fill="black"/>
<path d="M10.2751 7.45421C9.94693 7.75074 9.75107 8.24533 9.75107 8.90186V8.75344V30.4179V30.2752C9.75107 30.8815 9.91907 31.3498 10.2036 31.6513L10.2762 31.721V31.7213C10.5065 31.9294 10.8018 32.0399 11.1402 32.0396C11.4709 32.0396 11.843 31.934 12.2356 31.711L26.4283 23.6339L31.3033 20.8592C31.9225 20.5069 32.2701 20.0524 32.3282 19.5895V19.5876C32.2701 19.1236 31.9225 18.6694 31.3034 18.3171L26.4279 15.5427L12.2357 7.46565C11.8422 7.24228 11.4698 7.13629 11.1383 7.13629C10.8002 7.13629 10.5053 7.24646 10.2752 7.45421H10.2751Z" fill="#00C1FF"/>
<path d="M10.2763 31.721L10.2036 31.6513C9.91907 31.3498 9.75107 30.8816 9.75107 30.2753V30.4179V8.75881V8.90186C9.75107 8.24534 9.94693 7.75075 10.2751 7.45422L22.3896 19.588L10.2763 31.721Z" fill="url(#paint0_linear_28_386)"/>
<path d="M26.4283 23.6339L22.3896 19.588L26.4279 15.5427L31.3034 18.317C31.9225 18.6694 32.2701 19.1235 32.3282 19.5876V19.5894C32.2701 20.0524 31.9225 20.5069 31.3034 20.8592L26.4283 23.6339" fill="url(#paint1_linear_28_386)"/>
<path d="M11.1402 32.0396C10.8018 32.0399 10.5065 31.9293 10.2763 31.7212V31.7209L22.3896 19.5879L26.4283 23.6339L12.2356 31.711C11.843 31.934 11.4709 32.0396 11.1402 32.0396Z" fill="url(#paint2_linear_28_386)"/>
<path d="M22.3896 19.588L10.275 7.45424C10.5053 7.24649 10.8002 7.13632 11.1382 7.13632C11.4698 7.13632 11.8421 7.24227 12.2356 7.46569L26.4279 15.5427L22.3895 19.588" fill="url(#paint3_linear_28_386)"/>
<path d="M11.1406 32.183C10.8022 32.183 10.5065 32.0725 10.2763 31.8644L10.2759 31.8647C10.2749 31.8638 10.2739 31.8629 10.2728 31.8621L10.2098 31.8005C10.2079 31.7985 10.206 31.7963 10.2037 31.794L10.2763 31.7213C10.5066 31.9294 10.8018 32.0399 11.1403 32.0395C11.4709 32.0395 11.843 31.934 12.2357 31.711L26.4283 23.6339L26.5192 23.725L26.4272 23.7774L12.2356 31.854C11.8778 32.0572 11.5374 32.1631 11.23 32.1808C11.2002 32.1822 11.1704 32.183 11.1406 32.183" fill="url(#paint4_linear_28_386)"/>
<path d="M10.2036 31.794C9.91907 31.4925 9.75107 31.0246 9.75107 30.4179V30.2752C9.75107 30.8815 9.91907 31.3498 10.2036 31.6513L10.2762 31.7209L10.2036 31.794" fill="url(#paint5_linear_28_386)"/>
<path d="M26.5192 23.725L26.4283 23.6339L31.3033 20.8592C31.9225 20.5069 32.2701 20.0524 32.3282 19.5894C32.3282 19.7593 32.2903 19.9292 32.2152 20.0945C32.0635 20.4277 31.7595 20.7425 31.3034 21.0023L26.5192 23.725" fill="url(#paint6_linear_28_386)"/>
<path d="M32.3282 19.5876C32.2701 19.1236 31.9225 18.6695 31.3034 18.3171L26.4279 15.5427L26.5188 15.4516H26.5192L31.3034 18.1744C31.986 18.5631 32.3278 19.0753 32.3282 19.5876" fill="url(#paint7_linear_28_386)"/>
<path d="M9.75107 8.90184V8.75219C9.75107 8.69823 9.75252 8.64545 9.75529 8.59422V8.59189C9.75529 8.59118 9.75529 8.59044 9.75556 8.58964V8.58388C9.785 8.06164 9.94693 7.65429 10.2036 7.38227L10.2751 7.45415C9.94693 7.75072 9.75107 8.24532 9.75107 8.90184Z" fill="url(#paint8_linear_28_386)"/>
<path d="M26.4279 15.5428L12.2356 7.46561C11.8422 7.24223 11.4699 7.13629 11.1383 7.13629C10.8003 7.13629 10.5054 7.24646 10.2751 7.45421L10.2036 7.38229C10.226 7.35862 10.2492 7.33579 10.2732 7.31384C10.2739 7.31305 10.2751 7.31226 10.2759 7.31151C10.5043 7.10535 10.7961 6.99518 11.1311 6.9932H11.1383C11.4699 6.9932 11.8422 7.09918 12.2356 7.32265L26.5192 15.4513L26.5188 15.4516L26.4279 15.5428" fill="url(#paint9_linear_28_386)"/>
<defs>
<linearGradient id="paint0_linear_28_386" x1="17.493" y1="8.5299" x2="7.05298" y2="18.9867" gradientUnits="userSpaceOnUse">
<stop stop-color="#00A0FF"/>
<stop offset="0.00657" stop-color="#00A1FF"/>
<stop offset="0.2601" stop-color="#00BEFF"/>
<stop offset="0.5122" stop-color="#00D2FF"/>
<stop offset="0.7604" stop-color="#00DFFF"/>
<stop offset="1" stop-color="#00E3FF"/>
</linearGradient>
<linearGradient id="paint1_linear_28_386" x1="33.0825" y1="19.5181" x2="9.42324" y2="19.5181" gradientUnits="userSpaceOnUse">
<stop stop-color="#FFE000"/>
<stop offset="0.4087" stop-color="#FFBD00"/>
<stop offset="0.7754" stop-color="#FFA500"/>
<stop offset="1" stop-color="#FF9C00"/>
</linearGradient>
<linearGradient id="paint2_linear_28_386" x1="24.2841" y1="23.4347" x2="6.5928" y2="41.025" gradientUnits="userSpaceOnUse">
<stop stop-color="#FF3A44"/>
<stop offset="1" stop-color="#C31162"/>
</linearGradient>
<linearGradient id="paint3_linear_28_386" x1="7.15277" y1="5.65535" x2="15.0374" y2="13.5071" gradientUnits="userSpaceOnUse">
<stop stop-color="#32A071"/>
<stop offset="0.0685" stop-color="#2DA771"/>
<stop offset="0.4762" stop-color="#15CF74"/>
<stop offset="0.8009" stop-color="#06E775"/>
<stop offset="1" stop-color="#00F076"/>
</linearGradient>
<linearGradient id="paint4_linear_28_386" x1="24.2753" y1="26.2412" x2="10.1072" y2="40.4322" gradientUnits="userSpaceOnUse">
<stop stop-color="#CC2E36"/>
<stop offset="1" stop-color="#9C0E4E"/>
</linearGradient>
<linearGradient id="paint5_linear_28_386" x1="11.3649" y1="8.52985" x2="2.16743" y2="17.7423" gradientUnits="userSpaceOnUse">
<stop stop-color="#008DE0"/>
<stop offset="0.00657" stop-color="#008DE0"/>
<stop offset="0.2601" stop-color="#00A7E0"/>
<stop offset="0.5122" stop-color="#00B8E0"/>
<stop offset="0.7604" stop-color="#00C4E0"/>
<stop offset="1" stop-color="#00C7E0"/>
</linearGradient>
<linearGradient id="paint6_linear_28_386" x1="33.0826" y1="19.5885" x2="9.42321" y2="19.5885" gradientUnits="userSpaceOnUse">
<stop stop-color="#E0C500"/>
<stop offset="0.4087" stop-color="#E0A600"/>
<stop offset="0.7754" stop-color="#E09100"/>
<stop offset="1" stop-color="#E08900"/>
</linearGradient>
<linearGradient id="paint7_linear_28_386" x1="33.0825" y1="19.5886" x2="9.42329" y2="19.5886" gradientUnits="userSpaceOnUse">
<stop stop-color="#FFE840"/>
<stop offset="0.4087" stop-color="#FFCE40"/>
<stop offset="0.7754" stop-color="#FFBC40"/>
<stop offset="1" stop-color="#FFB540"/>
</linearGradient>
<linearGradient id="paint8_linear_28_386" x1="11.3549" y1="8.54651" x2="2.49613" y2="17.0352" gradientUnits="userSpaceOnUse">
<stop stop-color="#40B8FF"/>
<stop offset="0.00657" stop-color="#40B9FF"/>
<stop offset="0.2601" stop-color="#40CEFF"/>
<stop offset="0.5122" stop-color="#40DDFF"/>
<stop offset="0.7604" stop-color="#40E7FF"/>
<stop offset="1" stop-color="#40EAFF"/>
</linearGradient>
<linearGradient id="paint9_linear_28_386" x1="7.13517" y1="8.22138" x2="13.4619" y2="14.5584" gradientUnits="userSpaceOnUse">
<stop stop-color="#65B895"/>
<stop offset="0.0685" stop-color="#62BD95"/>
<stop offset="0.4762" stop-color="#50DB97"/>
<stop offset="0.8009" stop-color="#44ED98"/>
<stop offset="1" stop-color="#40F498"/>
</linearGradient>
</defs>
</svg>
